<svg version="1.1" id="Layer_1" xmlns="http://www.w3.org/2000/svg" x="0" y="0" viewBox="0 0 17 25" xml:space="preserve"><style type="text/css">.st0{fill:#96a8d7}</style><path class="st0" d="M8.6-1055c-.2 0-.4-.1-.6-.3-.1-.1-2-2.5-3.9-6-3.6-5.8-3.9-8.4-3.9-10.5 0-4.5 3.8-8.2 8.4-8.2s8.4 3.7 8.4 8.2c0 2.1-.2 4.1-3.9 10.5-1.9 3.5-3.8 5.9-3.9 6-.2.2-.4.3-.6.3zm0-23.6c-3.9 0-7.2 3.1-7 6.8.2 4.3 2.5 7.8 3.8 9.9 1.3 2.3 2.5 4.1 3.2 5.1.7-1 2-2.8 3.2-5.1 1.7-3.1 3.6-5.4 3.8-9.9.1-3.8-3.1-6.8-7-6.8z" transform="translate(0 1080)"/><path class="st0" d="M8.6-1067.7c-2.3 0-4.2-1.8-4.2-4.1s1.9-4.1 4.2-4.1 4.2 1.8 4.2 4.1-1.9 4.1-4.2 4.1zm0-6.8c-1.5 0-2.8 1.2-2.8 2.7s1.3 2.7 2.8 2.7 2.8-1.2 2.8-2.7c0-1.5-1.3-2.7-2.8-2.7z" transform="translate(0 1080)"/></svg>