<?xml version="1.0" encoding="utf-8"?>
<!-- Generator: Adobe Illustrator 22.0.0, SVG Export Plug-In . SVG Version: 6.00 Build 0)  -->
<svg version="1.1" id="Layer_1" xmlns="http://www.w3.org/2000/svg" xmlns:xlink="http://www.w3.org/1999/xlink" x="0px" y="0px"
	 viewBox="0 0 55 55" style="enable-background:new 0 0 55 55;" xml:space="preserve">
<style type="text/css">
	.st0{fill:#647CC8;}
	.st1{fill:#D7E0F7;}
</style>
<circle class="st0" cx="27.5" cy="27.5" r="27.5"/>
<g transform="translate(360 2240)">
	<path class="st1" d="M-210.9-2143.6c0.6-0.7,0.9-1.8,0.9-2.9c0-0.7-0.2-1.3-0.4-1.8c-0.4-0.6-1-0.9-1.7-0.9h-3.5
		c1.9-3.5,2.4-6.1,1.4-7.8c-0.7-1.2-1.9-1.6-2.7-1.6c-0.3,0-0.6,0.2-0.7,0.6c-0.2,1.8-1.6,3.9-3.7,5.8c-2,1.8-4.5,3.3-7.1,4.2
		c-0.3-0.7-1-1.2-1.8-1.2h-4c-1.1,0-2,0.9-2,2v12.1c0,1.1,0.9,2,2,2h4c0.9,0,1.6-0.5,1.9-1.3c2.6,0.3,3.6,0.9,4.6,1.4
		c1.2,0.6,2.3,1.2,6,1.2c1,0,1.9-0.3,2.6-0.7c0.7-0.4,1.1-1.1,1.2-1.8c0.5-0.2,1-0.7,1.4-1.5c0.4-0.7,0.6-1.7,0.6-2.4
		c0-0.1,0-0.3,0-0.4c0.3-0.2,0.6-0.6,0.9-1.1c0.4-0.7,0.6-1.6,0.6-2.4C-210.5-2142.7-210.7-2143.2-210.9-2143.6L-210.9-2143.6
		L-210.9-2143.6z M-230.3-2134.5h-4c-0.4,0-0.7-0.3-0.7-0.7v-12.1c0-0.4,0.3-0.7,0.7-0.7h4c0.4,0,0.7,0.3,0.7,0.7v12.1l0,0
		C-229.6-2134.8-229.9-2134.5-230.3-2134.5z M-211.7-2144.9c-0.2,0.4-0.4,0.6-0.5,0.6c-0.4,0-0.7,0.3-0.7,0.7s0.3,0.7,0.7,0.7
		c0.1,0,0.1,0,0.2,0.1c0.1,0.2,0.1,0.4,0.1,0.7c0,0.6-0.2,1.3-0.4,1.9c-0.3,0.5-0.5,0.7-0.7,0.7c-0.4,0-0.7,0.3-0.7,0.7
		c0,0.2,0.1,0.4,0.3,0.6c0,0.4-0.2,1.6-0.7,2.3c-0.2,0.3-0.4,0.4-0.6,0.4c-0.4,0-0.7,0.3-0.7,0.7c0,1.2-1.3,1.7-2.5,1.7
		c-3.4,0-4.3-0.5-5.4-1.1c-1-0.5-2.2-1.2-5.1-1.5v-11c2.8-0.9,5.6-2.5,7.8-4.5c2.1-1.9,3.5-4,4-5.9c0.4,0.1,0.8,0.4,1,0.8
		c0.4,0.8,0.8,2.8-2,7.5c-0.1,0.2-0.1,0.5,0,0.7s0.3,0.3,0.6,0.3h4.7c0.3,0,0.4,0.1,0.6,0.3c0.2,0.3,0.2,0.6,0.2,1.1
		C-211.3-2145.9-211.5-2145.3-211.7-2144.9L-211.7-2144.9z"/>
</g>
<g transform="translate(400 2240)">
	<path class="st1" d="M-195.9-2144.2c0.6,0.7,0.9,1.8,0.9,2.9c0,0.7-0.2,1.3-0.4,1.8c-0.4,0.6-1,0.9-1.7,0.9h-3.5
		c1.9,3.5,2.4,6.1,1.4,7.8c-0.7,1.2-1.9,1.6-2.7,1.6c-0.3,0-0.6-0.2-0.7-0.6c-0.2-1.8-1.6-3.9-3.7-5.8c-2-1.8-4.5-3.3-7.1-4.2
		c-0.3,0.7-1,1.2-1.8,1.2h-4c-1.1,0-2-0.9-2-2v-12.1c0-1.1,0.9-2,2-2h4c0.9,0,1.6,0.5,1.9,1.3c2.6-0.3,3.6-0.9,4.6-1.4
		c1.2-0.6,2.3-1.2,6-1.2c1,0,1.9,0.3,2.6,0.7c0.7,0.4,1.1,1.1,1.2,1.8c0.5,0.2,1,0.7,1.4,1.5c0.4,0.7,0.6,1.7,0.6,2.4
		c0,0.1,0,0.3,0,0.4c0.3,0.2,0.6,0.6,0.9,1.1c0.4,0.7,0.6,1.6,0.6,2.4C-195.6-2145.1-195.7-2144.6-195.9-2144.2L-195.9-2144.2
		L-195.9-2144.2z M-215.3-2153.3h-4c-0.4,0-0.7,0.3-0.7,0.7v12.1c0,0.4,0.3,0.7,0.7,0.7h4c0.4,0,0.7-0.3,0.7-0.7v-12.1l0,0
		C-214.6-2153-214.9-2153.3-215.3-2153.3z M-196.7-2142.9c-0.2-0.4-0.4-0.6-0.5-0.6c-0.4,0-0.7-0.3-0.7-0.7s0.3-0.7,0.7-0.7
		c0.1,0,0.1,0,0.2-0.1c0.1-0.2,0.1-0.4,0.1-0.7c0-0.6-0.2-1.3-0.4-1.9c-0.3-0.5-0.5-0.7-0.7-0.7c-0.4,0-0.7-0.3-0.7-0.7
		c0-0.2,0.1-0.4,0.3-0.6c0-0.4-0.2-1.6-0.7-2.3c-0.2-0.3-0.4-0.4-0.6-0.4c-0.4,0-0.7-0.3-0.7-0.7c0-1.2-1.3-1.7-2.5-1.7
		c-3.4,0-4.3,0.5-5.4,1.1c-1,0.5-2.2,1.2-5.1,1.5v11c2.8,0.9,5.6,2.5,7.8,4.5c2.1,1.9,3.5,4,4,5.9c0.4-0.1,0.8-0.4,1-0.8
		c0.4-0.8,0.8-2.8-2-7.5c-0.1-0.2-0.1-0.5,0-0.7s0.3-0.3,0.6-0.3h4.7c0.3,0,0.4-0.1,0.6-0.3c0.2-0.3,0.2-0.6,0.2-1.1
		C-196.3-2141.9-196.5-2142.5-196.7-2142.9L-196.7-2142.9z"/>
</g>
<g transform="translate(520 2240)">
	<path class="st1" d="M-441.5-2133.3c1.4,0,2.5-0.9,3-2.1c0.5,0.3,1.1,0.5,1.7,0.5c1.7,0,3.1-1.4,3.1-3.1v-4.7h7.8
		c1.7,0,3.1-1.4,3.1-3.1c0-1.7-1.4-3.1-3.1-3.1h-7.8c0-0.2,0-1.9-1-2.9c-0.8-0.8-1.7-1.4-2.9-1.8c-1.5-0.5-3.3-0.8-5.5-0.8
		c-1.9,0-4,0.3-5.9,0.8c-1.1,0.3-3.1,0.9-4,1.8c-1,1-1,2.7-1,2.9v9.4c0,1.7,1.4,3.1,3.1,3.1c0.6,0,1.2-0.2,1.7-0.5
		c0.4,1.2,1.6,2.1,3,2.1c0.6,0,1.2-0.2,1.7-0.5C-444-2134.2-442.9-2133.3-441.5-2133.3L-441.5-2133.3z M-425.8-2147.4
		c0.9,0,1.6,0.7,1.6,1.6c0,0.9-0.7,1.6-1.6,1.6h-7.8v-3.1h7.8V-2147.4z M-443.1-2136.5v-7c0-0.4-0.4-0.8-0.8-0.8s-0.8,0.4-0.8,0.8
		v5.5c0,0.9-0.7,1.6-1.6,1.6s-1.6-0.7-1.6-1.6v-6.3c0-0.4-0.4-0.8-0.8-0.8s-0.8,0.4-0.8,0.8v4.7c0,0.9-0.7,1.6-1.6,1.6
		s-1.6-0.7-1.6-1.6v-9.4c0-0.3,0.1-1.4,0.6-1.8c0.9-0.9,4.9-2.1,8.8-2.1c5.2,0,6.8,1.6,7.3,2.1c0.4,0.4,0.6,1.5,0.6,1.8v11
		c0,0.9-0.7,1.6-1.6,1.6s-1.6-0.7-1.6-1.6v-5.5c0-0.4-0.4-0.8-0.8-0.8s-0.8,0.4-0.8,0.8v7c0,0.9-0.7,1.6-1.6,1.6
		C-442.4-2134.9-443.1-2135.6-443.1-2136.5z"/>
</g>
<path class="st1" d="M35.7,91.1c0.1-3.1,0.3-6.1,0.4-9.2c0-0.7-0.2-1-0.9-0.9s-1.5,0.3-2.2,0.5c0-0.1,0-0.3-0.1-0.4
	c-0.1-1.4-0.3-2.7-0.4-4.1c-0.1-0.7-0.4-1-1.1-0.7c-0.5,0.2-1.1,0.4-1.5,0.7c-1,0.7-1.3,1.7-1.2,3.1c-0.2-0.3-0.4-0.5-0.5-0.7
	c-0.6-0.9-1.1-1.8-1.7-2.7c-0.2-0.3-0.5-0.6-0.9-0.3c-1.5,0.9-2.3,3.4-1.5,5c0.8,1.7,1.8,3.3,2.7,4.9c0.1,0.2,0.2,0.4,0.3,0.5
	c-1.4,0.1-2.8,0.2-4.2,0.3c-1.3,0.1-2.5,0.6-3.3,1.6c-0.6,0.8-1.3,1.5-2,2.2c-0.9-0.1-1.2,0.1-1.6,0.8c-0.6,1.2-0.5,2.6-0.8,3.9
	c-0.2,0.9-0.1,1.8,0.3,2.6c0.3,0.7,0.7,1.5,1.2,2.1c0.8,1,1.7,2,2.5,3c0.7,0.8,1.7,2.3,2.3,3.3c-0.3,0.3-0.5,0.8-0.5,1.3v3.7
	c0,1,0.8,1.9,1.9,1.9H34c1,0,1.9-0.8,1.9-1.9v-3.7c0-0.6-0.3-1.2-0.8-1.5c0.2-2.3,0.6-5.2,0.8-7.4c0.2-1.7,0.5-3.4,0.1-5.1
	C35.7,92.9,35.7,92,35.7,91.1z M35,82.2c-0.1,2.5-0.2,5-0.4,7.6c-1-1.2-0.9-2.5-1.1-3.8c-0.1-0.6-0.1-1.2-0.2-1.8
	C33.2,83,33.6,82.4,35,82.2z M29.9,79.2c0.1-0.8,0.6-1.4,1.5-1.7c0.3,2.6,0.6,5.2,0.9,7.8C30.6,84,29.5,81.2,29.9,79.2z M18.7,101
	c-1-1-1.8-2.2-2.3-3.6c-0.6-1.9,0.4-3.6,0.6-5.4c1.2,0.5,1.6,1.1,1.6,2.2c-0.1,1.3,0,2.5,0.9,3.4c1.2,1.1,2.4,2.1,3.7,3
	c0.2,0.2,0.7,0.2,1,0.1c1.3-0.5,2.5-1.1,3.7-1.7c0.2-0.1,0.4-0.2,0.4-0.3c0.3-1,0.6-2.1,0.9-3.1c0-0.1-0.1-0.3-0.2-0.5
	c-0.5-1-0.9-2.1-1.5-3.1c-0.1-0.3-0.4-0.6-0.6-0.7c-1.8-1.3-3.8-1.3-5.7,0.2c-0.9,0.7-1.7,0.6-2.3-0.3c0.7-0.7,1.4-1.5,2.1-2.2
	c0.2-0.2,0.6-0.4,0.9-0.4c1.4-0.2,2.8-0.3,4.1-0.4c0.6-0.1,1.1,0.2,1.5,0.6c1.2,1.3,2.4,2.5,3.6,3.8c0.3,0.3,0.6,0.6,1,0.2
	c0.4-0.4,0.1-0.7-0.2-1c-0.3-0.4-0.7-0.7-1-1.1c-2.2-3.1-4.3-6.3-5.8-9.8c-0.5-1,0-2,0.7-2.8c0.2,0.3,0.3,0.5,0.5,0.7
	c1.1,1.8,2.1,3.7,3.4,5.4c1.8,2.4,3.1,5,4.3,7.7c0.7,1.6,1.1,3.3,1,5.1c-0.1,1.3-0.4,2.6-0.6,3.9c-0.2,1.8-0.4,3.6-0.5,5.5H22.6
	C21.5,104.3,20.2,102.5,18.7,101z M19.8,92.9c1,0.2,1.7-0.3,2.4-0.8c1.2-0.9,2.7-1,3.9-0.2c0.3,0.2,0.5,0.4,0.6,0.7
	c0.4,0.8,0.8,1.5,1.1,2.3c0.1,0.3,0.1,0.7,0.1,1.1c-0.1,1.3-0.9,2.2-2.2,2.5c-0.2,0.1-0.4,0.2-0.5,0.2c-1.5,0.7-1.5,0.7-2.9-0.3
	c-0.4-0.3-0.8-0.7-1.1-1c-1.1-0.9-1.7-2-1.4-3.4C19.8,93.8,19.8,93.4,19.8,92.9z M34.6,111.5c0,0.3-0.3,0.6-0.6,0.6H22.8
	c-0.3,0-0.6-0.3-0.6-0.6v-3.7c0-0.3,0.3-0.6,0.6-0.6H34l0,0c0.3,0,0.6,0.3,0.6,0.6V111.5z"/>
<g transform="translate(160 400)">
	<path class="st1" d="M-58.6-238.7c-0.3,0-0.5-0.3-0.5-0.6l1.3-17.1c0-0.3,0.3-0.5,0.6-0.5s0.5,0.3,0.5,0.6l-1.3,17.1
		C-58-238.9-58.3-238.6-58.6-238.7z"/>
	<path class="st1" d="M-42.6-244.7c-2.4-0.2-3.6-1.5-4.6-2.7s-1.9-2.2-3.8-2.3c-2-0.2-3,0.7-4.2,1.7c-0.2,0.2-0.6,0.2-0.8-0.1
		c-0.2-0.2-0.2-0.6,0.1-0.8c1.2-1,2.5-2.2,5-2c2.4,0.2,3.6,1.5,4.6,2.7s1.9,2.2,3.8,2.3c1.9,0.1,2.9-0.6,4-1.6l0.5-6.2
		c-1,0.7-2.2,1.3-4,1.2c-2.4-0.2-3.6-1.5-4.6-2.7c-1-1.2-1.9-2.2-3.8-2.3c-2-0.2-3,0.7-4.2,1.7c-0.2,0.2-0.6,0.2-0.8-0.1
		c-0.2-0.2-0.2-0.6,0.1-0.8c1.2-1,2.5-2.2,5-2s3.6,1.5,4.6,2.7c1,1.2,1.9,2.2,3.8,2.3c2,0.2,3-0.7,4.2-1.7c0.2-0.1,0.4-0.2,0.6-0.1
		s0.3,0.3,0.3,0.5l-0.6,7.7c0,0.1-0.1,0.3-0.2,0.4C-38.9-245.6-40.2-244.5-42.6-244.7L-42.6-244.7z"/>
</g>
<path class="st1" d="M97.7,161.3c0-0.3,0.2-0.6,0.6-0.6h6.6c0.3,0,0.6,0.2,0.6,0.6c0,0.3-0.2,0.6-0.6,0.6h-6.6
	C97.9,161.9,97.7,161.6,97.7,161.3z"/>
<g transform="translate(0 1080)">
	<path class="st1" d="M27.8-914c-0.2,0-0.4-0.1-0.5-0.3c-0.1-0.1-1.9-2.5-3.8-5.9c-3.5-5.8-3.8-8.4-3.8-10.5c0-4.5,3.7-8.1,8.1-8.1
		s8.1,3.7,8.1,8.1c0,2.1-0.2,4-3.8,10.5c-1.9,3.5-3.7,5.9-3.8,5.9C28.2-914.1,28-914,27.8-914L27.8-914z M27.8-937.5
		c-3.7,0-6.9,3-6.8,6.8c0.2,4.3,2.4,7.7,3.7,9.8c1.2,2.3,2.5,4.1,3.1,5c0.7-0.9,1.9-2.8,3.1-5.1c1.7-3.1,3.5-5.3,3.6-9.8
		C34.7-934.4,31.5-937.5,27.8-937.5z"/>
	<path class="st1" d="M27.8-926.6c-2.2,0-4.1-1.8-4.1-4.1s1.8-4.1,4.1-4.1c2.2,0,4.1,1.8,4.1,4.1S30.1-926.6,27.8-926.6z
		 M27.8-933.4c-1.5,0-2.7,1.2-2.7,2.7s1.2,2.7,2.7,2.7s2.7-1.2,2.7-2.7S29.3-933.4,27.8-933.4z"/>
</g>
<path class="st1" d="M78.1,143.9c-1,0-1.8-0.8-1.8-1.8s0.8-1.8,1.8-1.8s1.8,0.8,1.8,1.8C79.9,143.1,79.1,143.9,78.1,143.9z
	 M78.1,141.5c-0.3,0-0.6,0.3-0.6,0.6s0.3,0.6,0.6,0.6c0.3,0,0.6-0.3,0.6-0.6S78.5,141.5,78.1,141.5z"/>
<path class="st1" d="M78.1,151.1c-0.2,0-0.3-0.1-0.5-0.2c0,0-0.9-1.1-1.9-2.7c-1.2-2.2-1.9-4.2-1.9-6.1c0-2.3,1.9-4.2,4.2-4.2
	c2.3,0,4.2,1.9,4.2,4.2c0,1.8-0.6,3.9-1.9,6.1c-0.9,1.6-1.8,2.7-1.9,2.7C78.5,151,78.3,151.1,78.1,151.1z M78.1,139.1
	c-1.6,0-3,1.3-3,3c0,3,2.1,6.2,3,7.4c0.9-1.3,3-4.4,3-7.4C81.1,140.5,79.8,139.1,78.1,139.1z"/>
<g transform="translate(0 1840)">
	<path class="st1" d="M160.2-1696.1c-2.3-2.3-5.3-3.6-8.6-3.6c-3.2,0-6.3,1.3-8.6,3.6c-2.3,2.3-3.6,5.3-3.6,8.6s1.3,6.3,3.6,8.6
		c2.3,2.3,5.3,3.6,8.6,3.6c3.2,0,6.3-1.3,8.6-3.6c2.3-2.3,3.6-5.3,3.6-8.6S162.5-1693.8,160.2-1696.1z M161.8-1691.5
		c-0.2-0.4-0.8-0.6-1.6-0.9s-1.1-1.1-1.5-2.1c-0.3-0.9-0.6-1.8-1.3-2.3C159.4-1695.6,161-1693.7,161.8-1691.5z M158.4-1687.3
		c0.1,0.8,0.2,1.7-0.8,2.8c-0.3,0.3-0.4,0.7-0.6,1.2c-0.4,1.1-0.8,2.1-2.4,2.1c0-0.1-0.2-0.3-0.3-0.9s-0.2-1.3-0.2-2.1
		c-0.1-1.2-0.2-2.6-0.5-3.8c-0.4-1.5-1-2.3-2-2.7c-0.4-0.1-0.8-0.2-1.3-0.2c-0.3,0-0.6,0-0.9,0.1c-0.2,0-0.4,0-0.6,0l0,0
		c-0.3,0-0.6,0-1-0.9c-0.6-1.3-0.1-3.4,1.5-4.5c0.9-0.6,1.5-0.9,2.1-0.9c0.5,0,0.9,0.2,1.6,0.5c0.8,0.4,1.5,0.5,1.9,0.5
		c0.2,0,0.4,0,0.5,0s0.3,0,0.4,0c0.3,0,0.5,0,0.7,0.2c0.5,0.3,0.7,1,1,1.8c0.4,1.1,0.8,2.4,2.2,2.9c0.2,0.1,0.5,0.2,0.7,0.3
		c-0.2,0.2-0.5,0.5-0.9,0.8c-0.2,0.2-0.4,0.4-0.7,0.6C158.3-1688.8,158.4-1688,158.4-1687.3L158.4-1687.3z M140.7-1687.6
		c0.1,0,0.3,0.1,0.4,0.1c0.7,0.1,1,0.3,1.1,0.4c-0.1,0.1-0.2,0.3-0.3,0.4c-0.3,0.4-0.7,1-0.5,1.5c0.1,0.4,0,0.9-0.1,1.3
		C141-1685,140.7-1686.3,140.7-1687.6L140.7-1687.6L140.7-1687.6z M151.7-1676.6c-4.2,0-7.8-2.3-9.6-5.8c0.3-0.6,0.9-1.9,0.6-3.1
		c0-0.1,0.2-0.4,0.3-0.6c0.3-0.5,0.7-1,0.4-1.7c-0.2-0.4-0.8-0.7-1.9-1c-0.3-0.1-0.5-0.1-0.7-0.1c0.7-5.4,5.3-9.6,10.8-9.6
		c1.9,0,3.7,0.5,5.3,1.4c-0.4-0.2-0.7-0.2-1-0.2c-0.2,0-0.3,0-0.5,0c-0.1,0-0.3,0-0.4,0c-0.3,0-0.8,0-1.3-0.3
		c-0.9-0.5-1.5-0.7-2.2-0.7c-0.8,0-1.7,0.3-2.8,1.1c-1,0.6-1.7,1.6-2.1,2.8c-0.4,1.1-0.3,2.3,0.1,3.2c0.5,1.1,1.1,1.6,2.1,1.6l0,0
		c0.2,0,0.5,0,0.7-0.1c0.2,0,0.5-0.1,0.8-0.1s0.6,0,0.9,0.1c0.5,0.2,0.9,0.8,1.2,1.8s0.4,2.4,0.5,3.6c0.1,1,0.2,1.9,0.3,2.6
		c0.1,0.4,0.2,0.7,0.4,1c0.2,0.4,0.6,0.6,1,0.6c1.1,0,1.9-0.3,2.5-1c0.5-0.6,0.8-1.3,1-1.8c0.1-0.3,0.3-0.7,0.4-0.8
		c1.4-1.5,1.2-2.8,1.1-3.8c-0.1-0.7-0.1-0.9,0.2-1.2c0.3-0.2,0.5-0.4,0.7-0.6c0.4-0.4,0.8-0.7,1-0.9c0.2-0.2,0.5-0.6,0.4-1l0,0
		c0.4,1.2,0.6,2.4,0.6,3.7C162.6-1681.5,157.7-1676.6,151.7-1676.6L151.7-1676.6z"/>
</g>
<g transform="translate(160 1840)">
	<path class="st1" d="M45.3-1694.3c-0.5-0.9-1.5-1.5-2.9-1.7c-1.2-0.2-2.5-0.1-4.1,0.2c-1.7-1.1-3.6-1.6-5.6-1.6
		c-2.8,0-5.4,1.1-7.4,3.1s-3.1,4.6-3.1,7.4c0,0.2,0,0.3,0,0.5c-1.1,1.2-1.8,2.4-2.2,3.5c-0.5,1.3-0.5,2.4,0,3.3
		c0.7,1.2,2.2,1.8,4.3,1.8c0.6,0,1.2,0,1.9-0.1c0.3,0,0.6-0.1,0.9-0.2c1.7,1.1,3.6,1.6,5.6,1.6c2.8,0,5.4-1.1,7.4-3.1
		s3.1-4.6,3.1-7.4c0-0.2,0-0.3,0-0.5c0.2-0.2,0.4-0.5,0.6-0.7C45.6-1690.6,46.1-1692.8,45.3-1694.3L45.3-1694.3z M32.6-1696.2
		c4.7,0,8.6,3.6,9.1,8.2c-1.7,1.8-4,3.6-6.7,5.1s-5.4,2.6-7.8,3.2c-2.3-1.7-3.8-4.4-3.8-7.4C23.5-1692.1,27.6-1696.2,32.6-1696.2
		L32.6-1696.2z M21.1-1680.4c-0.6-1-0.1-2.6,1.3-4.4c0.4,1.9,1.4,3.7,2.8,5.1c0.1,0.1,0.2,0.2,0.3,0.3
		C23.3-1679,21.7-1679.4,21.1-1680.4L21.1-1680.4z M32.6-1677.9c-1.3,0-2.6-0.3-3.7-0.8c2.2-0.6,4.5-1.7,6.8-3s4.4-2.8,6-4.4
		C41.2-1681.5,37.3-1677.9,32.6-1677.9z M40-1694.4c-0.1-0.1-0.2-0.2-0.3-0.3c2.3-0.3,3.9,0.1,4.5,1.1s0.1,2.6-1.3,4.4
		C42.4-1691.2,41.4-1693,40-1694.4z"/>
</g>
<path class="st1" d="M77.5,153.5v6.5l-6,3v-16.6l1.2-0.6c0.2-0.1,0.3-0.3,0.3-0.5l0,0c0-0.4-0.5-0.7-0.9-0.5l-1.2,0.6l-6.9-3.5
	c-0.2-0.1-0.4-0.1-0.5,0l-7.2,3.6c-0.2,0.1-0.3,0.3-0.3,0.5v18c0,0.2,0.1,0.4,0.3,0.5c0.1,0.1,0.2,0.1,0.3,0.1s0.2,0,0.3-0.1
	l6.9-3.5l6.9,3.5c0.2,0.1,0.4,0.1,0.5,0l7.2-3.6c0.2-0.1,0.3-0.3,0.3-0.5v-6.9c0-0.3-0.3-0.6-0.6-0.6l0,0
	C77.8,152.9,77.5,153.1,77.5,153.5z M63.1,160l-6,3v-16.6l6-3V160z M70.3,163l-6-3v-16.6l6,3V163z"/>
<path class="st1" d="M-158.2,37.9h8.4c0.3,0,0.6-0.3,0.6-0.6v-0.1c0-0.2-0.1-1.5-0.6-2.7c-0.3-0.8-0.8-1.5-1.4-2
	c-0.1-0.1-0.3-0.2-0.5-0.3l-0.2-0.1l0.2-0.2c0.6-0.6,0.9-1.3,0.9-2.2c0-1.7-1.4-3.1-3.1-3.1s-3.1,1.4-3.1,3.1c0,0.8,0.3,1.6,0.9,2.2
	l0.2,0.2l-0.2,0.1c-0.2,0.1-0.3,0.2-0.5,0.3c-0.6,0.5-1.1,1.1-1.4,2c-0.6,1.4-0.6,2.7-0.6,2.8C-158.8,37.6-158.5,37.9-158.2,37.9z
	 M-154,27.8c1,0,1.9,0.8,1.9,1.9c0,1-0.8,1.9-1.9,1.9c-1,0-1.9-0.8-1.9-1.9C-155.9,28.7-155.1,27.8-154,27.8z M-157.1,35
	c0.6-1.4,1.6-2.1,3.1-2.1c2.5,0,3.3,2.2,3.5,3.5v0.2h-6.8l-0.2-0.2C-157.4,36-157.3,35.5-157.1,35z"/>
<path class="st1" d="M-142.7,41.4c-2.1,0-4.2-0.5-6.1-1.5c-0.4-0.2-0.6-0.7-0.3-1.1c0.2-0.4,0.7-0.6,1.1-0.3
	c1.6,0.9,3.5,1.3,5.3,1.3c1.9,0,3.7-0.5,5.3-1.3c0.4-0.2,0.9-0.1,1.1,0.3c0.2,0.4,0.1,0.9-0.3,1.1
	C-138.4,40.8-140.5,41.4-142.7,41.4z"/>
<path class="st1" d="M-130.8,25.8c-0.4,0-0.7-0.2-0.8-0.6c-0.8-2.7-2.5-5.1-4.9-6.6c-0.4-0.2-0.5-0.7-0.3-1.1s0.7-0.5,1.1-0.3
	c2.8,1.7,4.8,4.4,5.6,7.6c0.1,0.4-0.1,0.9-0.6,1H-130.8L-130.8,25.8z"/>
<path class="st1" d="M-154.5,25.8c-0.1,0-0.1,0-0.2,0c-0.4-0.1-0.7-0.6-0.6-1c0.9-3.1,2.9-5.8,5.6-7.6c0.4-0.2,0.9-0.1,1.1,0.3
	s0.1,0.9-0.3,1.1c-2.4,1.5-4.2,3.9-4.9,6.6C-153.8,25.6-154.1,25.8-154.5,25.8L-154.5,25.8z"/>
<g transform="translate(120 1440)">
	<path class="st1" d="M-221.1-1402.9h-3.8c-0.3,0-0.6-0.3-0.6-0.6v-8.9c0-0.3,0.3-0.6,0.6-0.6h3.8c0.3,0,0.6,0.3,0.6,0.6v8.9
		C-220.5-1403.2-220.7-1402.9-221.1-1402.9z M-224.3-1404.2h2.5v-7.6h-2.5V-1404.2z"/>
	<path class="st1" d="M-214.8-1402.9h-3.8c-0.3,0-0.6-0.3-0.6-0.6v-12.7c0-0.3,0.3-0.6,0.6-0.6h3.8c0.3,0,0.6,0.3,0.6,0.6v12.7
		C-214.1-1403.2-214.4-1402.9-214.8-1402.9z M-217.9-1404.2h2.5v-11.4h-2.5V-1404.2z"/>
	<path class="st1" d="M-208.4-1402.9h-3.8c-0.3,0-0.6-0.3-0.6-0.6v-11.4c0-0.3,0.3-0.6,0.6-0.6h3.8c0.3,0,0.6,0.3,0.6,0.6v11.4
		C-207.8-1403.2-208.1-1402.9-208.4-1402.9z M-211.6-1404.2h2.5v-10.1h-2.5V-1404.2z"/>
	<path class="st1" d="M-202.1-1402.9h-3.8c-0.3,0-0.6-0.3-0.6-0.6v-16.5c0-0.3,0.3-0.6,0.6-0.6h3.8c0.3,0,0.6,0.3,0.6,0.6v16.5
		C-201.5-1403.2-201.8-1402.9-202.1-1402.9z M-205.3-1404.2h2.5v-15.2h-2.5V-1404.2z"/>
	<path class="st1" d="M-202.9-1426.8c-0.2-0.2-0.4-0.2-0.6-0.2l-3.8,1.3c-0.3,0.1-0.5,0.5-0.4,0.8c0.1,0.3,0.5,0.5,0.8,0.4l1.3-0.4
		l-5.4,5.4c-0.3,0.3-0.8,0.3-1.1,0.1l-3-2.3c-0.8-0.6-2-0.6-2.8,0.1l-6,4.9c-0.3,0.2-0.3,0.6-0.1,0.9c0.1,0.2,0.3,0.2,0.5,0.2
		c0.1,0,0.3,0,0.4-0.1l6-4.9c0.3-0.3,0.9-0.3,1.2,0l3,2.3c0.8,0.6,2,0.5,2.7-0.2l5.4-5.4l-0.4,1.3c-0.1,0.3,0.1,0.7,0.4,0.8
		c0.1,0,0.1,0,0.2,0c0.3,0,0.5-0.2,0.6-0.4l1.3-3.8C-202.7-1426.4-202.8-1426.6-202.9-1426.8L-202.9-1426.8z"/>
</g>
<g transform="translate(80 680)">
	<path class="st1" d="M-339.8-648.8c-0.3,0-0.6-0.3-0.6-0.6v-4.4c0-6.3-3.6-9.9-9.9-9.9c-6.3,0-9.9,3.6-9.9,9.9v4.4
		c0,0.3-0.3,0.6-0.6,0.6c-0.3,0-0.6-0.3-0.6-0.6v-4.4c0-1.9,0.3-3.5,0.9-5c0.5-1.4,1.4-2.6,2.4-3.5c1.9-1.7,4.6-2.6,7.8-2.6
		c3.2,0,5.9,0.9,7.8,2.6c1,0.9,1.9,2.1,2.4,3.5c0.6,1.4,0.9,3.1,0.9,5v4.4C-339.2-649.1-339.5-648.8-339.8-648.8L-339.8-648.8z"/>
	<path class="st1" d="M-354.6-655c-0.8,0-1.5,0.5-1.8,1.3c-1.4,0.1-2.3,0.5-3,1.3c-0.6,0.7-0.8,1.7-0.8,3s0.3,2.3,0.8,3
		c0.6,0.8,1.6,1.2,3,1.3c0.3,0.7,0.9,1.3,1.8,1.3c1,0,1.9-0.8,1.9-1.9v-7.4C-352.8-654.2-353.6-655-354.6-655z M-359-649.5
		c0-1.7,0.4-2.9,2.5-3.1v6.1C-358.5-646.6-359-647.7-359-649.5z M-354-645.8c0,0.3-0.3,0.6-0.6,0.6c-0.3,0-0.6-0.3-0.6-0.6v-7.4
		c0-0.3,0.3-0.6,0.6-0.6c0.3,0,0.6,0.3,0.6,0.6V-645.8z"/>
	<path class="st1" d="M-341.3-652.5c-0.6-0.8-1.6-1.2-3-1.3c-0.3-0.7-0.9-1.3-1.8-1.3c-1,0-1.9,0.8-1.9,1.9v7.4c0,1,0.8,1.9,1.9,1.9
		c0.8,0,1.5-0.5,1.8-1.3c1.1-0.1,1.9-0.4,2.6-0.9v1.5c0,1-0.8,1.9-1.9,1.9h-4.4c-0.3-0.7-0.9-1.2-1.7-1.2c-1,0-1.9,0.8-1.9,1.9
		s0.8,1.9,1.9,1.9c0.8,0,1.5-0.5,1.7-1.2h4.4c1.7,0,3.1-1.4,3.1-3.1v-4.9C-340.4-650.8-340.7-651.8-341.3-652.5L-341.3-652.5z
		 M-349.7-641.5c-0.3,0-0.6-0.3-0.6-0.6s0.3-0.6,0.6-0.6c0.3,0,0.6,0.3,0.6,0.6C-349.1-641.7-349.4-641.5-349.7-641.5z M-346-645.2
		c-0.3,0-0.6-0.3-0.6-0.6v-7.4c0-0.3,0.3-0.6,0.6-0.6c0.3,0,0.6,0.3,0.6,0.6v7.4C-345.4-645.4-345.7-645.2-346-645.2z M-344.1-646.4
		v-6.1c2,0.2,2.5,1.3,2.5,3.1C-341.7-647.7-342.1-646.6-344.1-646.4z"/>
</g>
<g>
	<path class="st1" d="M-183.1,19.2L-183.1,19.2h-10.1c-0.3,0-0.6-0.3-0.6-0.6c0-1.3,0.6-2.3,1.6-2.8c0.3-0.2,0.7-0.3,1-0.3
		c0.3-1.5,1.6-2.6,3.1-2.6s2.8,1.1,3.1,2.6c0.3,0.1,0.6,0.1,1,0.3c1,0.5,1.6,1.5,1.6,2.7l0,0C-182.5,18.9-182.7,19.2-183.1,19.2
		L-183.1,19.2z M-192.5,17.9h8.7c-0.1-0.5-0.4-0.8-0.8-1c-0.5-0.3-1-0.3-1-0.3c-0.3,0-0.6-0.3-0.6-0.6c0-1-0.9-1.9-1.9-1.9
		S-190,15-190,16c0,0.3-0.3,0.6-0.6,0.6c0,0-0.5,0-1,0.3C-192.1,17.2-192.4,17.5-192.5,17.9z"/>
	<path class="st1" d="M-188.1,16.7c-0.2,0-0.3-0.1-0.4-0.2c-0.1-0.1-0.2-0.3-0.2-0.4c0-0.2,0.1-0.3,0.2-0.4c0.1-0.1,0.3-0.2,0.4-0.2
		c0.2,0,0.3,0.1,0.4,0.2c0.1,0.1,0.2,0.3,0.2,0.4c0,0.2-0.1,0.3-0.2,0.4C-187.8,16.6-188,16.7-188.1,16.7z"/>
	<path class="st1" d="M-190,30.6c-0.2,0-0.3-0.1-0.4-0.2l-1.9-1.9c-0.2-0.2-0.2-0.6,0-0.9c0.2-0.2,0.6-0.2,0.9,0l1.5,1.4l5.2-5.2
		c0.2-0.2,0.6-0.2,0.9,0c0.2,0.2,0.2,0.6,0,0.9l-5.7,5.7C-189.7,30.5-189.9,30.6-190,30.6L-190,30.6z"/>
	<path class="st1" d="M-180.8,37.5c-0.1,0-0.2,0-0.3-0.1l-2.5-1.3c-0.3-0.2-0.4-0.5-0.3-0.9c0.2-0.3,0.5-0.4,0.8-0.3l2.1,1.1
		l2.2-2.2c0.2-0.2,0.6-0.2,0.9,0c0.2,0.2,0.2,0.6,0,0.9l-2.5,2.5C-180.4,37.4-180.6,37.5-180.8,37.5L-180.8,37.5z"/>
	<path class="st1" d="M-175,31.8c-0.1-0.1-0.2-0.2-0.3-0.4c-0.1-0.1-0.2-0.2-0.3-0.3c-0.2-0.2-0.4-0.4-0.6-0.6
		c-0.2-0.1-0.3-0.3-0.5-0.4c-0.2-0.1-0.3-0.2-0.5-0.3c-0.3-0.1-0.5-0.3-0.8-0.4c-0.1,0-0.2-0.1-0.3-0.1c-0.3-0.1-0.7-0.2-1.1-0.3
		c-0.1,0-0.1,0-0.2,0c0,0,0,0-0.1,0c-0.4-0.1-0.8-0.1-1.2-0.1h-0.1c-0.4,0-0.9,0.1-1.3,0.2l0,0c-2.7,0.6-4.9,2.8-5.4,5.7
		c-0.1,0.3,0.2,0.7,0.5,0.7c0.3,0.1,0.7-0.2,0.7-0.5c0.2-1.6,1.1-2.9,2.3-3.8l0,0c0.3-0.2,0.6-0.4,1-0.6c0.1,0,0.1-0.1,0.2-0.1
		c0.3-0.1,0.5-0.2,0.8-0.3c0.1,0,0.3,0,0.4-0.1c0.2,0,0.5-0.1,0.7-0.1c0.2,0,0.4,0,0.6,0s0.3,0,0.5,0c1.3,0.2,2.5,0.9,3.3,1.8
		c0.1,0.2,0.3,0.3,0.4,0.5c1.8,2.6,1.2,6.1-1.4,7.9c-2.6,1.8-6.1,1.2-7.9-1.4c-0.2-0.2-0.5-0.3-0.8-0.2c-0.3,0.1-0.4,0.4-0.4,0.7
		l0.4,2.8c0,0.1,0.1,0.2,0.1,0.3l0,0c0.1,0.2,0.4,0.3,0.6,0.3c0.3-0.1,0.6-0.4,0.5-0.7l-0.1-0.8c2.4,1.8,5.7,2,8.3,0.2
		C-173.5,39.2-172.8,34.9-175,31.8z"/>
	<path class="st1" d="M-188.6,36.9L-188.6,36.9h-8.4c-0.3,0-0.6-0.3-0.6-0.6V18.6c0-0.3,0.3-0.6,0.6-0.6h1.3c0.3,0,0.6-0.3,0.6-0.6
		c0-0.3-0.3-0.6-0.6-0.6h-1.3c-1,0-1.9,0.9-1.9,1.9v17.7c0,1,0.9,1.9,1.9,1.9h7h1.4c0.3,0,0.6-0.3,0.6-0.6
		C-188,37.2-188.2,36.9-188.6,36.9z"/>
	<path class="st1" d="M-177.4,18.6c0-1-0.9-1.9-1.9-1.9h-1.3c-0.3,0-0.6,0.3-0.6,0.6c0,0.3,0.3,0.6,0.6,0.6h1.3
		c0.3,0,0.6,0.3,0.6,0.6v7.1l0,0v1.5c0,0.3,0.3,0.6,0.6,0.6c0.3,0,0.6-0.3,0.6-0.6l0,0l0,0v-8.5H-177.4z"/>
</g>
<g>
	<path class="st1" d="M-133.9,34.1c0.1,0.1,0.3,0.2,0.5,0.2s0.3-0.1,0.5-0.2l2.6-2.6c0.1-0.1,0.2-0.3,0.2-0.5s-0.1-0.3-0.2-0.5
		c-0.1-0.1-0.3-0.2-0.5-0.2l0,0c-0.2,0-0.3,0.1-0.5,0.2l-2.2,2.2l-0.4-0.4c-0.2-0.3-0.7-0.2-0.9,0c-0.1,0.1-0.2,0.3-0.2,0.5
		s0.1,0.3,0.2,0.5L-133.9,34.1z"/>
	<path class="st1" d="M-130.4,36.2h-6.1v-8h0.5c0.4,0,0.7-0.3,0.7-0.7c0-0.4-0.3-0.7-0.7-0.7h-0.5c-0.7,0-1.2,0.6-1.2,1.2v8.2
		c0,0.7,0.6,1.2,1.2,1.2h5.9h0.2l0,0c0.2,0,0.3-0.1,0.5-0.2c0.1-0.1,0.2-0.3,0.2-0.5s-0.1-0.3-0.2-0.5
		C-130,36.2-130.2,36.2-130.4,36.2z"/>
	<path class="st1" d="M-128.8,26.8h-4.8c-0.4,0-0.7,0.3-0.7,0.7c0,0.4,0.3,0.7,0.7,0.7h4.8v8.2c0,0.2,0.1,0.3,0.2,0.5
		c0.1,0,0.2,0.1,0.4,0.1l0,0c0.6,0,0.7-0.6,0.7-0.6V28C-127.5,27.4-128.1,26.8-128.8,26.8z"/>
</g>
<g>
	<path class="st1" d="M-229.8,29.3c-3.9,0-7.2-3.2-7.2-7.2c0-3.9,3.2-7.2,7.2-7.2c3.9,0,7.2,3.2,7.2,7.2
		C-222.7,26.1-225.9,29.3-229.8,29.3z M-229.8,16.3c-3.2,0-5.9,2.6-5.9,5.9c0,3.2,2.6,5.9,5.9,5.9c3.2,0,5.9-2.6,5.9-5.9
		C-224,19-226.6,16.3-229.8,16.3z"/>
	<g>
		<path class="st1" d="M-229.8,25.5c-1.3,0-2.5-0.6-3.2-1.7c-0.2-0.2-0.1-0.5,0.1-0.7s0.5-0.1,0.7,0.1c0.6,0.8,1.5,1.2,2.4,1.2l0,0
			c0.9,0,1.8-0.5,2.4-1.2c0.2-0.2,0.5-0.3,0.7-0.1c0.2,0.2,0.3,0.5,0.1,0.7C-227.4,24.9-228.5,25.5-229.8,25.5L-229.8,25.5z"/>
	</g>
	<path class="st1" d="M-219.4,32.5c-0.9-1.2-2.1-2.1-3.6-2.8c-0.3-0.1-0.6-0.2-0.9-0.3c-0.4-0.1-0.8,0.2-0.8,0.6l0,0
		c0,0.3,0.2,0.5,0.4,0.6c1.6,0.6,3,1.5,3.9,2.6c1.3,1.7,1.3,3.4,1.3,3.5c0,0.3-0.3,0.6-0.6,0.6h-20.2c-0.3,0-0.6-0.3-0.6-0.6
		c0,0,0-1.8,1.3-3.5c0.9-1.1,2.1-2,3.7-2.6c0.3-0.1,0.4-0.3,0.4-0.6l0,0c0-0.4-0.4-0.8-0.9-0.6c-0.2,0.1-0.5,0.2-0.7,0.3
		c-1.5,0.7-2.7,1.6-3.6,2.8c-1.5,2-1.5,4.1-1.5,4.2c0,1,0.8,1.9,1.9,1.9h20.2c1,0,1.9-0.8,1.9-1.9
		C-217.8,36.6-217.9,34.6-219.4,32.5z"/>
</g>
<g>
	<path class="st1" d="M-138,14.8c-0.3-0.6-0.6-1.2-1.1-1.6c-0.9-0.8-2.1-1.2-3.5-1.2s-2.7,0.4-3.5,1.2c-0.5,0.4-0.9,1-1.1,1.6
		c-0.3,0.7-0.4,1.4-0.4,2.2v1.8c0,0.3,0.3,0.6,0.6,0.6s0.6-0.3,0.6-0.6V17c0-2.5,1.4-3.9,3.9-3.9s3.9,1.4,3.9,3.9v1.3
		c-0.1-0.5-0.2-0.8-0.4-1.1l-0.1-0.2l0,0c-0.3-0.3-0.8-0.5-1.4-0.5c-0.4,0-0.7,0.3-0.7,0.4v3.6v0.1c0,0,0.3,0.4,0.7,0.4l0,0
		c0.4,0,0.7-0.1,1-0.2v0.3c0,0.4-0.3,0.7-0.7,0.7h-1.9c-0.2-0.4-0.5-0.6-1-0.6c-0.6,0-1.1,0.5-1.1,1.1s0.5,1.1,1.1,1.1
		c0.4,0,0.8-0.2,1-0.6h1.9c0.9,0,1.7-0.7,1.7-1.7v-2c0.1,0.2,0.3,0.4,0.5,0.4l0,0c0.3,0,0.6-0.3,0.6-0.6V17
		C-137.6,16.2-137.8,15.5-138,14.8z M-139.7,18.8c0,0.7-0.1,1.1-0.8,1.2v-2.4C-139.9,17.7-139.7,18.1-139.7,18.8z"/>
	<path class="st1" d="M-143.8,20.6L-143.8,20.6V17c0,0-0.1-0.4-0.7-0.4c-0.7,0-1.2,0.3-1.5,0.7c-0.3,0.4-0.4,0.9-0.4,1.5
		s0.1,1.2,0.4,1.5c0.3,0.4,0.8,0.6,1.5,0.7c0,0,0,0,0.1,0C-144.1,21-143.9,20.7-143.8,20.6z M-144.8,17.6V20
		c-0.6-0.1-0.8-0.5-0.8-1.2S-145.4,17.7-144.8,17.6z"/>
</g>
<g transform="translate(520 560)">
	<path class="st1" d="M-424.4-522.4h-15.2c-1,0-1.7-0.8-1.7-1.7v-18.7c0-1,0.8-1.7,1.7-1.7h15.2c1,0,1.7,0.8,1.7,1.7v2.3
		c0,0.3-0.3,0.6-0.6,0.6c-0.3,0-0.6-0.3-0.6-0.6v-2.3c0-0.3-0.3-0.6-0.6-0.6h-15.2c-0.3,0-0.6,0.3-0.6,0.6v18.7
		c0,0.3,0.3,0.6,0.6,0.6h15.2c0.3,0,0.6-0.3,0.6-0.6v-4.7c0-0.3,0.3-0.6,0.6-0.6c0.3,0,0.6,0.3,0.6,0.6v4.7
		C-422.6-523.2-423.4-522.4-424.4-522.4z"/>
	<path class="st1" d="M-429.1-539.9h-8.2c-0.3,0-0.6-0.3-0.6-0.6c0-0.3,0.3-0.6,0.6-0.6h8.2c0.3,0,0.6,0.3,0.6,0.6
		C-428.5-540.2-428.7-539.9-429.1-539.9z"/>
	<path class="st1" d="M-426.7-537.6h-10.5c-0.3,0-0.6-0.3-0.6-0.6c0-0.3,0.3-0.6,0.6-0.6h10.5c0.3,0,0.6,0.3,0.6,0.6
		C-426.1-537.8-426.4-537.6-426.7-537.6z"/>
	<path class="st1" d="M-427.9-535.2h-9.3c-0.3,0-0.6-0.3-0.6-0.6c0-0.3,0.3-0.6,0.6-0.6h9.3c0.3,0,0.6,0.3,0.6,0.6
		C-427.3-535.5-427.6-535.2-427.9-535.2z"/>
	<path class="st1" d="M-431.4-532.9h-5.8c-0.3,0-0.6-0.3-0.6-0.6c0-0.3,0.3-0.6,0.6-0.6h5.8c0.3,0,0.6,0.3,0.6,0.6
		C-430.8-533.2-431.1-532.9-431.4-532.9z"/>
	<path class="st1" d="M-431.4-525.9c-0.2,0-0.3-0.1-0.4-0.2c-0.1-0.1-0.2-0.4-0.1-0.6l1.2-4.1c0-0.1,0.1-0.2,0.1-0.3l8.7-8.7
		c0.2-0.2,0.6-0.2,0.8,0l2.9,2.9c0.2,0.2,0.2,0.6,0,0.8l-8.7,8.9c-0.1,0.1-0.2,0.1-0.3,0.2l-4.1,1
		C-431.3-525.9-431.3-525.9-431.4-525.9L-431.4-525.9z M-429.7-530.3l-0.8,3l2.9-0.7l8.2-8.4l-2.1-2.1L-429.7-530.3L-429.7-530.3z"
		/>
	<path class="st1" d="M-433.7-525.9h-3.5c-0.3,0-0.6-0.3-0.6-0.6c0-0.3,0.3-0.6,0.6-0.6h3.5c0.3,0,0.6,0.3,0.6,0.6
		C-433.1-526.2-433.4-525.9-433.7-525.9z"/>
</g>
<g transform="translate(280 1040)">
	<path class="st1" d="M-140.8-1003c-2,0-4.2-0.6-6.4-1.7c-2-1-4.1-2.5-5.8-4.3c-1.8-1.8-3.3-3.8-4.3-5.8c-1.1-2.2-1.7-4.4-1.7-6.4
		c0-1.3,1.2-2.6,1.7-3.1c0.8-0.7,1.9-1.5,2.8-1.5c0.4,0,0.9,0.3,1.6,0.9c0.5,0.4,1,1.1,1.6,1.8c0.3,0.4,2,2.6,2,3.6
		c0,0.9-1,1.4-2,2.1c-0.4,0.2-0.8,0.5-1.1,0.7c-0.3,0.3-0.4,0.4-0.4,0.4c1.1,2.7,4.4,6,7.1,7.1c0,0,0.2-0.1,0.4-0.4
		c0.2-0.3,0.5-0.7,0.7-1.1c0.6-1,1.2-2,2.1-2c1,0,3.2,1.6,3.6,2c0.7,0.5,1.3,1.1,1.8,1.6c0.6,0.6,0.9,1.2,0.9,1.6
		c0,0.9-0.8,2.1-1.5,2.8C-138.2-1004.3-139.5-1003-140.8-1003L-140.8-1003z M-154.5-1024.7c-0.3,0-1.1,0.4-2,1.2
		c-0.8,0.8-1.4,1.6-1.4,2.2c0,7.7,9.4,17.1,17.1,17.1c0.6,0,1.4-0.5,2.2-1.4c0.8-0.9,1.2-1.7,1.2-2c0-0.2-0.6-1.1-2.3-2.3
		c-1.4-1.1-2.6-1.7-2.8-1.7c0,0-0.1,0.1-0.4,0.4c-0.2,0.3-0.5,0.7-0.7,1.1c-0.6,1-1.2,2-2.1,2c-0.1,0-0.3,0-0.4-0.1
		c-3-1.2-6.5-4.7-7.7-7.7c-0.1-0.4-0.2-0.9,0.5-1.6c0.4-0.3,0.9-0.7,1.4-1c0.4-0.2,0.8-0.5,1.1-0.7c0.3-0.3,0.4-0.4,0.4-0.4
		c0-0.3-0.6-1.4-1.7-2.8C-153.4-1024.1-154.3-1024.7-154.5-1024.7L-154.5-1024.7z"/>
	<path class="st1" d="M-137.9-1021.3h-2.9v-2.9c0-0.3-0.3-0.6-0.6-0.6c-0.3,0-0.6,0.3-0.6,0.6v2.9h-2.9c-0.3,0-0.6,0.3-0.6,0.6
		c0,0.3,0.3,0.6,0.6,0.6h2.9v2.9c0,0.3,0.3,0.6,0.6,0.6c0.3,0,0.6-0.3,0.6-0.6v-2.9h2.9c0.3,0,0.6-0.3,0.6-0.6
		C-137.4-1021-137.6-1021.3-137.9-1021.3z"/>
</g>
<path class="st1" d="M-110.6,79.8h-5.5c-1.1,0-2.1-0.9-2.1-2.1v-9.9c0-1.1,0.9-2.1,2.1-2.1h5.5c1.1,0,2.1,0.9,2.1,2.1v9.9
	C-108.6,78.9-109.5,79.8-110.6,79.8z M-116.1,67.2c-0.4,0-0.7,0.3-0.7,0.7v9.9c0,0.4,0.3,0.7,0.7,0.7h5.5c0.4,0,0.7-0.3,0.7-0.7
	v-9.9c0-0.4-0.3-0.7-0.7-0.7H-116.1z"/>
<path class="st1" d="M-113.3,77.1c-0.2,0-0.4-0.1-0.5-0.2c-0.1-0.1-0.2-0.3-0.2-0.5c0-0.2,0.1-0.4,0.2-0.5c0.1-0.1,0.3-0.2,0.5-0.2
	c0.2,0,0.4,0.1,0.5,0.2c0.1,0.1,0.2,0.3,0.2,0.5c0,0.2-0.1,0.4-0.2,0.5C-113,77-113.2,77.1-113.3,77.1z"/>
<g transform="translate(520 1200)">
	<path class="st1" d="M-500.7-1180.1c0,0.3-0.3,0.6-0.6,0.6c-0.3,0-0.6-0.3-0.6-0.6s0.3-0.6,0.6-0.6
		C-500.9-1180.7-500.7-1180.4-500.7-1180.1z"/>
	<path class="st1" d="M-498.3-1180.1c0,0.3-0.3,0.6-0.6,0.6c-0.3,0-0.6-0.3-0.6-0.6s0.3-0.6,0.6-0.6
		C-498.6-1180.7-498.3-1180.4-498.3-1180.1z"/>
	<path class="st1" d="M-496-1180.1c0,0.3-0.3,0.6-0.6,0.6c-0.3,0-0.6-0.3-0.6-0.6s0.3-0.6,0.6-0.6
		C-496.3-1180.7-496-1180.4-496-1180.1z"/>
	<path class="st1" d="M-482.6-1183h-19.8c-1,0-1.7,0.8-1.7,1.7v14c0,0.3,0.3,0.6,0.6,0.6c0.3,0,0.6-0.3,0.6-0.6v-9.9h8.7
		c1,0,1.7-0.8,1.7-1.7c0-0.3,0.3-0.6,0.6-0.6h5.8c0.3,0,0.6,0.3,0.6,0.6c0,1,0.8,1.7,1.7,1.7h1.7v13.4c0,0.3-0.3,0.6-0.6,0.6h-16.3
		c-0.3,0-0.6,0.3-0.6,0.6c0,0.3,0.3,0.6,0.6,0.6h16.3c1,0,1.7-0.8,1.7-1.7v-17.5C-480.8-1182.2-481.6-1183-482.6-1183z
		 M-483.8-1178.3c-0.3,0-0.6-0.3-0.6-0.6c0-1-0.8-1.7-1.7-1.7h-5.8c-1,0-1.7,0.8-1.7,1.7c0,0.3-0.3,0.6-0.6,0.6h-8.7v-2.9
		c0-0.3,0.3-0.6,0.6-0.6h19.8c0.3,0,0.6,0.3,0.6,0.6v2.9H-483.8z"/>
	<path class="st1" d="M-495.4-1171.3h-3.5c-0.3,0-0.6,0.3-0.6,0.6c0,0.3,0.3,0.6,0.6,0.6h2.1l-6,6c-0.2,0.2-0.2,0.6,0,0.8
		c0.1,0.1,0.3,0.2,0.4,0.2c0.1,0,0.3-0.1,0.4-0.2l6-6v2.1c0,0.3,0.3,0.6,0.6,0.6c0.3,0,0.6-0.3,0.6-0.6v-3.5
		C-494.8-1171.1-495.1-1171.3-495.4-1171.3L-495.4-1171.3z"/>
</g>
<path class="st1" d="M-111.4,61.1c0,0.3-0.3,0.6-0.6,0.6c-0.3,0-0.6-0.3-0.6-0.6c0-0.3,0.3-0.6,0.6-0.6
	C-111.7,60.5-111.4,60.8-111.4,61.1z"/>
<path class="st1" d="M-109.1,61.1c0,0.3-0.3,0.6-0.6,0.6c-0.3,0-0.6-0.3-0.6-0.6c0-0.3,0.3-0.6,0.6-0.6
	C-109.3,60.5-109.1,60.8-109.1,61.1z"/>
<path class="st1" d="M-106.8,61.1c0,0.3-0.3,0.6-0.6,0.6c-0.3,0-0.6-0.3-0.6-0.6c0-0.3,0.3-0.6,0.6-0.6
	C-107,60.5-106.8,60.8-106.8,61.1z"/>
<path class="st1" d="M-93.3,58.2h-19.8c-1,0-1.7,0.8-1.7,1.7v3.6c0,0.3,0.2,0.5,0.5,0.5c0.3,0,0.7,0,0.7,0h8.7c1,0,1.7-0.8,1.7-1.7
	c0-0.3,0.3-0.6,0.6-0.6h5.8c0.3,0,0.6,0.3,0.6,0.6c0,1,0.8,1.7,1.7,1.7h1.7v13.4c0,0.3-0.3,0.6-0.6,0.6h-12.4
	c-0.3,0-0.6,0.3-0.6,0.6c0,0.3,0.3,0.6,0.6,0.6h12.4c1,0,1.7-0.8,1.7-1.7V59.9C-91.6,58.9-92.4,58.2-93.3,58.2z M-94.5,62.8
	c-0.3,0-0.6-0.3-0.6-0.6c0-1-0.8-1.7-1.7-1.7h-5.8c-1,0-1.7,0.8-1.7,1.7c0,0.3-0.3,0.6-0.6,0.6h-8.7v-2.9c0-0.3,0.3-0.6,0.6-0.6
	h19.8c0.3,0,0.6,0.3,0.6,0.6v2.9H-94.5z"/>
</svg>
