<?xml version="1.0" encoding="utf-8"?>
<!-- Generator: Adobe Illustrator 22.0.0, SVG Export Plug-In . SVG Version: 6.00 Build 0)  -->
<svg version="1.1" xmlns="http://www.w3.org/2000/svg" xmlns:xlink="http://www.w3.org/1999/xlink" x="0px" y="0px"
	 viewBox="0 0 40 38" style="enable-background:new 0 0 40 38;" xml:space="preserve">
<style type="text/css">
	.st0{fill:#8697CD;}
	.st1{display:none;}
	.st2{display:inline;fill:#8697CD;}
	.st3{display:inline;}
</style>
<g id="Layer_1">
	<path class="st0" d="M39.8,4.2c-0.1-1.1-0.9-1.9-2-1.9c-1.7,0-3.3,0-5,0c-0.2,0-0.3,0-0.2-0.2c0-0.3,0-0.7,0-1
		c0-0.2-0.1-0.3-0.3-0.3c-8.2,0-16.4,0-24.7,0c-0.2,0-0.3,0.1-0.3,0.3c0,0.3,0,0.6,0,0.9c0,0.2-0.1,0.3-0.3,0.3c-1.7,0-3.4,0-5.1,0
		c-0.5,0-1,0.2-1.3,0.6C0.2,3.3,0,3.8,0,4.4c0,1,0.1,1.9,0.3,2.9c0.5,2.3,1.3,4.5,2.4,6.5c0.6,1.1,1.4,2.1,2.4,2.9
		c1.1,0.8,2.3,1.4,3.7,1.6c0.3,0,0.5,0.2,0.7,0.3c0.3,0.3,0.3,0.5,0,0.9c-0.1,0.1-0.1,0.1-0.2,0.2C9.1,19.7,9,20,9.1,20.3
		c0.1,0.3,0.3,0.6,0.7,0.6c0.9,0.2,1.9-0.4,2.2-1.3c0.1-0.3,0.1-0.3,0.3-0.1c1.2,1.2,2.5,2.2,4.1,2.9c0.3,0.1,0.4,0.3,0.6,0.5
		c0.2,0.3,0.3,0.6,0.4,0.9c0.2,0.9,0.3,1.7,0.3,2.6c0,1.6-0.1,1.6-0.2,3.2c-0.1,0.9-0.2,1.9-0.3,2.8c0,0.1,0,0.2-0.2,0.2
		c-0.2,0-0.5,0-0.7,0c-0.8,0-1.5,0.1-2.3,0.3c-1,0.3-1.4,0.5-1.5,1.8c0,0.1-0.1,0.2-0.2,0.2c-0.6,0.2-1.1,0.5-1.6,0.9
		c-0.3,0.3-0.6,0.6-0.5,1.1c0,0.2,0,0.5,0,0.7c0,0.3,0,0.3,0.3,0.3c3.2,0,6.3,0,9.5,0c3.1,0,6.3,0,9.4,0c0.1,0,0.1,0,0.2,0
		c0.1,0,0.2,0,0.2-0.2c0-0.3,0-0.6,0-0.9c0-0.4-0.2-0.7-0.5-0.9c-0.4-0.3-0.9-0.6-1.3-0.7c-0.4-0.1-0.6-0.3-0.6-0.8
		c0-0.5-0.3-1-0.8-1.2c-0.3-0.1-0.7-0.2-1-0.3c-0.8-0.2-1.7-0.2-2.6-0.3c-0.1,0-0.2,0-0.2-0.2c-0.2-1.4-0.3-2.9-0.4-4.3
		c-0.1-1.5-0.2-1.4-0.1-2.9c0.1-0.7,0.2-1.4,0.4-2c0.2-0.5,0.5-0.8,1-1c0.9-0.4,1.8-0.9,2.6-1.5c0.5-0.4,1-0.9,1.4-1.3
		c0.1-0.1,0.1-0.2,0.2,0c0.3,0.8,0.9,1.3,1.8,1.4c0.4,0.1,0.9-0.1,1.1-0.4c0.2-0.3,0.2-0.7-0.2-1.1c0,0-0.1-0.1-0.1-0.1
		c-0.2-0.2-0.2-0.4,0-0.7c0.2-0.3,0.5-0.4,0.9-0.4c1.7-0.3,3.1-1,4.4-2.3c0.8-0.8,1.4-1.8,2-2.8c1-1.8,1.6-3.7,2.1-5.7
		C39.8,6.3,39.9,5.3,39.8,4.2z M10.2,16.6c-0.1,0.1-0.2,0-0.3,0c-2.2-0.2-3.9-1.1-5.2-2.9c-1-1.4-1.6-3-2.2-4.6
		C2.2,8,1.9,6.7,1.7,5.5c-0.1-0.4-0.1-0.8,0-1.2C1.7,4.1,1.8,4,2.1,4c0.8,0,1.7,0,2.5,0c0.8,0,1.7,0,2.5,0c0.2,0,0.2,0.1,0.3,0.3
		c0.1,1.5,0.2,3,0.4,4.4c0.2,1.4,0.5,2.8,0.9,4.1c0.4,1.2,0.8,2.4,1.4,3.5C10.1,16.4,10.2,16.5,10.2,16.6z M22.9,15.3h-5.6v-1.6h1.9
		V8.5c0-0.1,0-0.3,0-0.4c0-0.1,0-0.3,0-0.4l-1.1,1c-0.1,0.1-0.2,0.1-0.3,0.1c-0.1,0-0.2,0-0.3,0c-0.1,0-0.2,0-0.2-0.1
		c-0.1,0-0.1-0.1-0.1-0.1l-0.7-0.9l3-2.7h1.7v8.7h1.6V15.3z M38.1,5.6c-0.2,1.7-0.7,3.4-1.4,5c-0.5,1.3-1.1,2.5-2,3.6
		c-0.9,1.1-2.1,1.8-3.5,2.2c-0.4,0.1-0.9,0.1-1.3,0.2c-0.2,0-0.2,0-0.1-0.2c0.9-1.6,1.4-3.3,1.9-5.1c0.3-1.4,0.6-2.7,0.7-4.1
		c0.1-0.9,0.2-1.8,0.2-2.7c0-0.5,0-0.5,0.5-0.5c0.8,0,1.5,0,2.3,0c0.8,0,1.6,0,2.5,0c0.3,0,0.4,0.1,0.4,0.4
		C38.2,4.8,38.2,5.2,38.1,5.6z"/>
</g>
<g id="Layer_2" class="st1">
	<path class="st2" d="M85.6,4.2c-0.1-1.1-0.9-1.9-2-1.9c-1.7,0-3.3,0-5,0c-0.2,0-0.3,0-0.2-0.2c0-0.3,0-0.7,0-1
		c0-0.2-0.1-0.3-0.3-0.3c-8.2,0-16.4,0-24.7,0c-0.2,0-0.3,0.1-0.3,0.3c0,0.3,0,0.6,0,0.9c0,0.2-0.1,0.3-0.3,0.3c-1.7,0-3.4,0-5.1,0
		c-0.5,0-1,0.2-1.3,0.6c-0.4,0.4-0.5,0.9-0.6,1.5c0,1,0.1,1.9,0.3,2.9c0.5,2.3,1.3,4.5,2.4,6.5c0.6,1.1,1.4,2.1,2.4,2.9
		c1.1,0.8,2.3,1.4,3.7,1.6c0.3,0,0.5,0.2,0.7,0.3c0.3,0.3,0.3,0.5,0,0.9c-0.1,0.1-0.1,0.1-0.2,0.2c-0.2,0.2-0.3,0.5-0.2,0.8
		c0.1,0.3,0.3,0.6,0.7,0.6c0.9,0.2,1.9-0.4,2.2-1.3c0.1-0.3,0.1-0.3,0.3-0.1c1.2,1.2,2.5,2.2,4.1,2.9c0.3,0.1,0.4,0.3,0.6,0.5
		c0.2,0.3,0.3,0.6,0.4,0.9c0.2,0.9,0.3,1.7,0.3,2.6c0,1.6-0.1,1.6-0.2,3.2c-0.1,0.9-0.2,1.9-0.3,2.8c0,0.1,0,0.2-0.2,0.2
		c-0.2,0-0.5,0-0.7,0c-0.8,0-1.5,0.1-2.3,0.3c-1,0.3-1.4,0.5-1.5,1.8c0,0.1-0.1,0.2-0.2,0.2c-0.6,0.2-1.1,0.5-1.6,0.9
		c-0.3,0.3-0.6,0.6-0.5,1.1c0,0.2,0,0.5,0,0.7c0,0.3,0,0.3,0.3,0.3c3.2,0,6.3,0,9.5,0c3.1,0,6.3,0,9.4,0c0.1,0,0.1,0,0.2,0
		c0.1,0,0.2,0,0.2-0.2c0-0.3,0-0.6,0-0.9c0-0.4-0.2-0.7-0.5-0.9c-0.4-0.3-0.9-0.6-1.3-0.7c-0.4-0.1-0.6-0.3-0.6-0.8
		c0-0.5-0.3-1-0.8-1.2c-0.3-0.1-0.7-0.2-1-0.3c-0.8-0.2-1.7-0.2-2.6-0.3c-0.1,0-0.2,0-0.2-0.2c-0.2-1.4-0.3-2.9-0.4-4.3
		c-0.1-1.5-0.2-1.4-0.1-2.9c0.1-0.7,0.2-1.4,0.4-2c0.2-0.5,0.5-0.8,1-1c0.9-0.4,1.8-0.9,2.6-1.5c0.5-0.4,1-0.9,1.4-1.3
		c0.1-0.1,0.1-0.2,0.2,0c0.3,0.8,0.9,1.3,1.8,1.4c0.4,0.1,0.9-0.1,1.1-0.4c0.2-0.3,0.2-0.7-0.2-1.1c0,0-0.1-0.1-0.1-0.1
		c-0.2-0.2-0.2-0.4,0-0.7c0.2-0.3,0.5-0.4,0.9-0.4c1.7-0.3,3.1-1,4.4-2.3c0.8-0.8,1.4-1.8,2-2.8c1-1.8,1.6-3.7,2.1-5.7
		C85.5,6.3,85.7,5.3,85.6,4.2z M55.9,16.6c-0.1,0.1-0.2,0-0.3,0c-2.2-0.2-3.9-1.1-5.2-2.9c-1-1.4-1.6-3-2.2-4.6
		C48,8,47.7,6.7,47.5,5.5c-0.1-0.4-0.1-0.8,0-1.2c0-0.2,0.1-0.3,0.4-0.3c0.8,0,1.7,0,2.5,0c0.8,0,1.7,0,2.5,0c0.2,0,0.2,0.1,0.3,0.3
		c0.1,1.5,0.2,3,0.4,4.4c0.2,1.4,0.5,2.8,0.9,4.1c0.4,1.2,0.8,2.4,1.4,3.5C55.9,16.4,56,16.5,55.9,16.6z M68.9,15.3H62v-0.7
		c0-0.1,0-0.3,0.1-0.4c0.1-0.2,0.1-0.3,0.3-0.4l2.8-3c0.2-0.3,0.5-0.5,0.6-0.7c0.2-0.2,0.3-0.5,0.4-0.7c0.1-0.2,0.2-0.4,0.3-0.7
		c0.1-0.2,0.1-0.5,0.1-0.7c0-0.4-0.1-0.7-0.3-0.9c-0.2-0.2-0.5-0.3-0.9-0.3c-0.3,0-0.6,0.1-0.8,0.3c-0.2,0.2-0.4,0.4-0.4,0.6
		C64.1,7.8,64,8,63.9,8.1c-0.2,0.1-0.4,0.1-0.7,0.1L62.1,8c0.1-0.5,0.2-1,0.4-1.3c0.2-0.4,0.5-0.7,0.8-1s0.6-0.4,1-0.6
		c0.4-0.1,0.8-0.2,1.3-0.2c0.5,0,0.9,0.1,1.3,0.2c0.4,0.1,0.7,0.4,1,0.6c0.3,0.3,0.5,0.6,0.6,0.9c0.1,0.4,0.2,0.8,0.2,1.2
		c0,0.4,0,0.7-0.2,1c-0.1,0.3-0.2,0.6-0.4,0.9c-0.2,0.3-0.4,0.6-0.6,0.8c-0.2,0.3-0.5,0.5-0.7,0.8l-1.9,2.1c0.2-0.1,0.5-0.1,0.7-0.2
		c0.2,0,0.5-0.1,0.7-0.1h1.8c0.2,0,0.4,0.1,0.5,0.2c0.1,0.1,0.2,0.3,0.2,0.5V15.3z M83.9,5.6c-0.2,1.7-0.7,3.4-1.4,5
		c-0.5,1.3-1.1,2.5-2,3.6c-0.9,1.1-2.1,1.8-3.5,2.2c-0.4,0.1-0.9,0.1-1.3,0.2c-0.2,0-0.2,0-0.1-0.2c0.9-1.6,1.4-3.3,1.9-5.1
		c0.3-1.4,0.6-2.7,0.7-4.1c0.1-0.9,0.2-1.8,0.2-2.7c0-0.5,0-0.5,0.5-0.5c0.8,0,1.5,0,2.3,0c0.8,0,1.6,0,2.5,0c0.3,0,0.4,0.1,0.4,0.4
		C84,4.8,84,5.2,83.9,5.6z"/>
	<path class="st2" d="M133.1,4.2c-0.1-1.1-0.9-1.9-2-1.9c-1.7,0-3.3,0-5,0c-0.2,0-0.3,0-0.2-0.2c0-0.3,0-0.7,0-1
		c0-0.2-0.1-0.3-0.3-0.3c-8.2,0-16.4,0-24.7,0c-0.2,0-0.3,0.1-0.3,0.3c0,0.3,0,0.6,0,0.9c0,0.2-0.1,0.3-0.3,0.3c-1.7,0-3.4,0-5.1,0
		c-0.5,0-1,0.2-1.3,0.6c-0.4,0.4-0.5,0.9-0.6,1.5c0,1,0.1,1.9,0.3,2.9c0.5,2.3,1.3,4.5,2.4,6.5c0.6,1.1,1.4,2.1,2.4,2.9
		c1.1,0.8,2.3,1.4,3.7,1.6c0.3,0,0.5,0.2,0.7,0.3c0.3,0.3,0.3,0.5,0,0.9c-0.1,0.1-0.1,0.1-0.2,0.2c-0.2,0.2-0.3,0.5-0.2,0.8
		c0.1,0.3,0.3,0.6,0.7,0.6c0.9,0.2,1.9-0.4,2.2-1.3c0.1-0.3,0.1-0.3,0.3-0.1c1.2,1.2,2.5,2.2,4.1,2.9c0.3,0.1,0.4,0.3,0.6,0.5
		c0.2,0.3,0.3,0.6,0.4,0.9c0.2,0.9,0.3,1.7,0.3,2.6c0,1.6-0.1,1.6-0.2,3.2c-0.1,0.9-0.2,1.9-0.3,2.8c0,0.1,0,0.2-0.2,0.2
		c-0.2,0-0.5,0-0.7,0c-0.8,0-1.5,0.1-2.3,0.3c-1,0.3-1.4,0.5-1.5,1.8c0,0.1-0.1,0.2-0.2,0.2c-0.6,0.2-1.1,0.5-1.6,0.9
		c-0.3,0.3-0.6,0.6-0.5,1.1c0,0.2,0,0.5,0,0.7c0,0.3,0,0.3,0.3,0.3c3.2,0,6.3,0,9.5,0c3.1,0,6.3,0,9.4,0c0.1,0,0.1,0,0.2,0
		c0.1,0,0.2,0,0.2-0.2c0-0.3,0-0.6,0-0.9c0-0.4-0.2-0.7-0.5-0.9c-0.4-0.3-0.9-0.6-1.3-0.7c-0.4-0.1-0.6-0.3-0.6-0.8
		c0-0.5-0.3-1-0.8-1.2c-0.3-0.1-0.7-0.2-1-0.3c-0.8-0.2-1.7-0.2-2.6-0.3c-0.1,0-0.2,0-0.2-0.2c-0.2-1.4-0.3-2.9-0.4-4.3
		c-0.1-1.5-0.2-1.4-0.1-2.9c0.1-0.7,0.2-1.4,0.4-2c0.2-0.5,0.5-0.8,1-1c0.9-0.4,1.8-0.9,2.6-1.5c0.5-0.4,1-0.9,1.4-1.3
		c0.1-0.1,0.1-0.2,0.2,0c0.3,0.8,0.9,1.3,1.8,1.4c0.4,0.1,0.9-0.1,1.1-0.4c0.2-0.3,0.2-0.7-0.2-1.1c0,0-0.1-0.1-0.1-0.1
		c-0.2-0.2-0.2-0.4,0-0.7c0.2-0.3,0.5-0.4,0.9-0.4c1.7-0.3,3.1-1,4.4-2.3c0.8-0.8,1.4-1.8,2-2.8c1-1.8,1.6-3.7,2.1-5.7
		C133,6.3,133.2,5.3,133.1,4.2z M103.4,16.6c-0.1,0.1-0.2,0-0.3,0c-2.2-0.2-3.9-1.1-5.2-2.9c-1-1.4-1.6-3-2.2-4.6
		C95.5,8,95.2,6.7,95,5.5c-0.1-0.4-0.1-0.8,0-1.2C95,4.1,95.1,4,95.3,4c0.8,0,1.7,0,2.5,0c0.8,0,1.7,0,2.5,0c0.2,0,0.2,0.1,0.3,0.3
		c0.1,1.5,0.2,3,0.4,4.4c0.2,1.4,0.5,2.8,0.9,4.1c0.4,1.2,0.8,2.4,1.4,3.5C103.4,16.4,103.5,16.5,103.4,16.6z M116.1,13.6
		c-0.2,0.4-0.4,0.7-0.8,1c-0.3,0.3-0.7,0.5-1.1,0.6s-0.9,0.2-1.3,0.2c-0.5,0-0.9-0.1-1.2-0.2c-0.4-0.1-0.7-0.3-1-0.5
		c-0.3-0.2-0.5-0.5-0.7-0.9c-0.2-0.3-0.4-0.8-0.6-1.2l0.9-0.4c0.2-0.1,0.5-0.1,0.7-0.1c0.2,0,0.4,0.2,0.4,0.3
		c0.2,0.4,0.4,0.7,0.6,0.8c0.2,0.2,0.5,0.3,0.8,0.3c0.2,0,0.4,0,0.6-0.1c0.2-0.1,0.3-0.2,0.4-0.3c0.1-0.1,0.2-0.3,0.3-0.4
		c0.1-0.2,0.1-0.3,0.1-0.5c0-0.2,0-0.4,0-0.6c0-0.2-0.1-0.3-0.2-0.5c-0.1-0.1-0.3-0.2-0.6-0.3c-0.3-0.1-0.6-0.1-1.1-0.1V9.3
		c0.4,0,0.7,0,1-0.1c0.3-0.1,0.4-0.2,0.6-0.3c0.1-0.1,0.2-0.3,0.3-0.4c0-0.2,0.1-0.3,0.1-0.5c0-0.4-0.1-0.7-0.3-0.9
		c-0.2-0.2-0.5-0.3-0.9-0.3c-0.3,0-0.6,0.1-0.8,0.3s-0.4,0.4-0.4,0.6c-0.1,0.3-0.2,0.4-0.4,0.5c-0.2,0.1-0.4,0.1-0.7,0.1L109.7,8
		c0.1-0.5,0.2-1,0.4-1.3c0.2-0.4,0.5-0.7,0.8-1c0.3-0.3,0.6-0.4,1-0.6c0.4-0.1,0.8-0.2,1.3-0.2c0.5,0,0.9,0.1,1.3,0.2
		c0.4,0.1,0.7,0.3,1,0.6c0.3,0.2,0.5,0.5,0.6,0.8c0.1,0.3,0.2,0.7,0.2,1c0,0.3,0,0.6-0.1,0.9s-0.2,0.5-0.3,0.6
		c-0.1,0.2-0.3,0.3-0.5,0.5c-0.2,0.1-0.4,0.2-0.6,0.3c1.1,0.4,1.6,1.2,1.6,2.3C116.3,12.7,116.3,13.2,116.1,13.6z M131.4,5.6
		c-0.2,1.7-0.7,3.4-1.4,5c-0.5,1.3-1.1,2.5-2,3.6c-0.9,1.1-2.1,1.8-3.5,2.2c-0.4,0.1-0.9,0.1-1.3,0.2c-0.2,0-0.2,0-0.1-0.2
		c0.9-1.6,1.4-3.3,1.9-5.1c0.3-1.4,0.6-2.7,0.7-4.1c0.1-0.9,0.2-1.8,0.2-2.7c0-0.5,0-0.5,0.5-0.5c0.8,0,1.5,0,2.3,0
		c0.8,0,1.6,0,2.5,0c0.3,0,0.4,0.1,0.4,0.4C131.5,4.8,131.5,5.2,131.4,5.6z"/>
	<g class="st3">
		<path class="st0" d="M179.4,4.2c-0.1-1.1-0.9-1.9-2-1.9c-1.7,0-3.3,0-5,0c-0.2,0-0.3,0-0.2-0.2c0-0.3,0-0.7,0-1
			c0-0.2-0.1-0.3-0.3-0.3c-8.2,0-16.4,0-24.7,0c-0.2,0-0.3,0.1-0.3,0.3c0,0.3,0,0.6,0,0.9c0,0.2-0.1,0.3-0.3,0.3c-1.7,0-3.4,0-5.1,0
			c-0.5,0-1,0.2-1.3,0.6c-0.4,0.4-0.5,0.9-0.6,1.5c0,1,0.1,1.9,0.3,2.9c0.5,2.3,1.3,4.5,2.4,6.5c0.6,1.1,1.4,2.1,2.4,2.9
			c1.1,0.8,2.3,1.4,3.7,1.6c0.3,0,0.5,0.2,0.7,0.3c0.3,0.3,0.3,0.5,0,0.9c-0.1,0.1-0.1,0.1-0.2,0.2c-0.2,0.2-0.3,0.5-0.2,0.8
			c0.1,0.3,0.3,0.6,0.7,0.6c0.9,0.2,1.9-0.4,2.2-1.3c0.1-0.3,0.1-0.3,0.3-0.1c1.2,1.2,2.5,2.2,4.1,2.9c0.3,0.1,0.4,0.3,0.6,0.5
			c0.2,0.3,0.3,0.6,0.4,0.9c0.2,0.9,0.3,1.7,0.3,2.6c0,1.6-0.1,1.6-0.2,3.2c-0.1,0.9-0.2,1.9-0.3,2.8c0,0.1,0,0.2-0.2,0.2
			c-0.2,0-0.5,0-0.7,0c-0.8,0-1.5,0.1-2.3,0.3c-1,0.3-1.4,0.5-1.5,1.8c0,0.1-0.1,0.2-0.2,0.2c-0.6,0.2-1.1,0.5-1.6,0.9
			c-0.3,0.3-0.6,0.6-0.5,1.1c0,0.2,0,0.5,0,0.7c0,0.3,0,0.3,0.3,0.3c3.2,0,6.3,0,9.5,0c3.1,0,6.3,0,9.4,0c0.1,0,0.1,0,0.2,0
			c0.1,0,0.2,0,0.2-0.2c0-0.3,0-0.6,0-0.9c0-0.4-0.2-0.7-0.5-0.9c-0.4-0.3-0.9-0.6-1.3-0.7c-0.4-0.1-0.6-0.3-0.6-0.8
			c0-0.5-0.3-1-0.8-1.2c-0.3-0.1-0.7-0.2-1-0.3c-0.8-0.2-1.7-0.2-2.6-0.3c-0.1,0-0.2,0-0.2-0.2c-0.2-1.4-0.3-2.9-0.4-4.3
			c-0.1-1.5-0.2-1.4-0.1-2.9c0.1-0.7,0.2-1.4,0.4-2c0.2-0.5,0.5-0.8,1-1c0.9-0.4,1.8-0.9,2.6-1.5c0.5-0.4,1-0.9,1.4-1.3
			c0.1-0.1,0.1-0.2,0.2,0c0.3,0.8,0.9,1.3,1.8,1.4c0.4,0.1,0.9-0.1,1.1-0.4c0.2-0.3,0.2-0.7-0.2-1.1c0,0-0.1-0.1-0.1-0.1
			c-0.2-0.2-0.2-0.4,0-0.7c0.2-0.3,0.5-0.4,0.9-0.4c1.7-0.3,3.1-1,4.4-2.3c0.8-0.8,1.4-1.8,2-2.8c1-1.8,1.6-3.7,2.1-5.7
			C179.3,6.3,179.5,5.3,179.4,4.2z M149.7,16.6c-0.1,0.1-0.2,0-0.3,0c-2.2-0.2-3.9-1.1-5.2-2.9c-1-1.4-1.6-3-2.2-4.6
			c-0.4-1.2-0.7-2.4-0.8-3.6c-0.1-0.4-0.1-0.8,0-1.2c0-0.2,0.1-0.3,0.4-0.3c0.8,0,1.7,0,2.5,0c0.8,0,1.7,0,2.5,0
			c0.2,0,0.2,0.1,0.3,0.3c0.1,1.5,0.2,3,0.4,4.4c0.2,1.4,0.5,2.8,0.9,4.1c0.4,1.2,0.8,2.4,1.4,3.5C149.7,16.4,149.8,16.5,149.7,16.6
			z M162.8,12.5c0,0.1,0,0.2-0.1,0.3c-0.1,0.1-0.2,0.1-0.3,0.1h-0.6v2.4H160v-2.4h-3.9c-0.1,0-0.2,0-0.4-0.1
			c-0.1-0.1-0.2-0.2-0.2-0.3l-0.2-1.1l4.5-6.4h2v6.3h1V12.5z M177.7,5.6c-0.2,1.7-0.7,3.4-1.4,5c-0.5,1.3-1.1,2.5-2,3.6
			c-0.9,1.1-2.1,1.8-3.5,2.2c-0.4,0.1-0.9,0.1-1.3,0.2c-0.2,0-0.2,0-0.1-0.2c0.9-1.6,1.4-3.3,1.9-5.1c0.3-1.4,0.6-2.7,0.7-4.1
			c0.1-0.9,0.2-1.8,0.2-2.7c0-0.5,0-0.5,0.5-0.5c0.8,0,1.5,0,2.3,0c0.8,0,1.6,0,2.5,0c0.3,0,0.4,0.1,0.4,0.4
			C177.7,4.8,177.7,5.2,177.7,5.6z"/>
		<path class="st0" d="M160,11.3V8.6c0-0.2,0-0.3,0-0.5c0-0.2,0-0.4,0-0.6l-2.6,3.8H160z"/>
	</g>
	<path class="st2" d="M227.8,4.2c-0.1-1.1-0.9-1.9-2-1.9c-1.7,0-3.3,0-5,0c-0.2,0-0.3,0-0.2-0.2c0-0.3,0-0.7,0-1
		c0-0.2-0.1-0.3-0.3-0.3c-8.2,0-16.4,0-24.7,0c-0.2,0-0.3,0.1-0.3,0.3c0,0.3,0,0.6,0,0.9c0,0.2-0.1,0.3-0.3,0.3c-1.7,0-3.4,0-5.1,0
		c-0.5,0-1,0.2-1.3,0.6c-0.4,0.4-0.5,0.9-0.6,1.5c0,1,0.1,1.9,0.3,2.9c0.5,2.3,1.3,4.5,2.4,6.5c0.6,1.1,1.4,2.1,2.4,2.9
		c1.1,0.8,2.3,1.4,3.7,1.6c0.3,0,0.5,0.2,0.7,0.3c0.3,0.3,0.3,0.5,0,0.9c-0.1,0.1-0.1,0.1-0.2,0.2c-0.2,0.2-0.3,0.5-0.2,0.8
		c0.1,0.3,0.3,0.6,0.7,0.6c0.9,0.2,1.9-0.4,2.2-1.3c0.1-0.3,0.1-0.3,0.3-0.1c1.2,1.2,2.5,2.2,4.1,2.9c0.3,0.1,0.4,0.3,0.6,0.5
		c0.2,0.3,0.3,0.6,0.4,0.9c0.2,0.9,0.3,1.7,0.3,2.6c0,1.6-0.1,1.6-0.2,3.2c-0.1,0.9-0.2,1.9-0.3,2.8c0,0.1,0,0.2-0.2,0.2
		c-0.2,0-0.5,0-0.7,0c-0.8,0-1.5,0.1-2.3,0.3c-1,0.3-1.4,0.5-1.5,1.8c0,0.1-0.1,0.2-0.2,0.2c-0.6,0.2-1.1,0.5-1.6,0.9
		c-0.3,0.3-0.6,0.6-0.5,1.1c0,0.2,0,0.5,0,0.7c0,0.3,0,0.3,0.3,0.3c3.2,0,6.3,0,9.5,0c3.1,0,6.3,0,9.4,0c0.1,0,0.1,0,0.2,0
		c0.1,0,0.2,0,0.2-0.2c0-0.3,0-0.6,0-0.9c0-0.4-0.2-0.7-0.5-0.9c-0.4-0.3-0.9-0.6-1.3-0.7c-0.4-0.1-0.6-0.3-0.6-0.8
		c0-0.5-0.3-1-0.8-1.2c-0.3-0.1-0.7-0.2-1-0.3c-0.8-0.2-1.7-0.2-2.6-0.3c-0.1,0-0.2,0-0.2-0.2c-0.2-1.4-0.3-1.2-0.4-2.7
		c-0.1-1.5-0.2-3-0.1-4.5c0.1-0.7,0.2-1.4,0.4-2c0.2-0.5,0.5-0.8,1-1c0.9-0.4,1.8-0.9,2.6-1.5c0.5-0.4,1-0.9,1.4-1.3
		c0.1-0.1,0.1-0.2,0.2,0c0.3,0.8,0.9,1.3,1.8,1.4c0.4,0.1,0.9-0.1,1.1-0.4c0.2-0.3,0.2-0.7-0.2-1.1c0,0-0.1-0.1-0.1-0.1
		c-0.2-0.2-0.2-0.4,0-0.7c0.2-0.3,0.5-0.4,0.9-0.4c1.7-0.3,3.1-1,4.4-2.3c0.8-0.8,1.4-1.8,2-2.8c1-1.8,1.6-3.7,2.1-5.7
		C227.7,6.3,227.8,5.3,227.8,4.2z M198.1,16.6c-0.1,0.1-0.2,0-0.3,0c-2.2-0.2-3.9-1.1-5.2-2.9c-1-1.4-1.6-3-2.2-4.6
		c-0.4-1.2-0.7-2.4-0.8-3.6c-0.1-0.4-0.1-0.8,0-1.2c0-0.2,0.1-0.3,0.4-0.3c0.8,0,1.7,0,2.5,0c0.8,0,1.7,0,2.5,0
		c0.2,0,0.2,0.1,0.3,0.3c0.1,1.5,0.2,3,0.4,4.4c0.2,1.4,0.5,2.8,0.9,4.1c0.4,1.2,0.8,2.4,1.4,3.5C198,16.4,198.1,16.5,198.1,16.6z
		 M211,13.6c-0.2,0.5-0.4,0.8-0.8,1.2c-0.3,0.3-0.7,0.6-1.2,0.8c-0.5,0.2-1,0.3-1.5,0.3c-0.3,0-0.6,0-0.9-0.1
		c-0.3-0.1-0.6-0.2-0.8-0.3s-0.5-0.3-0.7-0.4s-0.4-0.3-0.6-0.5l0.6-0.9c0.1-0.1,0.1-0.2,0.2-0.2s0.2-0.1,0.3-0.1
		c0.1,0,0.3,0,0.4,0.1c0.1,0.1,0.2,0.2,0.4,0.3c0.1,0.1,0.3,0.2,0.5,0.2c0.2,0.1,0.4,0.1,0.7,0.1s0.5,0,0.7-0.1
		c0.2-0.1,0.4-0.2,0.5-0.4c0.1-0.2,0.2-0.4,0.3-0.6c0.1-0.2,0.1-0.5,0.1-0.7c0-0.5-0.1-0.9-0.4-1.1c-0.3-0.3-0.6-0.4-1.1-0.4
		c-0.4,0-0.9,0.1-1.3,0.3l-1.3-0.4l0.8-5.1h5v0.9c0,0.2,0,0.3-0.1,0.4c0,0.1-0.1,0.2-0.2,0.3c-0.1,0.1-0.2,0.2-0.4,0.2
		c-0.2,0-0.3,0.1-0.6,0.1h-2.3l-0.3,1.7c0.2,0,0.4-0.1,0.5-0.1c0.2,0,0.3,0,0.5,0c0.5,0,1,0.1,1.4,0.2c0.4,0.2,0.7,0.4,1,0.7
		c0.3,0.3,0.5,0.6,0.6,1s0.2,0.8,0.2,1.2C211.3,12.7,211.2,13.2,211,13.6z M226,5.6c-0.2,1.7-0.7,3.4-1.4,5c-0.5,1.3-1.1,2.5-2,3.6
		c-0.9,1.1-2.1,1.8-3.5,2.2c-0.4,0.1-0.9,0.1-1.3,0.2c-0.2,0-0.2,0-0.1-0.2c0.9-1.6,1.4-3.3,1.9-5.1c0.3-1.4,0.6-2.7,0.7-4.1
		c0.1-0.9,0.2-1.8,0.2-2.7c0-0.5,0-0.5,0.5-0.5c0.8,0,1.5,0,2.3,0c0.8,0,1.6,0,2.5,0c0.3,0,0.4,0.1,0.4,0.4
		C226.1,4.8,226.1,5.2,226,5.6z"/>
	<g class="st3">
		<path class="st0" d="M273.3,4.2c-0.1-1.1-0.9-1.9-2-1.9c-1.7,0-3.3,0-5,0c-0.2,0-0.3,0-0.2-0.2c0-0.3,0-0.7,0-1
			c0-0.2-0.1-0.3-0.3-0.3c-8.2,0-16.4,0-24.7,0c-0.2,0-0.3,0.1-0.3,0.3c0,0.3,0,0.6,0,0.9c0,0.2-0.1,0.3-0.3,0.3c-1.7,0-3.4,0-5.1,0
			c-0.5,0-1,0.2-1.3,0.6c-0.4,0.4-0.5,0.9-0.6,1.5c0,1,0.1,1.9,0.3,2.9c0.5,2.3,1.3,4.5,2.4,6.5c0.6,1.1,1.4,2.1,2.4,2.9
			c1.1,0.8,2.3,1.4,3.7,1.6c0.3,0,0.5,0.2,0.7,0.3c0.3,0.3,0.3,0.5,0,0.9c-0.1,0.1-0.1,0.1-0.2,0.2c-0.2,0.2-0.3,0.5-0.2,0.8
			c0.1,0.3,0.3,0.6,0.7,0.6c0.9,0.2,1.9-0.4,2.2-1.3c0.1-0.3,0.1-0.3,0.3-0.1c1.2,1.2,2.5,2.2,4.1,2.9c0.3,0.1,0.4,0.3,0.6,0.5
			c0.2,0.3,0.3,0.6,0.4,0.9c0.2,0.9,0.3,1.7,0.3,2.6c0,1.6-0.1,1.6-0.2,3.2c-0.1,0.9-0.2,1.9-0.3,2.8c0,0.1,0,0.2-0.2,0.2
			c-0.2,0-0.5,0-0.7,0c-0.8,0-1.5,0.1-2.3,0.3c-1,0.3-1.4,0.5-1.5,1.8c0,0.1-0.1,0.2-0.2,0.2c-0.6,0.2-1.1,0.5-1.6,0.9
			c-0.3,0.3-0.6,0.6-0.5,1.1c0,0.2,0,0.5,0,0.7c0,0.3,0,0.3,0.3,0.3c3.2,0,6.3,0,9.5,0c3.1,0,6.3,0,9.4,0c0.1,0,0.1,0,0.2,0
			c0.1,0,0.2,0,0.2-0.2c0-0.3,0-0.6,0-0.9c0-0.4-0.2-0.7-0.5-0.9c-0.4-0.3-0.9-0.6-1.3-0.7c-0.4-0.1-0.6-0.3-0.6-0.8
			c0-0.5-0.3-1-0.8-1.2c-0.3-0.1-0.7-0.2-1-0.3c-0.8-0.2-1.7-0.2-2.6-0.3c-0.1,0-0.2,0-0.2-0.2c-0.2-1.4-0.3-1.2-0.4-2.7
			c-0.1-1.5-0.2-3-0.1-4.5c0.1-0.7,0.2-1.4,0.4-2c0.2-0.5,0.5-0.8,1-1c0.9-0.4,1.8-0.9,2.6-1.5c0.5-0.4,1-0.9,1.4-1.3
			c0.1-0.1,0.1-0.2,0.2,0c0.3,0.8,0.9,1.3,1.8,1.4c0.4,0.1,0.9-0.1,1.1-0.4c0.2-0.3,0.2-0.7-0.2-1.1c0,0-0.1-0.1-0.1-0.1
			c-0.2-0.2-0.2-0.4,0-0.7c0.2-0.3,0.5-0.4,0.9-0.4c1.7-0.3,3.1-1,4.4-2.3c0.8-0.8,1.4-1.8,2-2.8c1-1.8,1.6-3.7,2.1-5.7
			C273.2,6.3,273.3,5.3,273.3,4.2z M243.6,16.6c-0.1,0.1-0.2,0-0.3,0c-2.2-0.2-3.9-1.1-5.2-2.9c-1-1.4-1.6-3-2.2-4.6
			c-0.4-1.2-0.7-2.4-0.8-3.6c-0.1-0.4-0.1-0.8,0-1.2c0-0.2,0.1-0.3,0.4-0.3c0.8,0,1.7,0,2.5,0c0.8,0,1.7,0,2.5,0
			c0.2,0,0.2,0.1,0.3,0.3c0.1,1.5,0.2,3,0.4,4.4c0.2,1.4,0.5,2.8,0.9,4.1c0.4,1.2,0.8,2.4,1.4,3.5C243.5,16.4,243.6,16.5,243.6,16.6
			z M256.9,13.6c-0.2,0.4-0.4,0.8-0.7,1.1c-0.3,0.3-0.7,0.6-1.1,0.8c-0.4,0.2-0.9,0.3-1.5,0.3c-0.5,0-1-0.1-1.5-0.3
			c-0.4-0.2-0.8-0.4-1.1-0.8c-0.3-0.3-0.5-0.7-0.7-1.2c-0.2-0.5-0.2-0.9-0.2-1.5c0-1,0.4-2,1.1-3.1l2.2-3.1c0.1-0.1,0.3-0.3,0.4-0.4
			c0.2-0.1,0.4-0.1,0.7-0.1h1.9l-2.9,3.6l-0.3,0.3c0.3-0.1,0.7-0.2,1-0.2c0.4,0,0.7,0.1,1,0.2c0.3,0.1,0.7,0.3,0.9,0.6
			c0.3,0.3,0.5,0.6,0.7,1c0.2,0.4,0.3,0.8,0.3,1.4C257.1,12.8,257,13.2,256.9,13.6z M271.5,5.6c-0.2,1.7-0.7,3.4-1.4,5
			c-0.5,1.3-1.1,2.5-2,3.6c-0.9,1.1-2.1,1.8-3.5,2.2c-0.4,0.1-0.9,0.1-1.3,0.2c-0.2,0-0.2,0-0.1-0.2c0.9-1.6,1.4-3.3,1.9-5.1
			c0.3-1.4,0.6-2.7,0.7-4.1c0.1-0.9,0.2-1.8,0.2-2.7c0-0.5,0-0.5,0.5-0.5c0.8,0,1.5,0,2.3,0c0.8,0,1.6,0,2.5,0
			c0.3,0,0.4,0.1,0.4,0.4C271.6,4.8,271.6,5.2,271.5,5.6z"/>
		<path class="st0" d="M254.6,11.2c-0.1-0.1-0.3-0.2-0.5-0.3c-0.2-0.1-0.4-0.1-0.6-0.1c-0.2,0-0.4,0-0.6,0.1s-0.3,0.2-0.5,0.3
			s-0.2,0.3-0.3,0.5c-0.1,0.2-0.1,0.4-0.1,0.7s0,0.5,0.1,0.7c0.1,0.2,0.1,0.4,0.3,0.5c0.1,0.1,0.3,0.3,0.5,0.3
			c0.2,0.1,0.4,0.1,0.7,0.1c0.2,0,0.4,0,0.6-0.1c0.2-0.1,0.3-0.2,0.5-0.3c0.1-0.1,0.2-0.3,0.3-0.5c0.1-0.2,0.1-0.4,0.1-0.7
			c0-0.3,0-0.5-0.1-0.7S254.7,11.4,254.6,11.2z"/>
	</g>
	<path class="st2" d="M321,4.2c-0.1-1.1-0.9-1.9-2-1.9c-1.7,0-3.3,0-5,0c-0.2,0-0.3,0-0.2-0.2c0-0.3,0-0.7,0-1
		c0-0.2-0.1-0.3-0.3-0.3c-8.2,0-16.4,0-24.7,0c-0.2,0-0.3,0.1-0.3,0.3c0,0.3,0,0.6,0,0.9c0,0.2-0.1,0.3-0.3,0.3c-1.7,0-3.4,0-5.1,0
		c-0.5,0-1,0.2-1.3,0.6c-0.4,0.4-0.5,0.9-0.6,1.5c0,1,0.1,1.9,0.3,2.9c0.5,2.3,1.3,4.5,2.4,6.5c0.6,1.1,1.4,2.1,2.4,2.9
		c1.1,0.8,2.3,1.4,3.7,1.6c0.3,0,0.5,0.2,0.7,0.3c0.3,0.3,0.3,0.5,0,0.9c-0.1,0.1-0.1,0.1-0.2,0.2c-0.2,0.2-0.3,0.5-0.2,0.8
		c0.1,0.3,0.3,0.6,0.7,0.6c0.9,0.2,1.9-0.4,2.2-1.3c0.1-0.3,0.1-0.3,0.3-0.1c1.2,1.2,2.5,2.2,4.1,2.9c0.3,0.1,0.4,0.3,0.6,0.5
		c0.2,0.3,0.3,0.6,0.4,0.9c0.2,0.9,0.3,1.7,0.3,2.6c0,1.6-0.1,1.6-0.2,3.2c-0.1,0.9-0.2,1.9-0.3,2.8c0,0.1,0,0.2-0.2,0.2
		c-0.2,0-0.5,0-0.7,0c-0.8,0-1.5,0.1-2.3,0.3c-1,0.3-1.4,0.5-1.5,1.8c0,0.1-0.1,0.2-0.2,0.2c-0.6,0.2-1.1,0.5-1.6,0.9
		c-0.3,0.3-0.6,0.6-0.5,1.1c0,0.2,0,0.5,0,0.7c0,0.3,0,0.3,0.3,0.3c3.2,0,6.3,0,9.5,0c3.1,0,6.3,0,9.4,0c0.1,0,0.1,0,0.2,0
		c0.1,0,0.2,0,0.2-0.2c0-0.3,0-0.6,0-0.9c0-0.4-0.2-0.7-0.5-0.9c-0.4-0.3-0.9-0.6-1.3-0.7c-0.4-0.1-0.6-0.3-0.6-0.8
		c0-0.5-0.3-1-0.8-1.2c-0.3-0.1-0.7-0.2-1-0.3c-0.8-0.2-1.7-0.2-2.6-0.3c-0.1,0-0.2,0-0.2-0.2c-0.2-1.4-0.3-1.2-0.4-2.7
		c-0.1-1.5-0.2-3-0.1-4.5c0.1-0.7,0.2-1.4,0.4-2c0.2-0.5,0.5-0.8,1-1c0.9-0.4,1.8-0.9,2.6-1.5c0.5-0.4,1-0.9,1.4-1.3
		c0.1-0.1,0.1-0.2,0.2,0c0.3,0.8,0.9,1.3,1.8,1.4c0.4,0.1,0.9-0.1,1.1-0.4c0.2-0.3,0.2-0.7-0.2-1.1c0,0-0.1-0.1-0.1-0.1
		c-0.2-0.2-0.2-0.4,0-0.7c0.2-0.3,0.5-0.4,0.9-0.4c1.7-0.3,3.1-1,4.4-2.3c0.8-0.8,1.4-1.8,2-2.8c1-1.8,1.6-3.7,2.1-5.7
		C321,6.3,321.1,5.3,321,4.2z M291.4,16.6c-0.1,0.1-0.2,0-0.3,0c-2.2-0.2-3.9-1.1-5.2-2.9c-1-1.4-1.6-3-2.2-4.6
		c-0.4-1.2-0.7-2.4-0.8-3.6c-0.1-0.4-0.1-0.8,0-1.2c0-0.2,0.1-0.3,0.4-0.3c0.8,0,1.7,0,2.5,0c0.8,0,1.7,0,2.5,0
		c0.2,0,0.2,0.1,0.3,0.3c0.1,1.5,0.2,3,0.4,4.4c0.2,1.4,0.5,2.8,0.9,4.1c0.4,1.2,0.8,2.4,1.4,3.5C291.3,16.4,291.4,16.5,291.4,16.6z
		 M304.8,6.4c0,0.3,0,0.5-0.1,0.7c-0.1,0.2-0.1,0.3-0.2,0.4l-3.4,7.5c-0.1,0.2-0.2,0.4-0.4,0.5c-0.2,0.1-0.4,0.2-0.7,0.2h-1.5
		l3.5-7.3c0.1-0.2,0.2-0.4,0.3-0.5c0.1-0.2,0.2-0.3,0.4-0.5h-4.3c-0.1,0-0.1,0-0.2,0c-0.1,0-0.1-0.1-0.1-0.1c0,0-0.1-0.1-0.1-0.2
		s0-0.1,0-0.2V5.5h6.9V6.4z M319.3,5.6c-0.2,1.7-0.7,3.4-1.4,5c-0.5,1.3-1.1,2.5-2,3.6c-0.9,1.1-2.1,1.8-3.5,2.2
		c-0.4,0.1-0.9,0.1-1.3,0.2c-0.2,0-0.2,0-0.1-0.2c0.9-1.6,1.4-3.3,1.9-5.1c0.3-1.4,0.6-2.7,0.7-4.1c0.1-0.9,0.2-1.8,0.2-2.7
		c0-0.5,0-0.5,0.5-0.5c0.8,0,1.5,0,2.3,0c0.8,0,1.6,0,2.5,0c0.3,0,0.4,0.1,0.4,0.4C319.4,4.8,319.4,5.2,319.3,5.6z"/>
	<g class="st3">
		<path class="st0" d="M352.6,8.2c-0.1-0.2-0.3-0.4-0.4-0.5c-0.2-0.1-0.3-0.1-0.5-0.1s-0.3,0-0.5,0.1c-0.2,0.1-0.3,0.2-0.4,0.5
			c-0.1,0.2-0.2,0.6-0.3,1c-0.1,0.4-0.1,0.9-0.1,1.6c0,0.6,0,1.2,0.1,1.6c0.1,0.4,0.2,0.7,0.3,1c0.1,0.2,0.3,0.4,0.4,0.5
			c0.2,0.1,0.3,0.1,0.5,0.1s0.3,0,0.5-0.1c0.2-0.1,0.3-0.2,0.4-0.5c0.1-0.2,0.2-0.6,0.3-1c0.1-0.4,0.1-0.9,0.1-1.6
			c0-0.6,0-1.2-0.1-1.6C352.8,8.7,352.7,8.4,352.6,8.2z"/>
		<path class="st0" d="M368,4.2c-0.1-1.1-0.9-1.9-2-1.9c-1.7,0-3.3,0-5,0c-0.2,0-0.3,0-0.2-0.2c0-0.3,0-0.7,0-1
			c0-0.2-0.1-0.3-0.3-0.3c-8.2,0-16.4,0-24.7,0c-0.2,0-0.3,0.1-0.3,0.3c0,0.3,0,0.6,0,0.9c0,0.2-0.1,0.3-0.3,0.3c-1.7,0-3.4,0-5.1,0
			c-0.5,0-1,0.2-1.3,0.6c-0.4,0.4-0.5,0.9-0.6,1.5c0,1,0.1,1.9,0.3,2.9c0.5,2.3,1.3,4.5,2.4,6.5c0.6,1.1,1.4,2.1,2.4,2.9
			c1.1,0.8,2.3,1.4,3.7,1.6c0.3,0,0.5,0.2,0.7,0.3c0.3,0.3,0.3,0.5,0,0.9c-0.1,0.1-0.1,0.1-0.2,0.2c-0.2,0.2-0.3,0.5-0.2,0.8
			c0.1,0.3,0.3,0.6,0.7,0.6c0.9,0.2,1.9-0.4,2.2-1.3c0.1-0.3,0.1-0.3,0.3-0.1c1.2,1.2,2.5,2.2,4.1,2.9c0.3,0.1,0.4,0.3,0.6,0.5
			c0.2,0.3,0.3,0.6,0.4,0.9c0.2,0.9,0.3,1.7,0.3,2.6c0,1.6-0.1,1.6-0.2,3.2c-0.1,0.9-0.2,1.9-0.3,2.8c0,0.1,0,0.2-0.2,0.2
			c-0.2,0-0.5,0-0.7,0c-0.8,0-1.5,0.1-2.3,0.3c-1,0.3-1.4,0.5-1.5,1.8c0,0.1-0.1,0.2-0.2,0.2c-0.6,0.2-1.1,0.5-1.6,0.9
			c-0.3,0.3-0.6,0.6-0.5,1.1c0,0.2,0,0.5,0,0.7c0,0.3,0,0.3,0.3,0.3c3.2,0,6.3,0,9.5,0c3.1,0,6.3,0,9.4,0c0.1,0,0.1,0,0.2,0
			c0.1,0,0.2,0,0.2-0.2c0-0.3,0-0.6,0-0.9c0-0.4-0.2-0.7-0.5-0.9c-0.4-0.3-0.9-0.6-1.3-0.7c-0.4-0.1-0.6-0.3-0.6-0.8
			c0-0.5-0.3-1-0.8-1.2c-0.3-0.1-0.7-0.2-1-0.3c-0.8-0.2-1.7-0.2-2.6-0.3c-0.1,0-0.2,0-0.2-0.2c-0.2-1.4-0.3-2.9-0.4-4.3
			c-0.1-1.5-0.2-1.4-0.1-2.9c0.1-0.7,0.2-1.4,0.4-2c0.2-0.5,0.5-0.8,1-1c0.9-0.4,1.8-0.9,2.6-1.5c0.5-0.4,1-0.9,1.4-1.3
			c0.1-0.1,0.1-0.2,0.2,0c0.3,0.8,0.9,1.3,1.8,1.4c0.4,0.1,0.9-0.1,1.1-0.4c0.2-0.3,0.2-0.7-0.2-1.1c0,0-0.1-0.1-0.1-0.1
			c-0.2-0.2-0.2-0.4,0-0.7c0.2-0.3,0.5-0.4,0.9-0.4c1.7-0.3,3.1-1,4.4-2.3c0.8-0.8,1.4-1.8,2-2.8c1-1.8,1.6-3.7,2.1-5.7
			C367.9,6.3,368.1,5.3,368,4.2z M338.3,16.6c-0.1,0.1-0.2,0-0.3,0c-2.2-0.2-3.9-1.1-5.2-2.9c-1-1.4-1.6-3-2.2-4.6
			c-0.4-1.2-0.7-2.4-0.8-3.6c-0.1-0.4-0.1-0.8,0-1.2c0-0.2,0.1-0.3,0.4-0.3c0.8,0,1.7,0,2.5,0c0.8,0,1.7,0,2.5,0
			c0.2,0,0.2,0.1,0.3,0.3c0.1,1.5,0.2,3,0.4,4.4c0.2,1.4,0.5,2.8,0.9,4.1c0.4,1.2,0.8,2.4,1.4,3.5C338.3,16.4,338.4,16.5,338.3,16.6
			z M347.5,15.3h-5v-1.4h1.7V9.2c0-0.1,0-0.2,0-0.4s0-0.2,0-0.4l-1,0.9c-0.1,0.1-0.2,0.1-0.3,0.1c-0.1,0-0.2,0-0.2,0
			c-0.1,0-0.1,0-0.2-0.1c-0.1,0-0.1-0.1-0.1-0.1l-0.6-0.8l2.8-2.4h1.6v7.8h1.5V15.3z M354.7,12.8c-0.2,0.6-0.4,1.1-0.7,1.5
			c-0.3,0.4-0.6,0.7-1,0.9c-0.4,0.2-0.8,0.3-1.3,0.3c-0.5,0-0.9-0.1-1.3-0.3c-0.4-0.2-0.7-0.5-1-0.9c-0.3-0.4-0.5-0.9-0.7-1.5
			c-0.2-0.6-0.2-1.3-0.2-2.1c0-0.8,0.1-1.5,0.2-2.1c0.2-0.6,0.4-1.1,0.7-1.5c0.3-0.4,0.6-0.7,1-0.9c0.4-0.2,0.8-0.3,1.3-0.3
			c0.5,0,0.9,0.1,1.3,0.3c0.4,0.2,0.7,0.5,1,0.9c0.3,0.4,0.5,0.9,0.7,1.5c0.2,0.6,0.2,1.3,0.2,2.1C354.9,11.5,354.8,12.2,354.7,12.8
			z M366.3,5.6c-0.2,1.7-0.7,3.4-1.4,5c-0.5,1.3-1.1,2.5-2,3.6c-0.9,1.1-2.1,1.8-3.5,2.2c-0.4,0.1-0.9,0.1-1.3,0.2
			c-0.2,0-0.2,0-0.1-0.2c0.9-1.6,1.4-3.3,1.9-5.1c0.3-1.4,0.6-2.7,0.7-4.1c0.1-0.9,0.2-1.8,0.2-2.7c0-0.5,0-0.5,0.5-0.5
			c0.8,0,1.5,0,2.3,0c0.8,0,1.6,0,2.5,0c0.3,0,0.4,0.1,0.4,0.4C366.4,4.8,366.4,5.2,366.3,5.6z"/>
	</g>
</g>
</svg>
