<?xml version="1.0" encoding="utf-8"?>
<!-- Generator: Adobe Illustrator 22.0.0, SVG Export Plug-In . SVG Version: 6.00 Build 0)  -->
<svg version="1.1" xmlns="http://www.w3.org/2000/svg" xmlns:xlink="http://www.w3.org/1999/xlink" x="0px" y="0px"
	 viewBox="0 0 40 38" style="enable-background:new 0 0 40 38;" xml:space="preserve">
<style type="text/css">
	.st0{fill:#8697CD;}
	.st1{display:none;}
	.st2{display:inline;fill:#8697CD;}
	.st3{display:inline;}
</style>
<g id="Layer_1">
	<g>
		<path class="st0" d="M19.8,12V9.4c0-0.2,0-0.3,0-0.5c0-0.2,0-0.4,0.1-0.6L17.2,12H19.8z"/>
		<path class="st0" d="M39.8,4.2c-0.1-1.1-0.9-1.9-2-1.9c-1.7,0-3.3,0-5,0c-0.2,0-0.3,0-0.2-0.2c0-0.3,0-0.7,0-1
			c0-0.2-0.1-0.3-0.3-0.3c-8.2,0-16.4,0-24.7,0c-0.2,0-0.3,0.1-0.3,0.3c0,0.3,0,0.6,0,0.9c0,0.2-0.1,0.3-0.3,0.3c-1.7,0-3.4,0-5.1,0
			c-0.5,0-1,0.2-1.3,0.6C0.2,3.3,0,3.8,0,4.4c0,1,0.1,1.9,0.3,2.9c0.5,2.3,1.3,4.5,2.4,6.5c0.6,1.1,1.4,2.1,2.4,2.9
			c1.1,0.8,2.3,1.4,3.7,1.6c0.3,0,0.5,0.2,0.7,0.3c0.3,0.3,0.3,0.5,0,0.9c-0.1,0.1-0.1,0.1-0.2,0.2C9.1,19.7,9,20,9.1,20.3
			c0.1,0.3,0.3,0.6,0.7,0.6c0.9,0.2,1.9-0.4,2.2-1.3c0.1-0.3,0.1-0.3,0.3-0.1c1.2,1.2,2.5,2.2,4.1,2.9c0.3,0.1,0.4,0.3,0.6,0.5
			c0.2,0.3,0.3,0.6,0.4,0.9c0.2,0.9,0.3,1.7,0.3,2.6c0,1.6-0.1,1.6-0.2,3.2c-0.1,0.9-0.2,1.9-0.3,2.8c0,0.1,0,0.2-0.2,0.2
			c-0.2,0-0.5,0-0.7,0c-0.8,0-1.5,0.1-2.3,0.3c-1,0.3-1.4,0.5-1.5,1.8c0,0.1-0.1,0.2-0.2,0.2c-0.6,0.2-1.1,0.5-1.6,0.9
			c-0.3,0.3-0.6,0.6-0.5,1.1c0,0.2,0,0.5,0,0.7c0,0.3,0,0.3,0.3,0.3c3.2,0,6.3,0,9.5,0c3.1,0,6.3,0,9.4,0c0.1,0,0.1,0,0.2,0
			c0.1,0,0.2,0,0.2-0.2c0-0.3,0-0.6,0-0.9c0-0.4-0.2-0.7-0.5-0.9c-0.4-0.3-0.9-0.6-1.3-0.7c-0.4-0.1-0.6-0.3-0.6-0.8
			c0-0.5-0.3-1-0.8-1.2c-0.3-0.1-0.7-0.2-1-0.3c-0.8-0.2-1.7-0.2-2.6-0.3c-0.1,0-0.2,0-0.2-0.2c-0.2-1.4-0.3-2.9-0.4-4.3
			c-0.1-1.5-0.2-1.4-0.1-2.9c0.1-0.7,0.2-1.4,0.4-2c0.2-0.5,0.5-0.8,1-1c0.9-0.4,1.8-0.9,2.6-1.5c0.5-0.4,1-0.9,1.4-1.3
			c0.1-0.1,0.1-0.2,0.2,0c0.3,0.8,0.9,1.3,1.8,1.4c0.4,0.1,0.9-0.1,1.1-0.4c0.2-0.3,0.2-0.7-0.2-1.1c0,0-0.1-0.1-0.1-0.1
			c-0.2-0.2-0.2-0.4,0-0.7c0.2-0.3,0.5-0.4,0.9-0.4c1.7-0.3,3.1-1,4.4-2.3c0.8-0.8,1.4-1.8,2-2.8c1-1.8,1.6-3.7,2.1-5.7
			C39.8,6.3,39.9,5.3,39.8,4.2z M10.2,16.6c-0.1,0.1-0.2,0-0.3,0c-2.2-0.2-3.9-1.1-5.2-2.9c-1-1.4-1.6-3-2.2-4.6
			C2.2,8,1.9,6.7,1.7,5.5c-0.1-0.4-0.1-0.8,0-1.2C1.7,4.1,1.8,4,2.1,4c0.8,0,1.7,0,2.5,0c0.8,0,1.7,0,2.5,0c0.2,0,0.2,0.1,0.3,0.3
			c0.1,1.5,0.2,3,0.4,4.4c0.2,1.4,0.5,2.8,0.9,4.1c0.4,1.2,0.8,2.4,1.4,3.5C10.1,16.4,10.2,16.5,10.2,16.6z M22.6,13.1
			c0,0.1,0,0.2-0.1,0.3c-0.1,0.1-0.2,0.1-0.3,0.1h-0.6v2.3h-1.8v-2.3h-4c-0.1,0-0.3,0-0.4-0.1c-0.1-0.1-0.2-0.2-0.2-0.3l-0.2-1
			l4.6-6.2h2v6h1V13.1z M38.1,5.6c-0.2,1.7-0.7,3.4-1.4,5c-0.5,1.3-1.1,2.5-2,3.6c-0.9,1.1-2.1,1.8-3.5,2.2
			c-0.4,0.1-0.9,0.1-1.3,0.2c-0.2,0-0.2,0-0.1-0.2c0.9-1.6,1.4-3.3,1.9-5.1c0.3-1.4,0.6-2.7,0.7-4.1c0.1-0.9,0.2-1.8,0.2-2.7
			c0-0.5,0-0.5,0.5-0.5c0.8,0,1.5,0,2.3,0c0.8,0,1.6,0,2.5,0c0.3,0,0.4,0.1,0.4,0.4C38.2,4.8,38.2,5.2,38.1,5.6z"/>
	</g>
</g>
<g id="Layer_2" class="st1">
	<path class="st2" d="M86.1-93.8c-0.1-1.1-0.9-1.9-2-1.9c-1.7,0-3.3,0-5,0c-0.2,0-0.3,0-0.2-0.2c0-0.3,0-0.7,0-1
		c0-0.2-0.1-0.3-0.3-0.3c-8.2,0-16.4,0-24.7,0c-0.2,0-0.3,0.1-0.3,0.3c0,0.3,0,0.6,0,0.9c0,0.2-0.1,0.3-0.3,0.3c-1.7,0-3.4,0-5.1,0
		c-0.5,0-1,0.2-1.3,0.6c-0.4,0.4-0.5,0.9-0.6,1.5c0,1,0.1,1.9,0.3,2.9c0.5,2.3,1.3,4.5,2.4,6.5c0.6,1.1,1.4,2.1,2.4,2.9
		c1.1,0.8,2.3,1.4,3.7,1.6c0.3,0,0.5,0.2,0.7,0.3c0.3,0.3,0.3,0.5,0,0.9c-0.1,0.1-0.1,0.1-0.2,0.2c-0.2,0.2-0.3,0.5-0.2,0.8
		c0.1,0.3,0.3,0.6,0.7,0.6c0.9,0.2,1.9-0.4,2.2-1.3c0.1-0.3,0.1-0.3,0.3-0.1c1.2,1.2,2.5,2.2,4.1,2.9c0.3,0.1,0.4,0.3,0.6,0.5
		c0.2,0.3,0.3,0.6,0.4,0.9c0.2,0.9,0.3,1.7,0.3,2.6c0,1.6-0.1,1.6-0.2,3.2c-0.1,0.9-0.2,1.9-0.3,2.8c0,0.1,0,0.2-0.2,0.2
		c-0.2,0-0.5,0-0.7,0c-0.8,0-1.5,0.1-2.3,0.3c-1,0.3-1.4,0.5-1.5,1.8c0,0.1-0.1,0.2-0.2,0.2c-0.6,0.2-1.1,0.5-1.6,0.9
		c-0.3,0.3-0.6,0.6-0.5,1.1c0,0.2,0,0.5,0,0.7c0,0.3,0,0.3,0.3,0.3c3.2,0,6.3,0,9.5,0c3.1,0,6.3,0,9.4,0c0.1,0,0.1,0,0.2,0
		c0.1,0,0.2,0,0.2-0.2c0-0.3,0-0.6,0-0.9c0-0.4-0.2-0.7-0.5-0.9c-0.4-0.3-0.9-0.6-1.3-0.7c-0.4-0.1-0.6-0.3-0.6-0.8
		c0-0.5-0.3-1-0.8-1.2c-0.3-0.1-0.7-0.2-1-0.3c-0.8-0.2-1.7-0.2-2.6-0.3c-0.1,0-0.2,0-0.2-0.2c-0.2-1.4-0.3-2.9-0.4-4.3
		c-0.1-1.5-0.2-1.4-0.1-2.9c0.1-0.7,0.2-1.4,0.4-2c0.2-0.5,0.5-0.8,1-1c0.9-0.4,1.8-0.9,2.6-1.5c0.5-0.4,1-0.9,1.4-1.3
		c0.1-0.1,0.1-0.2,0.2,0c0.3,0.8,0.9,1.3,1.8,1.4c0.4,0.1,0.9-0.1,1.1-0.4c0.2-0.3,0.2-0.7-0.2-1.1c0,0-0.1-0.1-0.1-0.1
		c-0.2-0.2-0.2-0.4,0-0.7c0.2-0.3,0.5-0.4,0.9-0.4c1.7-0.3,3.1-1,4.4-2.3c0.8-0.8,1.4-1.8,2-2.8c1-1.8,1.6-3.7,2.1-5.7
		C86-91.7,86.2-92.7,86.1-93.8z M56.4-81.4c-0.1,0.1-0.2,0-0.3,0c-2.2-0.2-3.9-1.1-5.2-2.9c-1-1.4-1.6-3-2.2-4.6
		c-0.4-1.2-0.7-2.4-0.8-3.6c-0.1-0.4-0.1-0.8,0-1.2c0-0.2,0.1-0.3,0.4-0.3c0.8,0,1.7,0,2.5,0c0.8,0,1.7,0,2.5,0
		c0.2,0,0.2,0.1,0.3,0.3c0.1,1.5,0.2,3,0.4,4.4c0.2,1.4,0.5,2.8,0.9,4.1c0.4,1.2,0.8,2.4,1.4,3.5C56.4-81.6,56.5-81.5,56.4-81.4z
		 M69.1-84.4c-0.2,0.4-0.4,0.7-0.8,1c-0.3,0.3-0.7,0.5-1.1,0.6s-0.9,0.2-1.3,0.2c-0.5,0-0.9-0.1-1.2-0.2c-0.4-0.1-0.7-0.3-1-0.5
		c-0.3-0.2-0.5-0.5-0.7-0.9c-0.2-0.3-0.4-0.8-0.6-1.2l0.9-0.4c0.2-0.1,0.5-0.1,0.7-0.1c0.2,0,0.4,0.2,0.4,0.3
		c0.2,0.4,0.4,0.7,0.6,0.8c0.2,0.2,0.5,0.3,0.8,0.3c0.2,0,0.4,0,0.6-0.1c0.2-0.1,0.3-0.2,0.4-0.3c0.1-0.1,0.2-0.3,0.3-0.4
		c0.1-0.2,0.1-0.3,0.1-0.5c0-0.2,0-0.4,0-0.6c0-0.2-0.1-0.3-0.2-0.5c-0.1-0.1-0.3-0.2-0.6-0.3c-0.3-0.1-0.6-0.1-1.1-0.1v-1.5
		c0.4,0,0.7,0,1-0.1c0.3-0.1,0.4-0.2,0.6-0.3c0.1-0.1,0.2-0.3,0.3-0.4c0-0.2,0.1-0.3,0.1-0.5c0-0.4-0.1-0.7-0.3-0.9
		c-0.2-0.2-0.5-0.3-0.9-0.3c-0.3,0-0.6,0.1-0.8,0.3c-0.2,0.2-0.4,0.4-0.4,0.6c-0.1,0.3-0.2,0.4-0.4,0.5c-0.2,0.1-0.4,0.1-0.7,0.1
		L62.7-90c0.1-0.5,0.2-1,0.4-1.3c0.2-0.4,0.5-0.7,0.8-1c0.3-0.3,0.6-0.4,1-0.6c0.4-0.1,0.8-0.2,1.3-0.2c0.5,0,0.9,0.1,1.3,0.2
		c0.4,0.1,0.7,0.3,1,0.6c0.3,0.2,0.5,0.5,0.6,0.8c0.1,0.3,0.2,0.7,0.2,1c0,0.3,0,0.6-0.1,0.9s-0.2,0.5-0.3,0.6
		c-0.1,0.2-0.3,0.3-0.5,0.5c-0.2,0.1-0.4,0.2-0.6,0.3c1.1,0.4,1.6,1.2,1.6,2.3C69.3-85.3,69.3-84.8,69.1-84.4z M84.4-92.4
		c-0.2,1.7-0.7,3.4-1.4,5c-0.5,1.3-1.1,2.5-2,3.6c-0.9,1.1-2.1,1.8-3.5,2.2c-0.4,0.1-0.9,0.1-1.3,0.2c-0.2,0-0.2,0-0.1-0.2
		c0.9-1.6,1.4-3.3,1.9-5.1c0.3-1.4,0.6-2.7,0.7-4.1c0.1-0.9,0.2-1.8,0.2-2.7c0-0.5,0-0.5,0.5-0.5c0.8,0,1.5,0,2.3,0
		c0.8,0,1.6,0,2.5,0c0.3,0,0.4,0.1,0.4,0.4C84.5-93.2,84.5-92.8,84.4-92.4z"/>
	<g class="st3">
		<path class="st0" d="M132.4-93.8c-0.1-1.1-0.9-1.9-2-1.9c-1.7,0-3.3,0-5,0c-0.2,0-0.3,0-0.2-0.2c0-0.3,0-0.7,0-1
			c0-0.2-0.1-0.3-0.3-0.3c-8.2,0-16.4,0-24.7,0c-0.2,0-0.3,0.1-0.3,0.3c0,0.3,0,0.6,0,0.9c0,0.2-0.1,0.3-0.3,0.3c-1.7,0-3.4,0-5.1,0
			c-0.5,0-1,0.2-1.3,0.6c-0.4,0.4-0.5,0.9-0.6,1.5c0,1,0.1,1.9,0.3,2.9c0.5,2.3,1.3,4.5,2.4,6.5c0.6,1.1,1.4,2.1,2.4,2.9
			c1.1,0.8,2.3,1.4,3.7,1.6c0.3,0,0.5,0.2,0.7,0.3c0.3,0.3,0.3,0.5,0,0.9c-0.1,0.1-0.1,0.1-0.2,0.2c-0.2,0.2-0.3,0.5-0.2,0.8
			c0.1,0.3,0.3,0.6,0.7,0.6c0.9,0.2,1.9-0.4,2.2-1.3c0.1-0.3,0.1-0.3,0.3-0.1c1.2,1.2,2.5,2.2,4.1,2.9c0.3,0.1,0.4,0.3,0.6,0.5
			c0.2,0.3,0.3,0.6,0.4,0.9c0.2,0.9,0.3,1.7,0.3,2.6c0,1.6-0.1,1.6-0.2,3.2c-0.1,0.9-0.2,1.9-0.3,2.8c0,0.1,0,0.2-0.2,0.2
			c-0.2,0-0.5,0-0.7,0c-0.8,0-1.5,0.1-2.3,0.3c-1,0.3-1.4,0.5-1.5,1.8c0,0.1-0.1,0.2-0.2,0.2c-0.6,0.2-1.1,0.5-1.6,0.9
			c-0.3,0.3-0.6,0.6-0.5,1.1c0,0.2,0,0.5,0,0.7c0,0.3,0,0.3,0.3,0.3c3.2,0,6.3,0,9.5,0c3.1,0,6.3,0,9.4,0c0.1,0,0.1,0,0.2,0
			c0.1,0,0.2,0,0.2-0.2c0-0.3,0-0.6,0-0.9c0-0.4-0.2-0.7-0.5-0.9c-0.4-0.3-0.9-0.6-1.3-0.7c-0.4-0.1-0.6-0.3-0.6-0.8
			c0-0.5-0.3-1-0.8-1.2c-0.3-0.1-0.7-0.2-1-0.3c-0.8-0.2-1.7-0.2-2.6-0.3c-0.1,0-0.2,0-0.2-0.2c-0.2-1.4-0.3-2.9-0.4-4.3
			c-0.1-1.5-0.2-1.4-0.1-2.9c0.1-0.7,0.2-1.4,0.4-2c0.2-0.5,0.5-0.8,1-1c0.9-0.4,1.8-0.9,2.6-1.5c0.5-0.4,1-0.9,1.4-1.3
			c0.1-0.1,0.1-0.2,0.2,0c0.3,0.8,0.9,1.3,1.8,1.4c0.4,0.1,0.9-0.1,1.1-0.4c0.2-0.3,0.2-0.7-0.2-1.1c0,0-0.1-0.1-0.1-0.1
			c-0.2-0.2-0.2-0.4,0-0.7c0.2-0.3,0.5-0.4,0.9-0.4c1.7-0.3,3.1-1,4.4-2.3c0.8-0.8,1.4-1.8,2-2.8c1-1.8,1.6-3.7,2.1-5.7
			C132.3-91.7,132.5-92.7,132.4-93.8z M102.7-81.4c-0.1,0.1-0.2,0-0.3,0c-2.2-0.2-3.9-1.1-5.2-2.9c-1-1.4-1.6-3-2.2-4.6
			c-0.4-1.2-0.7-2.4-0.8-3.6c-0.1-0.4-0.1-0.8,0-1.2c0-0.2,0.1-0.3,0.4-0.3c0.8,0,1.7,0,2.5,0c0.8,0,1.7,0,2.5,0
			c0.2,0,0.2,0.1,0.3,0.3c0.1,1.5,0.2,3,0.4,4.4c0.2,1.4,0.5,2.8,0.9,4.1c0.4,1.2,0.8,2.4,1.4,3.5C102.7-81.6,102.8-81.5,102.7-81.4
			z M115.8-85.5c0,0.1,0,0.2-0.1,0.3c-0.1,0.1-0.2,0.1-0.3,0.1h-0.6v2.4H113v-2.4h-3.9c-0.1,0-0.2,0-0.4-0.1
			c-0.1-0.1-0.2-0.2-0.2-0.3l-0.2-1.1l4.5-6.4h2v6.3h1V-85.5z M130.7-92.4c-0.2,1.7-0.7,3.4-1.4,5c-0.5,1.3-1.1,2.5-2,3.6
			c-0.9,1.1-2.1,1.8-3.5,2.2c-0.4,0.1-0.9,0.1-1.3,0.2c-0.2,0-0.2,0-0.1-0.2c0.9-1.6,1.4-3.3,1.9-5.1c0.3-1.4,0.6-2.7,0.7-4.1
			c0.1-0.9,0.2-1.8,0.2-2.7c0-0.5,0-0.5,0.5-0.5c0.8,0,1.5,0,2.3,0c0.8,0,1.6,0,2.5,0c0.3,0,0.4,0.1,0.4,0.4
			C130.7-93.2,130.7-92.8,130.7-92.4z"/>
		<path class="st0" d="M113-86.7v-2.7c0-0.2,0-0.3,0-0.5c0-0.2,0-0.4,0-0.6l-2.6,3.8H113z"/>
	</g>
	<path class="st2" d="M180.8-93.8c-0.1-1.1-0.9-1.9-2-1.9c-1.7,0-3.3,0-5,0c-0.2,0-0.3,0-0.2-0.2c0-0.3,0-0.7,0-1
		c0-0.2-0.1-0.3-0.3-0.3c-8.2,0-16.4,0-24.7,0c-0.2,0-0.3,0.1-0.3,0.3c0,0.3,0,0.6,0,0.9c0,0.2-0.1,0.3-0.3,0.3c-1.7,0-3.4,0-5.1,0
		c-0.5,0-1,0.2-1.3,0.6c-0.4,0.4-0.5,0.9-0.6,1.5c0,1,0.1,1.9,0.3,2.9c0.5,2.3,1.3,4.5,2.4,6.5c0.6,1.1,1.4,2.1,2.4,2.9
		c1.1,0.8,2.3,1.4,3.7,1.6c0.3,0,0.5,0.2,0.7,0.3c0.3,0.3,0.3,0.5,0,0.9c-0.1,0.1-0.1,0.1-0.2,0.2c-0.2,0.2-0.3,0.5-0.2,0.8
		c0.1,0.3,0.3,0.6,0.7,0.6c0.9,0.2,1.9-0.4,2.2-1.3c0.1-0.3,0.1-0.3,0.3-0.1c1.2,1.2,2.5,2.2,4.1,2.9c0.3,0.1,0.4,0.3,0.6,0.5
		c0.2,0.3,0.3,0.6,0.4,0.9c0.2,0.9,0.3,1.7,0.3,2.6c0,1.6-0.1,1.6-0.2,3.2c-0.1,0.9-0.2,1.9-0.3,2.8c0,0.1,0,0.2-0.2,0.2
		c-0.2,0-0.5,0-0.7,0c-0.8,0-1.5,0.1-2.3,0.3c-1,0.3-1.4,0.5-1.5,1.8c0,0.1-0.1,0.2-0.2,0.2c-0.6,0.2-1.1,0.5-1.6,0.9
		c-0.3,0.3-0.6,0.6-0.5,1.1c0,0.2,0,0.5,0,0.7c0,0.3,0,0.3,0.3,0.3c3.2,0,6.3,0,9.5,0c3.1,0,6.3,0,9.4,0c0.1,0,0.1,0,0.2,0
		c0.1,0,0.2,0,0.2-0.2c0-0.3,0-0.6,0-0.9c0-0.4-0.2-0.7-0.5-0.9c-0.4-0.3-0.9-0.6-1.3-0.7c-0.4-0.1-0.6-0.3-0.6-0.8
		c0-0.5-0.3-1-0.8-1.2c-0.3-0.1-0.7-0.2-1-0.3c-0.8-0.2-1.7-0.2-2.6-0.3c-0.1,0-0.2,0-0.2-0.2c-0.2-1.4-0.3-1.2-0.4-2.7
		c-0.1-1.5-0.2-3-0.1-4.5c0.1-0.7,0.2-1.4,0.4-2c0.2-0.5,0.5-0.8,1-1c0.9-0.4,1.8-0.9,2.6-1.5c0.5-0.4,1-0.9,1.4-1.3
		c0.1-0.1,0.1-0.2,0.2,0c0.3,0.8,0.9,1.3,1.8,1.4c0.4,0.1,0.9-0.1,1.1-0.4c0.2-0.3,0.2-0.7-0.2-1.1c0,0-0.1-0.1-0.1-0.1
		c-0.2-0.2-0.2-0.4,0-0.7c0.2-0.3,0.5-0.4,0.9-0.4c1.7-0.3,3.1-1,4.4-2.3c0.8-0.8,1.4-1.8,2-2.8c1-1.8,1.6-3.7,2.1-5.7
		C180.7-91.7,180.8-92.7,180.8-93.8z M151.1-81.4c-0.1,0.1-0.2,0-0.3,0c-2.2-0.2-3.9-1.1-5.2-2.9c-1-1.4-1.6-3-2.2-4.6
		c-0.4-1.2-0.7-2.4-0.8-3.6c-0.1-0.4-0.1-0.8,0-1.2c0-0.2,0.1-0.3,0.4-0.3c0.8,0,1.7,0,2.5,0c0.8,0,1.7,0,2.5,0
		c0.2,0,0.2,0.1,0.3,0.3c0.1,1.5,0.2,3,0.4,4.4c0.2,1.4,0.5,2.8,0.9,4.1c0.4,1.2,0.8,2.4,1.4,3.5C151-81.6,151.1-81.5,151.1-81.4z
		 M164-84.4c-0.2,0.5-0.4,0.8-0.8,1.2c-0.3,0.3-0.7,0.6-1.2,0.8c-0.5,0.2-1,0.3-1.5,0.3c-0.3,0-0.6,0-0.9-0.1
		c-0.3-0.1-0.6-0.2-0.8-0.3c-0.3-0.1-0.5-0.3-0.7-0.4c-0.2-0.2-0.4-0.3-0.6-0.5l0.6-0.9c0.1-0.1,0.1-0.2,0.2-0.2
		c0.1,0,0.2-0.1,0.3-0.1c0.1,0,0.3,0,0.4,0.1c0.1,0.1,0.2,0.2,0.4,0.3c0.1,0.1,0.3,0.2,0.5,0.2c0.2,0.1,0.4,0.1,0.7,0.1
		s0.5,0,0.7-0.1c0.2-0.1,0.4-0.2,0.5-0.4c0.1-0.2,0.2-0.4,0.3-0.6c0.1-0.2,0.1-0.5,0.1-0.7c0-0.5-0.1-0.9-0.4-1.1
		c-0.3-0.3-0.6-0.4-1.1-0.4c-0.4,0-0.9,0.1-1.3,0.3l-1.3-0.4l0.8-5.1h5v0.9c0,0.2,0,0.3-0.1,0.4c0,0.1-0.1,0.2-0.2,0.3
		c-0.1,0.1-0.2,0.2-0.4,0.2c-0.2,0-0.3,0.1-0.6,0.1h-2.3l-0.3,1.7c0.2,0,0.4-0.1,0.5-0.1c0.2,0,0.3,0,0.5,0c0.5,0,1,0.1,1.4,0.2
		c0.4,0.2,0.7,0.4,1,0.7c0.3,0.3,0.5,0.6,0.6,1s0.2,0.8,0.2,1.2C164.3-85.3,164.2-84.8,164-84.4z M179-92.4c-0.2,1.7-0.7,3.4-1.4,5
		c-0.5,1.3-1.1,2.5-2,3.6c-0.9,1.1-2.1,1.8-3.5,2.2c-0.4,0.1-0.9,0.1-1.3,0.2c-0.2,0-0.2,0-0.1-0.2c0.9-1.6,1.4-3.3,1.9-5.1
		c0.3-1.4,0.6-2.7,0.7-4.1c0.1-0.9,0.2-1.8,0.2-2.7c0-0.5,0-0.5,0.5-0.5c0.8,0,1.5,0,2.3,0c0.8,0,1.6,0,2.5,0c0.3,0,0.4,0.1,0.4,0.4
		C179.1-93.2,179.1-92.8,179-92.4z"/>
	<g class="st3">
		<path class="st0" d="M226.3-93.8c-0.1-1.1-0.9-1.9-2-1.9c-1.7,0-3.3,0-5,0c-0.2,0-0.3,0-0.2-0.2c0-0.3,0-0.7,0-1
			c0-0.2-0.1-0.3-0.3-0.3c-8.2,0-16.4,0-24.7,0c-0.2,0-0.3,0.1-0.3,0.3c0,0.3,0,0.6,0,0.9c0,0.2-0.1,0.3-0.3,0.3c-1.7,0-3.4,0-5.1,0
			c-0.5,0-1,0.2-1.3,0.6c-0.4,0.4-0.5,0.9-0.6,1.5c0,1,0.1,1.9,0.3,2.9c0.5,2.3,1.3,4.5,2.4,6.5c0.6,1.1,1.4,2.1,2.4,2.9
			c1.1,0.8,2.3,1.4,3.7,1.6c0.3,0,0.5,0.2,0.7,0.3c0.3,0.3,0.3,0.5,0,0.9c-0.1,0.1-0.1,0.1-0.2,0.2c-0.2,0.2-0.3,0.5-0.2,0.8
			c0.1,0.3,0.3,0.6,0.7,0.6c0.9,0.2,1.9-0.4,2.2-1.3c0.1-0.3,0.1-0.3,0.3-0.1c1.2,1.2,2.5,2.2,4.1,2.9c0.3,0.1,0.4,0.3,0.6,0.5
			c0.2,0.3,0.3,0.6,0.4,0.9c0.2,0.9,0.3,1.7,0.3,2.6c0,1.6-0.1,1.6-0.2,3.2c-0.1,0.9-0.2,1.9-0.3,2.8c0,0.1,0,0.2-0.2,0.2
			c-0.2,0-0.5,0-0.7,0c-0.8,0-1.5,0.1-2.3,0.3c-1,0.3-1.4,0.5-1.5,1.8c0,0.1-0.1,0.2-0.2,0.2c-0.6,0.2-1.1,0.5-1.6,0.9
			c-0.3,0.3-0.6,0.6-0.5,1.1c0,0.2,0,0.5,0,0.7c0,0.3,0,0.3,0.3,0.3c3.2,0,6.3,0,9.5,0c3.1,0,6.3,0,9.4,0c0.1,0,0.1,0,0.2,0
			c0.1,0,0.2,0,0.2-0.2c0-0.3,0-0.6,0-0.9c0-0.4-0.2-0.7-0.5-0.9c-0.4-0.3-0.9-0.6-1.3-0.7c-0.4-0.1-0.6-0.3-0.6-0.8
			c0-0.5-0.3-1-0.8-1.2c-0.3-0.1-0.7-0.2-1-0.3c-0.8-0.2-1.7-0.2-2.6-0.3c-0.1,0-0.2,0-0.2-0.2c-0.2-1.4-0.3-1.2-0.4-2.7
			c-0.1-1.5-0.2-3-0.1-4.5c0.1-0.7,0.2-1.4,0.4-2c0.2-0.5,0.5-0.8,1-1c0.9-0.4,1.8-0.9,2.6-1.5c0.5-0.4,1-0.9,1.4-1.3
			c0.1-0.1,0.1-0.2,0.2,0c0.3,0.8,0.9,1.3,1.8,1.4c0.4,0.1,0.9-0.1,1.1-0.4c0.2-0.3,0.2-0.7-0.2-1.1c0,0-0.1-0.1-0.1-0.1
			c-0.2-0.2-0.2-0.4,0-0.7c0.2-0.3,0.5-0.4,0.9-0.4c1.7-0.3,3.1-1,4.4-2.3c0.8-0.8,1.4-1.8,2-2.8c1-1.8,1.6-3.7,2.1-5.7
			C226.2-91.7,226.3-92.7,226.3-93.8z M196.6-81.4c-0.1,0.1-0.2,0-0.3,0c-2.2-0.2-3.9-1.1-5.2-2.9c-1-1.4-1.6-3-2.2-4.6
			c-0.4-1.2-0.7-2.4-0.8-3.6c-0.1-0.4-0.1-0.8,0-1.2c0-0.2,0.1-0.3,0.4-0.3c0.8,0,1.7,0,2.5,0c0.8,0,1.7,0,2.5,0
			c0.2,0,0.2,0.1,0.3,0.3c0.1,1.5,0.2,3,0.4,4.4c0.2,1.4,0.5,2.8,0.9,4.1c0.4,1.2,0.8,2.4,1.4,3.5C196.5-81.6,196.6-81.5,196.6-81.4
			z M209.9-84.4c-0.2,0.4-0.4,0.8-0.7,1.1c-0.3,0.3-0.7,0.6-1.1,0.8c-0.4,0.2-0.9,0.3-1.5,0.3c-0.5,0-1-0.1-1.5-0.3
			c-0.4-0.2-0.8-0.4-1.1-0.8c-0.3-0.3-0.5-0.7-0.7-1.2c-0.2-0.5-0.2-0.9-0.2-1.5c0-1,0.4-2,1.1-3.1l2.2-3.1c0.1-0.1,0.3-0.3,0.4-0.4
			c0.2-0.1,0.4-0.1,0.7-0.1h1.9l-2.9,3.6l-0.3,0.3c0.3-0.1,0.7-0.2,1-0.2c0.4,0,0.7,0.1,1,0.2c0.3,0.1,0.7,0.3,0.9,0.6
			c0.3,0.3,0.5,0.6,0.7,1c0.2,0.4,0.3,0.8,0.3,1.4C210.1-85.2,210-84.8,209.9-84.4z M224.5-92.4c-0.2,1.7-0.7,3.4-1.4,5
			c-0.5,1.3-1.1,2.5-2,3.6c-0.9,1.1-2.1,1.8-3.5,2.2c-0.4,0.1-0.9,0.1-1.3,0.2c-0.2,0-0.2,0-0.1-0.2c0.9-1.6,1.4-3.3,1.9-5.1
			c0.3-1.4,0.6-2.7,0.7-4.1c0.1-0.9,0.2-1.8,0.2-2.7c0-0.5,0-0.5,0.5-0.5c0.8,0,1.5,0,2.3,0c0.8,0,1.6,0,2.5,0
			c0.3,0,0.4,0.1,0.4,0.4C224.6-93.2,224.6-92.8,224.5-92.4z"/>
		<path class="st0" d="M207.6-86.8c-0.1-0.1-0.3-0.2-0.5-0.3c-0.2-0.1-0.4-0.1-0.6-0.1c-0.2,0-0.4,0-0.6,0.1s-0.3,0.2-0.5,0.3
			s-0.2,0.3-0.3,0.5c-0.1,0.2-0.1,0.4-0.1,0.7s0,0.5,0.1,0.7c0.1,0.2,0.1,0.4,0.3,0.5c0.1,0.1,0.3,0.3,0.5,0.3
			c0.2,0.1,0.4,0.1,0.7,0.1c0.2,0,0.4,0,0.6-0.1c0.2-0.1,0.3-0.2,0.5-0.3c0.1-0.1,0.2-0.3,0.3-0.5c0.1-0.2,0.1-0.4,0.1-0.7
			c0-0.3,0-0.5-0.1-0.7S207.7-86.6,207.6-86.8z"/>
	</g>
	<path class="st2" d="M274-93.8c-0.1-1.1-0.9-1.9-2-1.9c-1.7,0-3.3,0-5,0c-0.2,0-0.3,0-0.2-0.2c0-0.3,0-0.7,0-1
		c0-0.2-0.1-0.3-0.3-0.3c-8.2,0-16.4,0-24.7,0c-0.2,0-0.3,0.1-0.3,0.3c0,0.3,0,0.6,0,0.9c0,0.2-0.1,0.3-0.3,0.3c-1.7,0-3.4,0-5.1,0
		c-0.5,0-1,0.2-1.3,0.6c-0.4,0.4-0.5,0.9-0.6,1.5c0,1,0.1,1.9,0.3,2.9c0.5,2.3,1.3,4.5,2.4,6.5c0.6,1.1,1.4,2.1,2.4,2.9
		c1.1,0.8,2.3,1.4,3.7,1.6c0.3,0,0.5,0.2,0.7,0.3c0.3,0.3,0.3,0.5,0,0.9c-0.1,0.1-0.1,0.1-0.2,0.2c-0.2,0.2-0.3,0.5-0.2,0.8
		c0.1,0.3,0.3,0.6,0.7,0.6c0.9,0.2,1.9-0.4,2.2-1.3c0.1-0.3,0.1-0.3,0.3-0.1c1.2,1.2,2.5,2.2,4.1,2.9c0.3,0.1,0.4,0.3,0.6,0.5
		c0.2,0.3,0.3,0.6,0.4,0.9c0.2,0.9,0.3,1.7,0.3,2.6c0,1.6-0.1,1.6-0.2,3.2c-0.1,0.9-0.2,1.9-0.3,2.8c0,0.1,0,0.2-0.2,0.2
		c-0.2,0-0.5,0-0.7,0c-0.8,0-1.5,0.1-2.3,0.3c-1,0.3-1.4,0.5-1.5,1.8c0,0.1-0.1,0.2-0.2,0.2c-0.6,0.2-1.1,0.5-1.6,0.9
		c-0.3,0.3-0.6,0.6-0.5,1.1c0,0.2,0,0.5,0,0.7c0,0.3,0,0.3,0.3,0.3c3.2,0,6.3,0,9.5,0c3.1,0,6.3,0,9.4,0c0.1,0,0.1,0,0.2,0
		c0.1,0,0.2,0,0.2-0.2c0-0.3,0-0.6,0-0.9c0-0.4-0.2-0.7-0.5-0.9c-0.4-0.3-0.9-0.6-1.3-0.7c-0.4-0.1-0.6-0.3-0.6-0.8
		c0-0.5-0.3-1-0.8-1.2c-0.3-0.1-0.7-0.2-1-0.3c-0.8-0.2-1.7-0.2-2.6-0.3c-0.1,0-0.2,0-0.2-0.2c-0.2-1.4-0.3-1.2-0.4-2.7
		c-0.1-1.5-0.2-3-0.1-4.5c0.1-0.7,0.2-1.4,0.4-2c0.2-0.5,0.5-0.8,1-1c0.9-0.4,1.8-0.9,2.6-1.5c0.5-0.4,1-0.9,1.4-1.3
		c0.1-0.1,0.1-0.2,0.2,0c0.3,0.8,0.9,1.3,1.8,1.4c0.4,0.1,0.9-0.1,1.1-0.4c0.2-0.3,0.2-0.7-0.2-1.1c0,0-0.1-0.1-0.1-0.1
		c-0.2-0.2-0.2-0.4,0-0.7c0.2-0.3,0.5-0.4,0.9-0.4c1.7-0.3,3.1-1,4.4-2.3c0.8-0.8,1.4-1.8,2-2.8c1-1.8,1.6-3.7,2.1-5.7
		C274-91.7,274.1-92.7,274-93.8z M244.4-81.4c-0.1,0.1-0.2,0-0.3,0c-2.2-0.2-3.9-1.1-5.2-2.9c-1-1.4-1.6-3-2.2-4.6
		c-0.4-1.2-0.7-2.4-0.8-3.6c-0.1-0.4-0.1-0.8,0-1.2c0-0.2,0.1-0.3,0.4-0.3c0.8,0,1.7,0,2.5,0c0.8,0,1.7,0,2.5,0
		c0.2,0,0.2,0.1,0.3,0.3c0.1,1.5,0.2,3,0.4,4.4c0.2,1.4,0.5,2.8,0.9,4.1c0.4,1.2,0.8,2.4,1.4,3.5C244.3-81.6,244.4-81.5,244.4-81.4z
		 M257.8-91.6c0,0.3,0,0.5-0.1,0.7c-0.1,0.2-0.1,0.3-0.2,0.4l-3.4,7.5c-0.1,0.2-0.2,0.4-0.4,0.5c-0.2,0.1-0.4,0.2-0.7,0.2h-1.5
		l3.5-7.3c0.1-0.2,0.2-0.4,0.3-0.5c0.1-0.2,0.2-0.3,0.4-0.5h-4.3c-0.1,0-0.1,0-0.2,0c-0.1,0-0.1-0.1-0.1-0.1c0,0-0.1-0.1-0.1-0.2
		c0-0.1,0-0.1,0-0.2v-1.4h6.9V-91.6z M272.3-92.4c-0.2,1.7-0.7,3.4-1.4,5c-0.5,1.3-1.1,2.5-2,3.6c-0.9,1.1-2.1,1.8-3.5,2.2
		c-0.4,0.1-0.9,0.1-1.3,0.2c-0.2,0-0.2,0-0.1-0.2c0.9-1.6,1.4-3.3,1.9-5.1c0.3-1.4,0.6-2.7,0.7-4.1c0.1-0.9,0.2-1.8,0.2-2.7
		c0-0.5,0-0.5,0.5-0.5c0.8,0,1.5,0,2.3,0c0.8,0,1.6,0,2.5,0c0.3,0,0.4,0.1,0.4,0.4C272.4-93.2,272.4-92.8,272.3-92.4z"/>
	<g class="st3">
		<path class="st0" d="M305.6-89.8c-0.1-0.2-0.3-0.4-0.4-0.5c-0.2-0.1-0.3-0.1-0.5-0.1s-0.3,0-0.5,0.1c-0.2,0.1-0.3,0.2-0.4,0.5
			c-0.1,0.2-0.2,0.6-0.3,1c-0.1,0.4-0.1,0.9-0.1,1.6c0,0.6,0,1.2,0.1,1.6c0.1,0.4,0.2,0.7,0.3,1c0.1,0.2,0.3,0.4,0.4,0.5
			s0.3,0.1,0.5,0.1s0.3,0,0.5-0.1s0.3-0.2,0.4-0.5c0.1-0.2,0.2-0.6,0.3-1c0.1-0.4,0.1-0.9,0.1-1.6c0-0.6,0-1.2-0.1-1.6
			C305.8-89.3,305.7-89.6,305.6-89.8z"/>
		<path class="st0" d="M321-93.8c-0.1-1.1-0.9-1.9-2-1.9c-1.7,0-3.3,0-5,0c-0.2,0-0.3,0-0.2-0.2c0-0.3,0-0.7,0-1
			c0-0.2-0.1-0.3-0.3-0.3c-8.2,0-16.4,0-24.7,0c-0.2,0-0.3,0.1-0.3,0.3c0,0.3,0,0.6,0,0.9c0,0.2-0.1,0.3-0.3,0.3c-1.7,0-3.4,0-5.1,0
			c-0.5,0-1,0.2-1.3,0.6c-0.4,0.4-0.5,0.9-0.6,1.5c0,1,0.1,1.9,0.3,2.9c0.5,2.3,1.3,4.5,2.4,6.5c0.6,1.1,1.4,2.1,2.4,2.9
			c1.1,0.8,2.3,1.4,3.7,1.6c0.3,0,0.5,0.2,0.7,0.3c0.3,0.3,0.3,0.5,0,0.9c-0.1,0.1-0.1,0.1-0.2,0.2c-0.2,0.2-0.3,0.5-0.2,0.8
			c0.1,0.3,0.3,0.6,0.7,0.6c0.9,0.2,1.9-0.4,2.2-1.3c0.1-0.3,0.1-0.3,0.3-0.1c1.2,1.2,2.5,2.2,4.1,2.9c0.3,0.1,0.4,0.3,0.6,0.5
			c0.2,0.3,0.3,0.6,0.4,0.9c0.2,0.9,0.3,1.7,0.3,2.6c0,1.6-0.1,1.6-0.2,3.2c-0.1,0.9-0.2,1.9-0.3,2.8c0,0.1,0,0.2-0.2,0.2
			c-0.2,0-0.5,0-0.7,0c-0.8,0-1.5,0.1-2.3,0.3c-1,0.3-1.4,0.5-1.5,1.8c0,0.1-0.1,0.2-0.2,0.2c-0.6,0.2-1.1,0.5-1.6,0.9
			c-0.3,0.3-0.6,0.6-0.5,1.1c0,0.2,0,0.5,0,0.7c0,0.3,0,0.3,0.3,0.3c3.2,0,6.3,0,9.5,0c3.1,0,6.3,0,9.4,0c0.1,0,0.1,0,0.2,0
			c0.1,0,0.2,0,0.2-0.2c0-0.3,0-0.6,0-0.9c0-0.4-0.2-0.7-0.5-0.9c-0.4-0.3-0.9-0.6-1.3-0.7c-0.4-0.1-0.6-0.3-0.6-0.8
			c0-0.5-0.3-1-0.8-1.2c-0.3-0.1-0.7-0.2-1-0.3c-0.8-0.2-1.7-0.2-2.6-0.3c-0.1,0-0.2,0-0.2-0.2c-0.2-1.4-0.3-2.9-0.4-4.3
			c-0.1-1.5-0.2-1.4-0.1-2.9c0.1-0.7,0.2-1.4,0.4-2c0.2-0.5,0.5-0.8,1-1c0.9-0.4,1.8-0.9,2.6-1.5c0.5-0.4,1-0.9,1.4-1.3
			c0.1-0.1,0.1-0.2,0.2,0c0.3,0.8,0.9,1.3,1.8,1.4c0.4,0.1,0.9-0.1,1.1-0.4c0.2-0.3,0.2-0.7-0.2-1.1c0,0-0.1-0.1-0.1-0.1
			c-0.2-0.2-0.2-0.4,0-0.7c0.2-0.3,0.5-0.4,0.9-0.4c1.7-0.3,3.1-1,4.4-2.3c0.8-0.8,1.4-1.8,2-2.8c1-1.8,1.6-3.7,2.1-5.7
			C320.9-91.7,321.1-92.7,321-93.8z M291.3-81.4c-0.1,0.1-0.2,0-0.3,0c-2.2-0.2-3.9-1.1-5.2-2.9c-1-1.4-1.6-3-2.2-4.6
			c-0.4-1.2-0.7-2.4-0.8-3.6c-0.1-0.4-0.1-0.8,0-1.2c0-0.2,0.1-0.3,0.4-0.3c0.8,0,1.7,0,2.5,0c0.8,0,1.7,0,2.5,0
			c0.2,0,0.2,0.1,0.3,0.3c0.1,1.5,0.2,3,0.4,4.4c0.2,1.4,0.5,2.8,0.9,4.1c0.4,1.2,0.8,2.4,1.4,3.5C291.3-81.6,291.4-81.5,291.3-81.4
			z M300.5-82.7h-5v-1.4h1.7v-4.7c0-0.1,0-0.2,0-0.4s0-0.2,0-0.4l-1,0.9c-0.1,0.1-0.2,0.1-0.3,0.1c-0.1,0-0.2,0-0.2,0
			c-0.1,0-0.1,0-0.2-0.1c-0.1,0-0.1-0.1-0.1-0.1l-0.6-0.8l2.8-2.4h1.6v7.8h1.5V-82.7z M307.7-85.2c-0.2,0.6-0.4,1.1-0.7,1.5
			c-0.3,0.4-0.6,0.7-1,0.9c-0.4,0.2-0.8,0.3-1.3,0.3c-0.5,0-0.9-0.1-1.3-0.3c-0.4-0.2-0.7-0.5-1-0.9c-0.3-0.4-0.5-0.9-0.7-1.5
			c-0.2-0.6-0.2-1.3-0.2-2.1s0.1-1.5,0.2-2.1c0.2-0.6,0.4-1.1,0.7-1.5c0.3-0.4,0.6-0.7,1-0.9c0.4-0.2,0.8-0.3,1.3-0.3
			c0.5,0,0.9,0.1,1.3,0.3c0.4,0.2,0.7,0.5,1,0.9c0.3,0.4,0.5,0.9,0.7,1.5c0.2,0.6,0.2,1.3,0.2,2.1S307.8-85.8,307.7-85.2z
			 M319.3-92.4c-0.2,1.7-0.7,3.4-1.4,5c-0.5,1.3-1.1,2.5-2,3.6c-0.9,1.1-2.1,1.8-3.5,2.2c-0.4,0.1-0.9,0.1-1.3,0.2
			c-0.2,0-0.2,0-0.1-0.2c0.9-1.6,1.4-3.3,1.9-5.1c0.3-1.4,0.6-2.7,0.7-4.1c0.1-0.9,0.2-1.8,0.2-2.7c0-0.5,0-0.5,0.5-0.5
			c0.8,0,1.5,0,2.3,0c0.8,0,1.6,0,2.5,0c0.3,0,0.4,0.1,0.4,0.4C319.4-93.2,319.4-92.8,319.3-92.4z"/>
	</g>
	
		<text transform="matrix(1 0 0 1 15.7725 -6.8604)" style="display:inline;fill:#FFFFFF; font-family:'Lato-Black'; font-size:14.0462px;">4</text>
</g>
</svg>
