<?xml version="1.0" encoding="utf-8"?>
<!-- Generator: Adobe Illustrator 22.0.0, SVG Export Plug-In . SVG Version: 6.00 Build 0)  -->
<svg version="1.1" id="Layer_1" xmlns="http://www.w3.org/2000/svg" xmlns:xlink="http://www.w3.org/1999/xlink" x="0px" y="0px"
	 viewBox="0 0 50.9 50.1" style="enable-background:new 0 0 50.9 50.1;" xml:space="preserve">
<style type="text/css">
	.st0{fill:#6F81AC;}
</style>
<g>
	<g transform="translate(80 80)">
		<path class="st0" d="M-69.9-37.9c-0.3,0-0.7-0.1-0.9-0.4c-0.2-0.2-0.4-0.6-0.4-0.9c0-0.3,0.1-0.7,0.4-0.9c0.2-0.2,0.6-0.4,0.9-0.4
			c0.3,0,0.7,0.1,0.9,0.4c0.2,0.2,0.4,0.6,0.4,0.9c0,0.3-0.1,0.7-0.4,0.9C-69.3-38-69.6-37.9-69.9-37.9z"/>
		<path class="st0" d="M-30.4-57.6l-21.1-21.1c-0.7-0.7-1.7-1.1-2.8-1.1c-1,0-2,0.4-2.8,1.1l-13.3,13.3c-1.4,1.4-1.8,3.9-0.9,5.7
			l4.2,8.4c0.1,0.3,0.2,0.5,0.1,0.7c-0.1,0.2-0.3,0.3-0.6,0.4c-0.2,0.1-5.6,1.4-8.8,4.6c-1.7,1.7-2.7,4-2.7,6.5c0,2.4,1,4.7,2.7,6.5
			c1.7,1.7,4,2.7,6.5,2.7l0,0c2.4,0,4.7-1,6.5-2.7c3.3-3.3,4.6-8.6,4.6-8.8c0.1-0.2,0.2-0.6,0.7-0.6c0.1,0,0.3,0,0.4,0.1l8.4,4.2
			c0.6,0.3,1.4,0.5,2.1,0.5c1.4,0,2.7-0.5,3.6-1.4l13.3-13.3C-28.9-53.6-28.9-56.1-30.4-57.6L-30.4-57.6z M-45.5-40.7
			c-0.4,0.4-1.1,0.6-1.7,0.6c-0.4,0-0.7-0.1-0.9-0.2l-8.4-4.2c-0.5-0.3-1.1-0.4-1.6-0.4c-1.5,0-2.8,1.1-3.2,2.6c0,0-1.2,4.9-4,7.6
			c-1.2,1.2-2.9,1.9-4.6,1.9c-1.7,0-3.4-0.7-4.6-1.9c-1.2-1.2-1.9-2.9-1.9-4.6c0-1.7,0.7-3.4,1.9-4.6c2.8-2.8,7.6-3.9,7.6-4
			c1.1-0.3,1.9-0.9,2.3-1.8c0.4-0.9,0.4-2-0.1-3l-4.2-8.4c-0.4-0.8-0.2-2.1,0.4-2.7l2.5-2.5l23,23L-45.5-40.7z M-32.2-53.9l-9,9
			l-23-23l9-9c0.2-0.2,0.6-0.4,0.9-0.4c0.4,0,0.7,0.1,0.9,0.4l21.1,21.1C-31.7-55.3-31.7-54.5-32.2-53.9L-32.2-53.9z"/>
	</g>
	<line class="st0" x1="41.7" y1="23.6" x2="37" y2="28.3"/>
	<path class="st0" d="M37,29.5c-0.3,0-0.6-0.1-0.9-0.4c-0.5-0.5-0.5-1.3,0-1.8l4.7-4.7c0.5-0.5,1.3-0.5,1.8,0c0.5,0.5,0.5,1.3,0,1.8
		l-4.7,4.7C37.6,29.4,37.3,29.5,37,29.5z"/>
</g>
</svg>
