<?xml version="1.0" encoding="utf-8"?>
<!-- Generator: Adobe Illustrator 22.0.0, SVG Export Plug-In . SVG Version: 6.00 Build 0)  -->
<svg version="1.1" id="Layer_1" xmlns="http://www.w3.org/2000/svg" xmlns:xlink="http://www.w3.org/1999/xlink" x="0px" y="0px"
	 viewBox="0 0 157.9 57.6" style="enable-background:new 0 0 157.9 57.6;" xml:space="preserve">
<style type="text/css">
	.st0{opacity:0.1;fill:#FFFFFF;}
	.st1{opacity:0.65;}
	.st2{fill:#FFFFFF;}
	.st3{fill:#FF4338;}
	.st4{fill:#FFBD00;}
	.st5{fill:#00A953;}
	.st6{fill:#0087F6;}
</style>
<rect x="7" class="st0" width="18.1" height="57.2"/>
<g class="st1">
	<path class="st2" d="M46.3,11.3c-0.7,0-1.4,0-2.1,0c-0.3,0-0.4-0.1-0.4-0.4c0-0.5,0-0.9,0-1.4c0-0.3,0.1-0.4,0.4-0.4
		c2.2,0,4.4,0,6.5,0c0.5,0,0.5,0.2,0.5,0.6c0.1,4.1-2.8,7.4-6.8,8.2c-4.8,0.9-9.4-3-9.4-7.9c0-3.3,1.5-5.9,4.5-7.4
		c2.9-1.5,5.8-1.2,8.4,0.6c1.4,1,1.4,1,0.1,2.2c-0.3,0.3-0.5,0.4-0.9,0.1c-2-1.9-4.9-2.1-7.2-0.6c-2.2,1.4-3.3,4.3-2.4,6.7
		c0.9,2.6,3.3,4.3,6.1,4.1c2.3-0.1,4.4-1.7,5.2-3.9c0.2-0.5,0-0.5-0.4-0.5C47.7,11.3,47,11.3,46.3,11.3
		C46.3,11.3,46.3,11.3,46.3,11.3z"/>
	<path class="st2" d="M77.3,17.1c-1-1.1-1.7-2.3-1.8-3.8c-0.1-2,0.8-3.7,2.5-4.8c1.6-1,3.3-1.2,5.1-0.3c0.2,0.1,0.5,0.5,0.6-0.1
		c0-0.2,0.3-0.1,0.5-0.1c1.6,0,1.6,0,1.6,1.6c0,2.6,0,5.1,0,7.7c0,1.1,0.1,2.1-0.4,3.1c-0.9,1.9-2.4,2.9-4.5,2.8c-2,0-3.5-1-4.4-2.8
		c-0.2-0.4-0.2-0.6,0.3-0.7c0,0,0.1,0,0.1-0.1c0.2,0,0.3-0.1,0.5-0.1c0.1,0,0.2,0,0.3-0.1c0,0,0.1,0,0.1,0c0.4-0.1,0.7-0.1,0.9,0.4
		c0.6,1.1,2.1,1.6,3.2,1.1c1.3-0.6,1.8-1.6,1.6-3c0-0.2-0.1-0.3-0.3-0.2c-1.5,0.9-3.1,0.9-4.6,0.2c-0.1-0.1-0.2-0.1-0.3-0.1
		c-0.1-0.2-0.3-0.3-0.6-0.4c0,0,0,0,0,0c0,0-0.1-0.1-0.1-0.1c0,0,0,0,0,0C77.5,17.2,77.4,17.1,77.3,17.1z M83.4,13.1
		c0-1.9-1.1-3.2-2.7-3.2c-1.6,0-3,1.5-3,3.1c0,1.8,1.3,3.2,3,3.2C82.3,16.2,83.4,14.9,83.4,13.1z"/>
	<path class="st2" d="M95.5,18c-2.7-0.1-4.6-1.7-5.2-4c-0.6-2.3,0.5-4.7,2.6-5.8c2.1-1.1,4.6-0.7,6.3,1c0.4,0.4,0.7,0.9,0.9,1.3
		c0.3,0.5,0.1,0.8-0.4,1c-2,0.9-4.1,1.8-6.1,2.8c-0.7,0.3-0.7,0.4-0.1,0.8c1.3,1,3.2,0.8,4.3-0.5c0.3-0.3,0.4-0.4,0.8-0.2
		c0.3,0.2,0.6,0.4,1,0.5c0.5,0.2,0.5,0.5,0.2,0.8C98.5,17.3,97.1,18,95.5,18z M92.3,12.4c1.6-0.7,3.1-1.4,4.7-2.1
		c-1-0.6-2-0.7-3-0.3C93.1,10.5,92.5,11.2,92.3,12.4z"/>
	<path class="st2" d="M57.6,18.3c-3,0-5.5-2.5-5.5-5.5c0-3,2.5-5.5,5.5-5.5c3,0,5.5,2.5,5.5,5.5C63.2,15.8,60.7,18.3,57.6,18.3z
		 M60.9,12.8c0-1.8-1.5-3.3-3.3-3.3c-1.8,0-3.3,1.5-3.3,3.3c0,1.8,1.5,3.3,3.3,3.3C59.5,16.1,60.9,14.6,60.9,12.8z"/>
	<path class="st2" d="M69.5,7.3c3.1,0,5.6,2.6,5.5,5.7c-0.1,2.9-2.4,5.4-5.7,5.3c-3-0.1-5.4-2.6-5.4-5.7C64,9.5,66.7,7.2,69.5,7.3z
		 M72.8,12.8c0-1.8-1.5-3.3-3.2-3.3c-1.8,0-3.3,1.5-3.3,3.3c0,1.9,1.4,3.3,3.3,3.3C71.3,16.1,72.8,14.7,72.8,12.8z"/>
	<path class="st2" d="M89.4,10.1c0,2.4,0,4.9,0,7.3c0,0.4-0.1,0.6-0.6,0.6c-0.4,0-0.8,0-1.2,0c-0.4,0-0.5-0.1-0.5-0.5
		c0-5,0-9.9,0-14.9c0-0.4,0.1-0.5,0.5-0.5c1.8,0,1.8-0.1,1.8,1.7C89.4,5.9,89.4,8,89.4,10.1z"/>
	<path class="st2" d="M77.6,17.3c0,0,0.1,0.1,0.1,0.1C77.7,17.4,77.7,17.4,77.6,17.3z"/>
</g>
<path class="st2" d="M109,44c-0.1,0.1-0.3,0.2-0.4,0.3C108.7,44.2,108.9,44.1,109,44z"/>
<g>
	<path class="st2" d="M45.5,28.1c1.8,0,3.4,0.2,4.7,0.6c1.3,0.4,2.4,1,3.3,1.8c0.9,0.8,1.5,1.7,1.9,2.7c0.4,1.1,0.6,2.2,0.6,3.5
		c0,1.3-0.2,2.5-0.7,3.6c-0.4,1.1-1.1,2-2,2.8c-0.9,0.8-2,1.4-3.3,1.8c-1.3,0.4-2.9,0.7-4.6,0.7h-3.8v9.5h-5v-27H45.5z M45.5,41.7
		c0.9,0,1.7-0.1,2.4-0.3c0.7-0.2,1.3-0.6,1.7-1s0.8-1,1-1.6c0.2-0.6,0.3-1.3,0.3-2.1c0-0.7-0.1-1.4-0.3-2c-0.2-0.6-0.6-1.1-1-1.5
		s-1-0.7-1.7-0.9c-0.7-0.2-1.5-0.3-2.4-0.3h-3.8v9.7H45.5z"/>
	<path class="st2" d="M58.1,38.7c2.2-2,4.9-3,8-3c1.1,0,2.1,0.2,3,0.6c0.9,0.4,1.6,0.9,2.2,1.5c0.6,0.7,1.1,1.4,1.4,2.3
		c0.3,0.9,0.5,1.9,0.5,3v12.1h-2.1c-0.4,0-0.8-0.1-1-0.2c-0.2-0.1-0.4-0.4-0.6-0.8l-0.4-1.4c-0.5,0.4-1,0.8-1.4,1.1
		c-0.5,0.3-0.9,0.6-1.4,0.8c-0.5,0.2-1,0.4-1.6,0.5c-0.6,0.1-1.2,0.2-1.9,0.2c-0.8,0-1.6-0.1-2.2-0.3c-0.7-0.2-1.3-0.5-1.8-1
		c-0.5-0.4-0.9-1-1.2-1.6c-0.3-0.6-0.4-1.4-0.4-2.3c0-0.5,0.1-1,0.2-1.4c0.2-0.5,0.4-0.9,0.8-1.4c0.4-0.4,0.8-0.8,1.4-1.2
		c0.6-0.4,1.3-0.7,2.2-1c0.9-0.3,1.8-0.5,3-0.7c1.1-0.2,2.4-0.3,3.9-0.3v-1.1c0-1.3-0.3-2.2-0.8-2.9c-0.5-0.6-1.3-0.9-2.4-0.9
		c-0.7,0-1.4,0.1-1.9,0.3c-0.5,0.2-0.9,0.4-1.3,0.6c-0.4,0.2-0.7,0.4-1,0.6c-0.3,0.2-0.6,0.3-1,0.3c-0.3,0-0.6-0.1-0.8-0.3
		c-0.2-0.2-0.4-0.4-0.5-0.6L58.1,38.7z M68.7,47c-1.3,0.1-2.5,0.2-3.4,0.3c-0.9,0.2-1.6,0.4-2.2,0.6c-0.5,0.3-0.9,0.6-1.2,0.9
		c-0.2,0.3-0.4,0.7-0.4,1.1c0,0.8,0.2,1.4,0.7,1.7c0.5,0.3,1.1,0.5,1.9,0.5c0.9,0,1.8-0.2,2.5-0.5c0.7-0.3,1.4-0.9,2-1.6V47z"/>
	<path class="st2" d="M81.9,39.3c0.6-1.1,1.3-2,2.1-2.7c0.8-0.7,1.8-1,2.9-1c0.9,0,1.6,0.2,2.1,0.6l-0.3,3.5
		c-0.1,0.2-0.2,0.4-0.3,0.5c-0.1,0.1-0.3,0.1-0.5,0.1c-0.2,0-0.5,0-0.8-0.1c-0.4-0.1-0.7-0.1-1.1-0.1c-0.5,0-1,0.1-1.4,0.2
		c-0.4,0.1-0.8,0.4-1.1,0.6c-0.3,0.3-0.6,0.6-0.8,1c-0.2,0.4-0.5,0.9-0.7,1.4v11.8h-4.6V36h2.7c0.5,0,0.8,0.1,1,0.3
		c0.2,0.2,0.3,0.5,0.4,0.9L81.9,39.3z"/>
	<path class="st2" d="M97.9,55.5c-1.7,0-3-0.5-3.8-1.4c-0.9-0.9-1.3-2.2-1.3-3.9V39.5h-2c-0.2,0-0.5-0.1-0.6-0.2
		c-0.2-0.2-0.3-0.4-0.3-0.7v-1.8l3.1-0.5l1-5.2c0.1-0.2,0.2-0.4,0.4-0.6c0.2-0.1,0.4-0.2,0.7-0.2h2.4v6h5.1v3.3h-5.1v10.4
		c0,0.6,0.1,1.1,0.4,1.4c0.3,0.3,0.7,0.5,1.2,0.5c0.3,0,0.5,0,0.7-0.1c0.2-0.1,0.4-0.1,0.5-0.2c0.1-0.1,0.3-0.1,0.4-0.2
		c0.1-0.1,0.2-0.1,0.3-0.1c0.1,0,0.2,0,0.3,0.1c0.1,0.1,0.2,0.2,0.3,0.3l1.4,2.2c-0.7,0.6-1.4,1-2.3,1.3
		C99.7,55.3,98.8,55.5,97.9,55.5z"/>
	<path class="st2" d="M109.7,38.4c0.4-0.4,0.8-0.7,1.2-1.1c0.4-0.3,0.9-0.6,1.4-0.8c0.5-0.2,1-0.4,1.5-0.5c0.5-0.1,1.1-0.2,1.8-0.2
		c1,0,2,0.2,2.8,0.5c0.8,0.4,1.5,0.9,2,1.5c0.5,0.6,1,1.4,1.2,2.3c0.3,0.9,0.4,1.9,0.4,2.9v12.2h-4.6V43c0-1.2-0.3-2.1-0.8-2.7
		c-0.5-0.6-1.4-1-2.4-1c-0.8,0-1.5,0.2-2.2,0.5c-0.7,0.4-1.4,0.9-2,1.5v13.9h-4.6V36h2.8c0.6,0,1,0.3,1.2,0.8L109.7,38.4z"/>
	<path class="st2" d="M130,46.2c0.1,1,0.2,1.8,0.5,2.6c0.3,0.7,0.6,1.3,1.1,1.8c0.4,0.5,1,0.8,1.6,1c0.6,0.2,1.3,0.3,2,0.3
		c0.7,0,1.4-0.1,1.9-0.3c0.5-0.2,1-0.4,1.4-0.6c0.4-0.2,0.8-0.4,1.1-0.6c0.3-0.2,0.6-0.3,0.9-0.3c0.4,0,0.7,0.1,0.9,0.4l1.3,1.7
		c-0.5,0.6-1.1,1.1-1.7,1.5c-0.6,0.4-1.3,0.7-2,1c-0.7,0.2-1.4,0.4-2.1,0.5c-0.7,0.1-1.4,0.1-2.1,0.1c-1.3,0-2.6-0.2-3.7-0.7
		c-1.1-0.4-2.1-1.1-3-2c-0.8-0.9-1.5-1.9-2-3.2c-0.5-1.3-0.7-2.8-0.7-4.4c0-1.3,0.2-2.5,0.6-3.7c0.4-1.2,1-2.2,1.8-3
		c0.8-0.9,1.8-1.5,2.9-2c1.1-0.5,2.4-0.7,3.9-0.7c1.2,0,2.3,0.2,3.3,0.6c1,0.4,1.9,1,2.6,1.7c0.7,0.7,1.3,1.7,1.7,2.7
		c0.4,1.1,0.6,2.3,0.6,3.7c0,0.7-0.1,1.2-0.2,1.4c-0.1,0.2-0.4,0.4-0.9,0.4H130z M138.9,43.4c0-0.6-0.1-1.2-0.3-1.7
		c-0.2-0.5-0.4-1-0.8-1.4c-0.3-0.4-0.8-0.7-1.3-0.9c-0.5-0.2-1.1-0.3-1.8-0.3c-1.3,0-2.4,0.4-3.2,1.1c-0.8,0.8-1.3,1.8-1.5,3.2
		H138.9z"/>
	<path class="st2" d="M150.8,39.3c0.6-1.1,1.3-2,2.1-2.7c0.8-0.7,1.8-1,2.9-1c0.9,0,1.6,0.2,2.1,0.6l-0.3,3.5
		c-0.1,0.2-0.2,0.4-0.3,0.5c-0.1,0.1-0.3,0.1-0.5,0.1c-0.2,0-0.5,0-0.8-0.1c-0.4-0.1-0.7-0.1-1.1-0.1c-0.5,0-1,0.1-1.4,0.2
		c-0.4,0.1-0.8,0.4-1.1,0.6c-0.3,0.3-0.6,0.6-0.8,1c-0.2,0.4-0.5,0.9-0.7,1.4v11.8h-4.6V36h2.7c0.5,0,0.8,0.1,1,0.3
		c0.2,0.2,0.3,0.5,0.4,0.9L150.8,39.3z"/>
</g>
<g>
	<path class="st2" d="M13.3,49.9c0-0.4,0-0.7,0.1-1c0.1-0.3,0.2-0.5,0.4-0.7c0.2-0.2,0.3-0.3,0.6-0.4c0.2-0.1,0.5-0.1,0.7-0.1
		c0.3,0,0.5,0,0.7,0.1c0.2,0.1,0.4,0.2,0.6,0.4c0.2,0.2,0.3,0.4,0.4,0.7c0.1,0.3,0.1,0.6,0.1,0.9v0.8h1.9v1h-5.5V49.9z M16.1,49.9
		c0-0.2,0-0.4-0.1-0.5c0-0.1-0.1-0.3-0.2-0.3s-0.2-0.2-0.3-0.2c-0.1,0-0.3-0.1-0.4-0.1c-0.1,0-0.3,0-0.4,0.1c-0.1,0-0.2,0.1-0.3,0.2
		c-0.1,0.1-0.1,0.2-0.2,0.3c0,0.1-0.1,0.3-0.1,0.5v0.8h2V49.9z"/>
	<path class="st2" d="M18.8,40.4v0.9c0,0.2-0.1,0.3-0.2,0.4l-1.8,1.2c-0.1,0-0.1,0.1-0.1,0.1c0,0.1,0,0.1,0,0.2v0.4h2.2v1h-5.5V43
		c0-0.4,0-0.7,0.1-1c0.1-0.3,0.2-0.5,0.3-0.7c0.1-0.2,0.3-0.3,0.5-0.4c0.2-0.1,0.4-0.1,0.6-0.1c0.2,0,0.4,0,0.5,0.1
		c0.2,0.1,0.3,0.1,0.5,0.2c0.1,0.1,0.3,0.2,0.4,0.4c0.1,0.2,0.2,0.3,0.2,0.5c0-0.1,0.1-0.1,0.1-0.2c0.1-0.1,0.1-0.1,0.2-0.2
		L18.8,40.4z M16,43c0-0.2,0-0.4-0.1-0.5c0-0.1-0.1-0.3-0.2-0.4c-0.1-0.1-0.2-0.2-0.3-0.2s-0.2-0.1-0.4-0.1c-0.3,0-0.5,0.1-0.6,0.3
		c-0.1,0.2-0.2,0.5-0.2,0.8v0.7H16V43z"/>
	<path class="st2" d="M14.1,36.5h1.5v-1.9h0.8v1.9H18V34h0.8v3.5h-5.5V34h0.8V36.5z"/>
	<path class="st2" d="M13.3,24.8h5.5v0.9h-3.6c-0.1,0-0.3,0-0.5,0l3.1,1.7c0.1,0.1,0.2,0.2,0.2,0.4v0.1c0,0.2-0.1,0.3-0.2,0.4
		l-3.1,1.7c0.1,0,0.2,0,0.2,0c0.1,0,0.2,0,0.2,0h3.6v0.9h-5.5V30c0,0,0-0.1,0-0.1c0,0,0-0.1,0-0.1c0,0,0-0.1,0-0.1
		c0,0,0.1,0,0.1-0.1l3.1-1.7c0.1,0,0.2-0.1,0.3-0.1c0.1,0,0.2-0.1,0.3-0.1c-0.1,0-0.2-0.1-0.3-0.1c-0.1,0-0.2-0.1-0.3-0.1L13.5,26
		c0,0-0.1,0-0.1-0.1c0,0,0,0,0-0.1c0,0,0-0.1,0-0.1c0,0,0-0.1,0-0.1V24.8z"/>
	<path class="st2" d="M18.8,20.3v1h-5.5v-1H18.8z"/>
	<path class="st2" d="M14.1,15.7h1.5v-1.9h0.8v1.9H18v-2.4h0.8v3.5h-5.5v-3.5h0.8V15.7z"/>
	<path class="st2" d="M18.8,5.8v0.9c0,0.2-0.1,0.3-0.2,0.4l-1.8,1.2c-0.1,0-0.1,0.1-0.1,0.1c0,0.1,0,0.1,0,0.2v0.4h2.2v1h-5.5V8.4
		c0-0.4,0-0.7,0.1-1c0.1-0.3,0.2-0.5,0.3-0.7c0.1-0.2,0.3-0.3,0.5-0.4c0.2-0.1,0.4-0.1,0.6-0.1c0.2,0,0.4,0,0.5,0.1
		c0.2,0.1,0.3,0.1,0.5,0.2C16,6.7,16.1,6.8,16.3,7c0.1,0.2,0.2,0.3,0.2,0.5c0-0.1,0.1-0.1,0.1-0.2c0.1-0.1,0.1-0.1,0.2-0.2L18.8,5.8
		z M16,8.4c0-0.2,0-0.4-0.1-0.5c0-0.1-0.1-0.3-0.2-0.4c-0.1-0.1-0.2-0.2-0.3-0.2S15.1,7.3,15,7.3c-0.3,0-0.5,0.1-0.6,0.3
		S14.1,8,14.1,8.4v0.7H16V8.4z"/>
</g>
<rect x="0.1" class="st3" width="4.3" height="14.4"/>
<rect x="0.1" y="14.4" class="st4" width="4.3" height="14.4"/>
<rect x="0.1" y="28.8" class="st5" width="4.3" height="14.4"/>
<rect x="0.1" y="42.8" class="st6" width="4.3" height="14.4"/>
</svg>
