<?xml version="1.0" encoding="utf-8"?>
<!-- Generator: Adobe Illustrator 22.0.0, SVG Export Plug-In . SVG Version: 6.00 Build 0)  -->
<svg version="1.1" id="Layer_1" xmlns="http://www.w3.org/2000/svg" xmlns:xlink="http://www.w3.org/1999/xlink" x="0px" y="0px"
	 viewBox="0 0 65 65" style="enable-background:new 0 0 65 65;" xml:space="preserve">
<style type="text/css">
	.st0{fill:#4B5DA5;}
	.st1{fill:#B4BCDA;}
</style>
<circle class="st0" cx="32.5" cy="32.5" r="32.5"/>
<g>
	<path class="st1" d="M28.1,48.7l-2.3-2.5l0,0c-0.2-0.3-0.6-0.4-0.9-0.3l-3.6,0.4l4.8-14l-1.4-1.5l-5.6,16.5c-0.1,0.3,0,0.6,0.2,0.9
		c0.2,0.2,0.6,0.3,0.9,0.2l4.6-0.7l2.9,3.3c0.1,0.1,0.3,0.2,0.4,0.3c0.1,0,0.3,0.1,0.4,0c0.3-0.1,0.6-0.3,0.7-0.6L33,36.4l-1.7-0.5
		L28.1,48.7z"/>
	<path class="st1" d="M36.9,45.7l2.2-3.4l0,0c0.2-0.3,0.6-0.4,0.9-0.3l3.7,0.7l-4.4-10.5l1.2-1.9l5.4,13.3c0.1,0.3,0,0.6-0.2,0.9
		c-0.2,0.2-0.6,0.3-0.9,0.2l-4.7-1l-2.8,4.2c-0.1,0.1-0.3,0.2-0.4,0.3c-0.1,0-0.3,0.1-0.4,0c-0.3-0.1-0.6-0.3-0.7-0.6l-3.5-11.4
		l1.7-0.5L36.9,45.7z"/>
	<path class="st1" d="M40.7,31.4l3-2.2l-1.2-3.6l1.2-3.6l-3-2.2v-0.1l-1.1-3.5h-3.8l-3-2.2l-3,2.2H26l-1.2,3.6l-3,2.2l1.2,3.6
		l-1.2,3.6l3,2.2l0.7,2.2l0.5,1.3h3.7l3,2.2l3-2.2h3.7l0.5-1.3L40.7,31.4z M39.3,30.3l-0.9,2.9h-3.1L32.8,35l-2.5-1.8h-3.1l-1-2.9
		l-2.5-1.8l1-2.9l-1-2.9l2.5-1.8l1-2.9h3.1l2.5-1.8l2.5,1.8h3.1l1,2.9l2.5,1.8l-1,2.9l0.9,2.9v0.1L39.3,30.3z"/>
</g>
</svg>
