<?xml version="1.0" encoding="utf-8"?>
<!-- Generator: Adobe Illustrator 22.0.0, SVG Export Plug-In . SVG Version: 6.00 Build 0)  -->
<svg version="1.1" id="Layer_1" xmlns="http://www.w3.org/2000/svg" xmlns:xlink="http://www.w3.org/1999/xlink" x="0px" y="0px"
	 viewBox="0 0 418.3 87.8" style="enable-background:new 0 0 418.3 87.8;" xml:space="preserve">
<style type="text/css">
	.st0{fill:#FFFFFF;}
	.st1{opacity:0.65;fill:#FFFFFF;}
</style>
<path class="st0" d="M119.1,23.9H98.9V11.1h54.6l-25.3,12.8h6.6v55.3h-15.8V23.9z"/>
<path class="st0" d="M181.2,23.9H161V11.1h54.6l-25.3,12.8h6.6v55.3h-15.8V23.9z"/>
<g>
	<g>
		<g>
			<path class="st0" d="M412,13.8l-1.2-1.7c-0.1,0-0.3,0-0.3,0h-1.4v1.7h-0.8V8.3h2.2c0.7,0,1.3,0.2,1.7,0.5s0.6,0.8,0.6,1.4
				c0,0.4-0.1,0.8-0.3,1.1c-0.2,0.3-0.5,0.5-0.9,0.7l1.3,1.9H412z M411.6,11.1c0.3-0.2,0.4-0.5,0.4-0.9s-0.1-0.7-0.4-0.9
				c-0.3-0.2-0.6-0.3-1.1-0.3h-1.3v2.5h1.3C410.9,11.4,411.3,11.3,411.6,11.1z"/>
		</g>
		<g>
			<path class="st0" d="M410.5,18.9c-4.1,0-7.5-3.4-7.5-7.5s3.4-7.5,7.5-7.5c4.1,0,7.5,3.4,7.5,7.5S414.6,18.9,410.5,18.9z
				 M410.5,4.9c-3.6,0-6.5,2.9-6.5,6.5s2.9,6.5,6.5,6.5c3.6,0,6.5-2.9,6.5-6.5S414.1,4.9,410.5,4.9z"/>
		</g>
	</g>
</g>
<path class="st0" d="M11.7,62.9"/>
<path class="st0" d="M229.4,76.6c-4.5-1.7-8-3.9-10.5-6.6l2.2-3.7c2.4,2.5,5.6,4.6,9.6,6.1c4,1.6,8.3,2.4,12.7,2.4
	c6.4,0,11.3-1.2,14.6-3.7c3.3-2.4,4.9-5.6,4.9-9.6c0-3-0.9-5.4-2.6-7.2c-1.7-1.8-3.9-3.2-6.5-4.2c-2.6-1-6.1-2-10.4-3
	c-5-1.2-8.9-2.4-11.9-3.6c-3-1.2-5.5-2.9-7.6-5.4c-2.1-2.4-3.1-5.7-3.1-9.7c0-3.3,0.9-6.3,2.6-9c1.7-2.7,4.4-4.9,8-6.5
	c3.6-1.6,8-2.4,13.4-2.4c3.7,0,7.4,0.5,11,1.6c3.6,1.1,6.7,2.6,9.4,4.4l-1.8,4c-2.7-1.9-5.7-3.3-8.9-4.2c-3.3-1-6.5-1.4-9.6-1.4
	c-6.2,0-11,1.3-14.2,3.8c-3.2,2.5-4.8,5.8-4.8,9.8c0,3,0.9,5.4,2.6,7.2c1.7,1.8,3.9,3.2,6.5,4.2c2.6,1,6.1,2,10.5,3.1
	c5,1.2,8.9,2.4,11.9,3.6c3,1.2,5.5,2.9,7.6,5.3c2.1,2.4,3.1,5.5,3.1,9.5c0,3.3-0.9,6.3-2.7,9c-1.8,2.7-4.5,4.9-8.2,6.5
	c-3.7,1.6-8.2,2.4-13.5,2.4C238.6,79.2,233.9,78.3,229.4,76.6z"/>
<path class="st0" d="M327.7,74.3v4.4H281V11.1h45.2v4.4h-40.3v26.7h36v4.3h-36v27.7H327.7z"/>
<path class="st0" d="M350.8,74.7c-5.3-3-9.5-7.1-12.6-12.3c-3.1-5.2-4.6-11-4.6-17.5c0-6.4,1.5-12.3,4.6-17.5
	c3.1-5.2,7.3-9.3,12.6-12.3c5.3-3,11.3-4.5,18-4.5c6.6,0,12.6,1.5,18,4.4c5.3,3,9.5,7.1,12.6,12.3s4.6,11.1,4.6,17.6
	c0,6.5-1.5,12.4-4.6,17.6c-3.1,5.2-7.3,9.3-12.6,12.3c-5.3,3-11.3,4.4-18,4.4C362.1,79.2,356.1,77.7,350.8,74.7z M384.1,70.8
	c4.6-2.6,8.2-6.1,10.8-10.7c2.6-4.5,4-9.6,4-15.2c0-5.6-1.3-10.7-4-15.2c-2.6-4.5-6.2-8.1-10.8-10.7c-4.6-2.6-9.7-3.9-15.4-3.9
	c-5.7,0-10.8,1.3-15.4,3.9c-4.6,2.6-8.2,6.1-10.9,10.7c-2.6,4.5-4,9.6-4,15.2c0,5.6,1.3,10.7,4,15.2c2.6,4.5,6.3,8.1,10.9,10.7
	c4.6,2.6,9.7,3.9,15.4,3.9C374.4,74.7,379.5,73.4,384.1,70.8z"/>
<polygon class="st0" points="60.3,16.2 79.8,8.9 72.6,28.5 70.6,24 32.1,62.4 20.5,62.4 64.8,18.2 "/>
<path class="st1" d="M85.3,60.4c2.1-5.2,3.2-10.8,3.2-16.5c0-5.7-1.1-11.2-3.2-16.5c-0.6-1.5-1.3-2.9-2-4.3l-4.4,11.9
	c3,11.7-0.1,24.6-9.2,33.7c-8.3,8.3-19.8,11.6-30.6,9.8c-1-0.2-2.7-0.6-2.7-0.6s1.5-0.1,5.6-1.6l14.4-14.4l1.7,4.1l7-18.3l-18.3,7
	l4.1,1.8L31.1,76.4c0,0,0,0,0,0l-6.4,6.4c0,0,0,0,0,0L22,85.5l6.8-0.8c5.1,2,10.4,3,15.9,3c5.7,0,11.2-1.1,16.5-3.2
	c5.4-2.2,10.3-5.4,14.5-9.6S83.1,65.8,85.3,60.4z"/>
<path class="st1" d="M39.2,30.6l1.8,4.1l7-18.3l-18.3,7l4.1,1.7L12.2,46.7c-1.5,4.1-1.6,5.6-1.6,5.6s-0.4-1.7-0.6-2.7
	C8.2,38.7,11.5,27.3,19.8,19c9.1-9.1,22-12.2,33.7-9.2l11.9-4.4c-1.4-0.7-2.8-1.4-4.3-2c-5.2-2.1-10.8-3.2-16.5-3.2
	c-5.7,0-11.2,1.1-16.5,3.2C22.8,5.6,18,8.8,13.8,13s-7.4,9-9.6,14.5C2.1,32.7,1,38.2,1,43.9c0,5.5,1,10.8,3,15.9l-0.8,6.8L5.9,64
	c0,0,0,0,0,0l6.4-6.4c0,0,0,0,0,0L39.2,30.6z"/>
</svg>
