<?xml version="1.0" encoding="utf-8"?>
<!-- Generator: Adobe Illustrator 22.0.0, SVG Export Plug-In . SVG Version: 6.00 Build 0)  -->
<svg version="1.1" id="Layer_1" xmlns="http://www.w3.org/2000/svg" xmlns:xlink="http://www.w3.org/1999/xlink" x="0px" y="0px"
	 viewBox="0 0 227.2 189" style="enable-background:new 0 0 227.2 189;" xml:space="preserve">
<style type="text/css">
	.st0{fill:#FFFFFF;}
	.st1{opacity:0.65;fill:#FFFFFF;enable-background:new    ;}
</style>
<g>
	<g>
		<path class="st0" d="M217,53.1l-2-2.8c-0.2,0-0.4,0-0.6,0h-2.3v2.8h-1.3v-9.2h3.6c1.2,0,2.1,0.3,2.8,0.9c0.7,0.6,1,1.4,1,2.4
			c0,0.7-0.2,1.3-0.5,1.8c-0.4,0.5-0.9,0.9-1.5,1.1l2.2,3.1L217,53.1L217,53.1z M216.3,48.7c0.4-0.4,0.7-0.9,0.7-1.5
			s-0.2-1.2-0.7-1.5c-0.4-0.4-1.1-0.5-1.9-0.5h-2.2v4.2h2.2C215.2,49.2,215.8,49,216.3,48.7z"/>
	</g>
	<g>
		<path class="st0" d="M214.5,61.6c-6.9,0-12.5-5.6-12.5-12.5s5.6-12.5,12.5-12.5S227,42.2,227,49.1S221.4,61.6,214.5,61.6z
			 M214.5,38.2c-6,0-10.8,4.9-10.8,10.8s4.9,10.8,10.8,10.8s10.8-4.9,10.8-10.8S220.4,38.2,214.5,38.2z"/>
	</g>
</g>
<polygon class="st0" points="129,35.4 171,19.8 155.4,61.9 151.1,52.2 68.6,134.7 43.6,134.7 138.6,39.7 "/>
<path class="st1" d="M182.8,130.4c4.6-11.3,6.9-23.1,6.9-35.3s-2.3-24.1-6.9-35.3c-1.3-3.1-2.7-6.2-4.3-9.2L169,76.2
	c6.4,25.1-0.1,52.8-19.7,72.4c-17.8,17.8-42.5,24.9-65.6,21.1c-2.2-0.5-5.8-1.3-5.8-1.3s3.2-0.2,11.9-3.4l30.9-30.9l3.7,8.7
	l15.1-39.2l-39.3,15l8.8,3.8l-42.5,42.5l0,0l-13.7,13.7l0,0l-5.8,5.8l14.7-1.7c10.9,4.3,22.4,6.4,34.2,6.4c12.2,0,24.1-2.3,35.3-6.9
	c11.7-4.7,22.1-11.7,31.1-20.6C171.1,152.5,178.1,142.1,182.8,130.4z"/>
<path class="st1" d="M83.7,66.5l3.8,8.8l15-39.3L63.2,51l8.7,3.7L25.7,101c-3.2,8.8-3.4,11.9-3.4,11.9s-0.9-3.7-1.3-5.8
	c-3.7-23.2,3.3-47.8,21.1-65.6c19.6-19.6,47.3-26.2,72.4-19.7l25.6-9.5c-3-1.6-6-3-9.2-4.3c-11.2-4.7-23.1-7-35.3-7
	S71.5,3.3,60.2,7.9c-11.7,4.7-22.1,11.7-31.1,20.6S13.3,47.9,8.5,59.6C4,70.8,1.7,82.7,1.7,94.9c0,11.8,2.2,23.3,6.4,34.2l-1.7,14.7
	l5.8-5.8l0,0l13.7-13.7l0,0L83.7,66.5z"/>
</svg>
