<?xml version="1.0" encoding="utf-8"?>
<!-- Generator: Adobe Illustrator 22.0.0, SVG Export Plug-In . SVG Version: 6.00 Build 0)  -->
<svg version="1.1" id="Layer_1" xmlns="http://www.w3.org/2000/svg" xmlns:xlink="http://www.w3.org/1999/xlink" x="0px" y="0px"
	 viewBox="0 0 500 198.7" style="enable-background:new 0 0 500 198.7;" xml:space="preserve">
<style type="text/css">
	.st0{fill:#FFFFFF;}
	.st1{opacity:0.5;}
	.st2{opacity:0.65;fill:#FFFFFF;}
</style>
<g>
	<g>
		<g>
			<path class="st0" d="M314.1,27.5l-1.1-1.5c-0.1,0-0.2,0-0.3,0h-1.2v1.5h-0.7v-4.9h1.9c0.6,0,1.1,0.2,1.5,0.5s0.5,0.7,0.5,1.2
				c0,0.4-0.1,0.7-0.3,1c-0.2,0.3-0.5,0.5-0.8,0.6l1.2,1.6H314.1z M313.8,25.2c0.2-0.2,0.3-0.5,0.3-0.8c0-0.4-0.1-0.6-0.3-0.8
				c-0.2-0.2-0.6-0.3-1-0.3h-1.2v2.2h1.2C313.2,25.4,313.5,25.4,313.8,25.2z"/>
		</g>
		<g>
			<path class="st0" d="M312.8,32c-3.6,0-6.6-3-6.6-6.6s3-6.6,6.6-6.6c3.6,0,6.6,3,6.6,6.6S316.4,32,312.8,32z M312.8,19.6
				c-3.2,0-5.7,2.6-5.7,5.7s2.6,5.7,5.7,5.7c3.2,0,5.7-2.6,5.7-5.7S316,19.6,312.8,19.6z"/>
		</g>
	</g>
</g>
<g>
	<g>
		<path class="st0" d="M9.6,168.1c-3-1.7-5.4-4-7.1-7c-1.7-3-2.6-6.2-2.6-9.9c0-3.6,0.9-6.9,2.6-9.9c1.7-3,4.1-5.3,7.1-7
			c3-1.7,6.4-2.5,10.2-2.5c3.8,0,7.1,0.8,10.2,2.5c3,1.7,5.4,4,7.1,6.9c1.7,3,2.6,6.3,2.6,9.9s-0.9,7-2.6,9.9
			c-1.7,3-4.1,5.3-7.1,6.9c-3,1.7-6.4,2.5-10.2,2.5C16,170.7,12.6,169.8,9.6,168.1z M28.5,165.9c2.6-1.5,4.6-3.5,6.1-6
			c1.5-2.6,2.2-5.4,2.2-8.6c0-3.2-0.7-6-2.2-8.6c-1.5-2.6-3.5-4.6-6.1-6c-2.6-1.5-5.5-2.2-8.7-2.2s-6.1,0.7-8.7,2.2
			c-2.6,1.5-4.7,3.5-6.1,6c-1.5,2.6-2.2,5.4-2.2,8.6c0,3.2,0.7,6,2.2,8.6c1.5,2.6,3.5,4.6,6.1,6c2.6,1.5,5.5,2.2,8.7,2.2
			S25.9,167.4,28.5,165.9z"/>
		<path class="st0" d="M78.7,132.1l-17,38.2h-2.8l-17-38.2h3.1l15.5,34.6l15.5-34.6H78.7z"/>
		<path class="st0" d="M111.3,167.9v2.5H84.9v-38.2h25.6v2.5H87.7v15.1h20.4v2.5H87.7v15.7H111.3z"/>
		<path class="st0" d="M148,170.4l-9.1-12.8c-1.3,0.2-2.6,0.3-3.7,0.3h-10.9v12.5h-2.8v-38.2h13.7c4.8,0,8.6,1.1,11.3,3.4
			c2.7,2.3,4.1,5.4,4.1,9.5c0,3-0.8,5.6-2.3,7.6c-1.5,2.1-3.8,3.5-6.6,4.3l9.6,13.4H148z M135.2,155.4c4.1,0,7.2-0.9,9.3-2.7
			c2.1-1.8,3.2-4.4,3.2-7.7c0-3.3-1.1-5.9-3.2-7.7c-2.2-1.8-5.3-2.7-9.3-2.7h-10.9v20.8H135.2z"/>
	</g>
</g>
<g>
	<g>
		<path class="st0" d="M158.3,132.1v7.2h11.4v31h8.9v-31h-3.7l14.2-7.2H158.3z M219.9,147.2h-17.4v-15.1h-8.9v38.2h8.9v-13.7l-3.7-2
			l3.7,0h17.4v15.7h8.9v-38.2h-8.9V147.2z M246.6,154.4h17.8v-6.9h-17.8v-6.2l-3.9-2.1l3.9,0h20.1v-7.1h-28.9v38.2h29.6v-7.1h-20.8
			V154.4z M303.5,132.1h-30.7v7.2h11.4v31h8.9v-31h-3.7L303.5,132.1z M334.3,134c-3.2-1.7-6.7-2.6-10.7-2.6s-7.5,0.9-10.7,2.6
			c-3.2,1.7-5.7,4.1-7.5,7.1c-1.8,3-2.7,6.4-2.7,10.1c0,3.8,0.9,7.1,2.7,10.1c1.8,3,4.3,5.4,7.5,7.1c3.2,1.7,6.8,2.6,10.7,2.6
			s7.5-0.9,10.7-2.6c3.2-1.7,5.7-4.1,7.5-7.1c1.8-3,2.7-6.4,2.7-10.1c0-3.8-0.9-7.1-2.7-10.1C340,138.1,337.5,135.8,334.3,134z
			 M334,157.6c-1,1.9-2.5,3.3-4.3,4.3c-1.8,1-3.9,1.6-6.1,1.6s-4.3-0.5-6.1-1.6c-1.8-1-3.3-2.5-4.3-4.3c-1-1.9-1.6-4-1.6-6.3
			c0-2.4,0.5-4.5,1.6-6.3c1-1.9,2.5-3.3,4.3-4.3c1.8-1,3.9-1.6,6.1-1.6s4.3,0.5,6.1,1.6c1.8,1,3.3,2.5,4.3,4.3c1,1.9,1.6,4,1.6,6.3
			C335.5,153.6,335,155.7,334,157.6z M382.3,138.6c-1.3-2.1-3.3-3.7-5.8-4.8c-2.5-1.1-5.4-1.7-8.8-1.7h-16.6v38.2h8.9v-8.5l-5-1.8
			l5-0.2h7.7c3.4,0,6.3-0.6,8.8-1.7c2.5-1.1,4.4-2.7,5.8-4.8c1.3-2.1,2-4.5,2-7.3C384.3,143.2,383.7,140.7,382.3,138.6z
			 M373.3,150.9c-1.4,1.1-3.4,1.7-6.1,1.7H360v-13.3h7.2c2.7,0,4.7,0.6,6.1,1.7c1.4,1.1,2.1,2.8,2.1,4.9
			C375.4,148.1,374.7,149.8,373.3,150.9z"/>
	</g>
</g>
<g class="st1">
	<g>
		<path class="st0" d="M8.5,184.5c0.8,0,1.6,0.1,2.2,0.3c0.6,0.2,1.1,0.5,1.5,0.8c0.4,0.4,0.7,0.8,0.9,1.3c0.2,0.5,0.3,1,0.3,1.7
			c0,0.6-0.1,1.2-0.3,1.7s-0.5,0.9-0.9,1.3c-0.4,0.4-0.9,0.7-1.5,0.9c-0.6,0.2-1.3,0.3-2.1,0.3H6.6v4.7H4.5v-12.9H8.5z M8.5,191.1
			c0.5,0,0.9-0.1,1.2-0.2c0.4-0.1,0.6-0.3,0.9-0.5c0.2-0.2,0.4-0.5,0.5-0.8c0.1-0.3,0.2-0.7,0.2-1c0-0.4-0.1-0.7-0.2-1
			c-0.1-0.3-0.3-0.6-0.5-0.8c-0.2-0.2-0.5-0.4-0.9-0.5c-0.4-0.1-0.8-0.2-1.2-0.2H6.6v4.9H8.5z"/>
		<path class="st0" d="M35.3,197.4h-1.9c-0.4,0-0.6-0.1-0.8-0.4l-3-4.3c-0.1-0.1-0.2-0.3-0.3-0.3c-0.1-0.1-0.3-0.1-0.5-0.1h-1.2v5.2
			h-2.1v-12.9h3.8c0.8,0,1.6,0.1,2.2,0.3c0.6,0.2,1.1,0.4,1.5,0.7c0.4,0.3,0.7,0.7,0.9,1.1s0.3,0.9,0.3,1.5c0,0.4-0.1,0.9-0.2,1.3
			s-0.3,0.7-0.6,1.1c-0.3,0.3-0.6,0.6-0.9,0.8c-0.4,0.2-0.8,0.4-1.3,0.5c0.3,0.2,0.5,0.4,0.7,0.7L35.3,197.4z M29.2,190.7
			c0.5,0,0.9-0.1,1.3-0.2c0.4-0.1,0.7-0.3,0.9-0.5s0.4-0.5,0.5-0.7c0.1-0.3,0.2-0.6,0.2-1c0-0.7-0.2-1.2-0.7-1.6
			c-0.5-0.4-1.2-0.6-2.1-0.6h-1.7v4.5H29.2z"/>
		<path class="st0" d="M58.8,191c0,1-0.2,1.8-0.5,2.6c-0.3,0.8-0.7,1.5-1.3,2.1c-0.6,0.6-1.2,1-2,1.4c-0.8,0.3-1.7,0.5-2.6,0.5
			c-1,0-1.8-0.2-2.6-0.5c-0.8-0.3-1.5-0.8-2-1.4c-0.6-0.6-1-1.3-1.3-2.1c-0.3-0.8-0.5-1.7-0.5-2.6c0-1,0.2-1.8,0.5-2.6
			c0.3-0.8,0.7-1.5,1.3-2.1c0.6-0.6,1.2-1,2-1.4c0.8-0.3,1.7-0.5,2.6-0.5c1,0,1.8,0.2,2.6,0.5c0.8,0.3,1.5,0.8,2,1.4
			c0.6,0.6,1,1.3,1.3,2.1C58.7,189.1,58.8,190,58.8,191z M56.7,191c0-0.7-0.1-1.4-0.3-2c-0.2-0.6-0.5-1.1-0.9-1.5
			c-0.4-0.4-0.8-0.7-1.4-0.9c-0.5-0.2-1.1-0.3-1.8-0.3c-0.7,0-1.2,0.1-1.8,0.3c-0.5,0.2-1,0.5-1.4,0.9c-0.4,0.4-0.7,0.9-0.9,1.5
			c-0.2,0.6-0.3,1.3-0.3,2c0,0.7,0.1,1.4,0.3,2c0.2,0.6,0.5,1.1,0.9,1.5c0.4,0.4,0.8,0.7,1.4,0.9c0.5,0.2,1.1,0.3,1.8,0.3
			c0.7,0,1.3-0.1,1.8-0.3c0.5-0.2,1-0.5,1.4-0.9c0.4-0.4,0.7-0.9,0.9-1.5C56.6,192.4,56.7,191.7,56.7,191z"/>
		<path class="st0" d="M73.2,186.2v4.1h5v1.7h-5v5.4h-2.1v-12.9h8v1.7H73.2z"/>
		<path class="st0" d="M99.3,195.7l0,1.7h-8v-12.9h8v1.7h-5.9v3.9h4.7v1.6h-4.7v4H99.3z"/>
		<path class="st0" d="M118.3,186.7c-0.1,0.1-0.1,0.2-0.2,0.2c-0.1,0.1-0.2,0.1-0.3,0.1c-0.1,0-0.2,0-0.4-0.1
			c-0.1-0.1-0.3-0.2-0.5-0.3c-0.2-0.1-0.4-0.2-0.7-0.3c-0.3-0.1-0.6-0.1-1-0.1c-0.4,0-0.7,0-0.9,0.1c-0.3,0.1-0.5,0.2-0.7,0.4
			c-0.2,0.2-0.3,0.4-0.4,0.6c-0.1,0.2-0.1,0.5-0.1,0.7c0,0.3,0.1,0.6,0.3,0.8c0.2,0.2,0.4,0.4,0.7,0.6c0.3,0.2,0.6,0.3,1,0.4
			c0.4,0.1,0.7,0.2,1.1,0.4c0.4,0.1,0.7,0.3,1.1,0.4c0.4,0.2,0.7,0.4,1,0.6c0.3,0.3,0.5,0.6,0.7,0.9c0.2,0.4,0.3,0.8,0.3,1.4
			c0,0.6-0.1,1.1-0.3,1.6c-0.2,0.5-0.5,0.9-0.9,1.3c-0.4,0.4-0.8,0.7-1.4,0.9c-0.5,0.2-1.2,0.3-1.9,0.3c-0.4,0-0.8,0-1.2-0.1
			c-0.4-0.1-0.8-0.2-1.1-0.3c-0.4-0.1-0.7-0.3-1-0.5c-0.3-0.2-0.6-0.4-0.8-0.7l0.6-1c0.1-0.1,0.1-0.1,0.2-0.2c0.1,0,0.2-0.1,0.3-0.1
			c0.1,0,0.3,0.1,0.5,0.2c0.2,0.1,0.4,0.3,0.6,0.4c0.2,0.2,0.5,0.3,0.9,0.4c0.3,0.1,0.7,0.2,1.2,0.2c0.8,0,1.3-0.2,1.8-0.6
			c0.4-0.4,0.6-0.9,0.6-1.5c0-0.4-0.1-0.7-0.3-0.9c-0.2-0.2-0.4-0.4-0.7-0.6c-0.3-0.2-0.6-0.3-1-0.4c-0.4-0.1-0.7-0.2-1.1-0.3
			c-0.4-0.1-0.7-0.3-1.1-0.4c-0.4-0.2-0.7-0.4-1-0.6c-0.3-0.3-0.5-0.6-0.7-1c-0.2-0.4-0.3-0.9-0.3-1.5c0-0.5,0.1-0.9,0.3-1.4
			c0.2-0.4,0.4-0.8,0.8-1.2c0.3-0.3,0.8-0.6,1.3-0.8c0.5-0.2,1.1-0.3,1.8-0.3c0.7,0,1.4,0.1,2,0.3s1.1,0.6,1.6,1L118.3,186.7z"/>
		<path class="st0" d="M138.1,186.7c-0.1,0.1-0.1,0.2-0.2,0.2c-0.1,0.1-0.2,0.1-0.3,0.1c-0.1,0-0.2,0-0.4-0.1
			c-0.1-0.1-0.3-0.2-0.5-0.3c-0.2-0.1-0.4-0.2-0.7-0.3c-0.3-0.1-0.6-0.1-1-0.1c-0.4,0-0.7,0-0.9,0.1c-0.3,0.1-0.5,0.2-0.7,0.4
			c-0.2,0.2-0.3,0.4-0.4,0.6c-0.1,0.2-0.1,0.5-0.1,0.7c0,0.3,0.1,0.6,0.3,0.8c0.2,0.2,0.4,0.4,0.7,0.6c0.3,0.2,0.6,0.3,1,0.4
			c0.4,0.1,0.7,0.2,1.1,0.4c0.4,0.1,0.7,0.3,1.1,0.4c0.4,0.2,0.7,0.4,1,0.6c0.3,0.3,0.5,0.6,0.7,0.9c0.2,0.4,0.3,0.8,0.3,1.4
			c0,0.6-0.1,1.1-0.3,1.6c-0.2,0.5-0.5,0.9-0.9,1.3c-0.4,0.4-0.8,0.7-1.4,0.9c-0.5,0.2-1.2,0.3-1.9,0.3c-0.4,0-0.8,0-1.2-0.1
			c-0.4-0.1-0.8-0.2-1.1-0.3c-0.4-0.1-0.7-0.3-1-0.5c-0.3-0.2-0.6-0.4-0.8-0.7l0.6-1c0.1-0.1,0.1-0.1,0.2-0.2c0.1,0,0.2-0.1,0.3-0.1
			c0.1,0,0.3,0.1,0.5,0.2c0.2,0.1,0.4,0.3,0.6,0.4c0.2,0.2,0.5,0.3,0.9,0.4c0.3,0.1,0.7,0.2,1.2,0.2c0.8,0,1.3-0.2,1.8-0.6
			c0.4-0.4,0.6-0.9,0.6-1.5c0-0.4-0.1-0.7-0.3-0.9c-0.2-0.2-0.4-0.4-0.7-0.6c-0.3-0.2-0.6-0.3-1-0.4c-0.4-0.1-0.7-0.2-1.1-0.3
			c-0.4-0.1-0.7-0.3-1.1-0.4c-0.4-0.2-0.7-0.4-1-0.6c-0.3-0.3-0.5-0.6-0.7-1c-0.2-0.4-0.3-0.9-0.3-1.5c0-0.5,0.1-0.9,0.3-1.4
			c0.2-0.4,0.4-0.8,0.8-1.2c0.3-0.3,0.8-0.6,1.3-0.8s1.1-0.3,1.8-0.3c0.7,0,1.4,0.1,2,0.3c0.6,0.2,1.1,0.6,1.6,1L138.1,186.7z"/>
		<path class="st0" d="M153.3,197.4h-2.1v-12.9h2.1V197.4z"/>
		<path class="st0" d="M178.4,191c0,1-0.2,1.8-0.5,2.6c-0.3,0.8-0.7,1.5-1.3,2.1c-0.6,0.6-1.2,1-2,1.4c-0.8,0.3-1.7,0.5-2.6,0.5
			c-1,0-1.8-0.2-2.6-0.5c-0.8-0.3-1.5-0.8-2-1.4c-0.6-0.6-1-1.3-1.3-2.1c-0.3-0.8-0.5-1.7-0.5-2.6c0-1,0.2-1.8,0.5-2.6
			c0.3-0.8,0.7-1.5,1.3-2.1c0.6-0.6,1.2-1,2-1.4c0.8-0.3,1.7-0.5,2.6-0.5c1,0,1.8,0.2,2.6,0.5c0.8,0.3,1.5,0.8,2,1.4
			c0.6,0.6,1,1.3,1.3,2.1C178.3,189.1,178.4,190,178.4,191z M176.3,191c0-0.7-0.1-1.4-0.3-2c-0.2-0.6-0.5-1.1-0.9-1.5
			c-0.4-0.4-0.8-0.7-1.4-0.9s-1.1-0.3-1.8-0.3c-0.7,0-1.2,0.1-1.8,0.3s-1,0.5-1.4,0.9c-0.4,0.4-0.7,0.9-0.9,1.5
			c-0.2,0.6-0.3,1.3-0.3,2c0,0.7,0.1,1.4,0.3,2c0.2,0.6,0.5,1.1,0.9,1.5c0.4,0.4,0.8,0.7,1.4,0.9s1.1,0.3,1.8,0.3
			c0.7,0,1.3-0.1,1.8-0.3s1-0.5,1.4-0.9c0.4-0.4,0.7-0.9,0.9-1.5C176.2,192.4,176.3,191.7,176.3,191z"/>
		<path class="st0" d="M201.4,184.5v12.9h-1.1c-0.2,0-0.3,0-0.4-0.1c-0.1-0.1-0.2-0.2-0.3-0.3l-7.1-9.1c0,0.2,0,0.3,0,0.5
			c0,0.2,0,0.3,0,0.5v8.5h-1.8v-12.9h1.1c0.1,0,0.2,0,0.2,0c0.1,0,0.1,0,0.2,0c0.1,0,0.1,0.1,0.2,0.1c0,0,0.1,0.1,0.2,0.2l7.1,9.1
			c0-0.2,0-0.4,0-0.5c0-0.2,0-0.3,0-0.5v-8.4H201.4z"/>
		<path class="st0" d="M225.3,197.4h-1.6c-0.2,0-0.3,0-0.4-0.1c-0.1-0.1-0.2-0.2-0.3-0.3l-1.1-2.8h-5.5l-1.1,2.8
			c0,0.1-0.1,0.2-0.3,0.3c-0.1,0.1-0.3,0.2-0.4,0.2H213l5.1-12.9h2.1L225.3,197.4z M221.3,192.6l-1.8-4.7c-0.1-0.4-0.3-0.8-0.4-1.4
			c-0.1,0.3-0.1,0.5-0.2,0.8c-0.1,0.2-0.1,0.4-0.2,0.6l-1.8,4.7H221.3z"/>
		<path class="st0" d="M244.3,195.7v1.8h-7.4v-12.9h2.1v11.1H244.3z"/>
		<path class="st0" d="M276.8,186.7c-0.1,0.1-0.1,0.2-0.2,0.2c-0.1,0.1-0.2,0.1-0.3,0.1c-0.1,0-0.2,0-0.4-0.1
			c-0.1-0.1-0.3-0.2-0.5-0.3c-0.2-0.1-0.4-0.2-0.7-0.3c-0.3-0.1-0.6-0.1-1-0.1c-0.4,0-0.7,0-0.9,0.1c-0.3,0.1-0.5,0.2-0.7,0.4
			c-0.2,0.2-0.3,0.4-0.4,0.6c-0.1,0.2-0.1,0.5-0.1,0.7c0,0.3,0.1,0.6,0.3,0.8c0.2,0.2,0.4,0.4,0.7,0.6c0.3,0.2,0.6,0.3,1,0.4
			c0.4,0.1,0.7,0.2,1.1,0.4c0.4,0.1,0.7,0.3,1.1,0.4c0.4,0.2,0.7,0.4,1,0.6c0.3,0.3,0.5,0.6,0.7,0.9c0.2,0.4,0.3,0.8,0.3,1.4
			c0,0.6-0.1,1.1-0.3,1.6c-0.2,0.5-0.5,0.9-0.9,1.3c-0.4,0.4-0.8,0.7-1.4,0.9c-0.5,0.2-1.2,0.3-1.9,0.3c-0.4,0-0.8,0-1.2-0.1
			c-0.4-0.1-0.8-0.2-1.1-0.3c-0.4-0.1-0.7-0.3-1-0.5c-0.3-0.2-0.6-0.4-0.8-0.7l0.6-1c0.1-0.1,0.1-0.1,0.2-0.2c0.1,0,0.2-0.1,0.3-0.1
			c0.1,0,0.3,0.1,0.5,0.2c0.2,0.1,0.4,0.3,0.6,0.4c0.2,0.2,0.5,0.3,0.9,0.4c0.3,0.1,0.7,0.2,1.2,0.2c0.8,0,1.3-0.2,1.8-0.6
			c0.4-0.4,0.6-0.9,0.6-1.5c0-0.4-0.1-0.7-0.3-0.9c-0.2-0.2-0.4-0.4-0.7-0.6c-0.3-0.2-0.6-0.3-1-0.4c-0.4-0.1-0.7-0.2-1.1-0.3
			c-0.4-0.1-0.7-0.3-1.1-0.4c-0.4-0.2-0.7-0.4-1-0.6c-0.3-0.3-0.5-0.6-0.7-1c-0.2-0.4-0.3-0.9-0.3-1.5c0-0.5,0.1-0.9,0.3-1.4
			c0.2-0.4,0.4-0.8,0.8-1.2s0.8-0.6,1.3-0.8c0.5-0.2,1.1-0.3,1.8-0.3c0.7,0,1.4,0.1,2,0.3c0.6,0.2,1.1,0.6,1.6,1L276.8,186.7z"/>
		<path class="st0" d="M297.9,195.7l0,1.7h-8v-12.9h8v1.7h-5.9v3.9h4.7v1.6h-4.7v4H297.9z"/>
		<path class="st0" d="M322,191c0,1-0.2,1.8-0.5,2.6c-0.3,0.8-0.7,1.5-1.3,2.1c-0.6,0.6-1.2,1-2,1.4c-0.8,0.3-1.7,0.5-2.6,0.5
			c-1,0-1.8-0.2-2.6-0.5c-0.8-0.3-1.5-0.8-2-1.4c-0.6-0.6-1-1.3-1.3-2.1c-0.3-0.8-0.5-1.7-0.5-2.6c0-1,0.2-1.8,0.5-2.6
			c0.3-0.8,0.7-1.5,1.3-2.1c0.6-0.6,1.2-1,2-1.4c0.8-0.3,1.7-0.5,2.6-0.5c1,0,1.8,0.2,2.6,0.5c0.8,0.3,1.5,0.8,2,1.4
			c0.6,0.6,1,1.3,1.3,2.1C321.8,189.1,322,190,322,191z M319.8,191c0-0.7-0.1-1.4-0.3-2c-0.2-0.6-0.5-1.1-0.9-1.5
			c-0.4-0.4-0.8-0.7-1.4-0.9s-1.1-0.3-1.8-0.3c-0.7,0-1.2,0.1-1.8,0.3s-1,0.5-1.4,0.9c-0.4,0.4-0.7,0.9-0.9,1.5
			c-0.2,0.6-0.3,1.3-0.3,2c0,0.7,0.1,1.4,0.3,2c0.2,0.6,0.5,1.1,0.9,1.5c0.4,0.4,0.8,0.7,1.4,0.9s1.1,0.3,1.8,0.3
			c0.7,0,1.3-0.1,1.8-0.3s1-0.5,1.4-0.9c0.4-0.4,0.7-0.9,0.9-1.5C319.7,192.4,319.8,191.7,319.8,191z"/>
		<path class="st0" d="M355.5,186.7c-0.1,0.1-0.1,0.2-0.2,0.2c-0.1,0.1-0.2,0.1-0.3,0.1c-0.1,0-0.2,0-0.4-0.1
			c-0.1-0.1-0.3-0.2-0.5-0.3c-0.2-0.1-0.4-0.2-0.7-0.3c-0.3-0.1-0.6-0.1-1-0.1c-0.4,0-0.7,0-0.9,0.1c-0.3,0.1-0.5,0.2-0.7,0.4
			c-0.2,0.2-0.3,0.4-0.4,0.6c-0.1,0.2-0.1,0.5-0.1,0.7c0,0.3,0.1,0.6,0.3,0.8c0.2,0.2,0.4,0.4,0.7,0.6c0.3,0.2,0.6,0.3,1,0.4
			c0.4,0.1,0.7,0.2,1.1,0.4c0.4,0.1,0.7,0.3,1.1,0.4c0.4,0.2,0.7,0.4,1,0.6c0.3,0.3,0.5,0.6,0.7,0.9c0.2,0.4,0.3,0.8,0.3,1.4
			c0,0.6-0.1,1.1-0.3,1.6c-0.2,0.5-0.5,0.9-0.9,1.3c-0.4,0.4-0.8,0.7-1.4,0.9c-0.5,0.2-1.2,0.3-1.9,0.3c-0.4,0-0.8,0-1.2-0.1
			c-0.4-0.1-0.8-0.2-1.1-0.3c-0.4-0.1-0.7-0.3-1-0.5c-0.3-0.2-0.6-0.4-0.8-0.7l0.6-1c0.1-0.1,0.1-0.1,0.2-0.2c0.1,0,0.2-0.1,0.3-0.1
			c0.1,0,0.3,0.1,0.5,0.2c0.2,0.1,0.4,0.3,0.6,0.4c0.2,0.2,0.5,0.3,0.9,0.4c0.3,0.1,0.7,0.2,1.2,0.2c0.8,0,1.3-0.2,1.8-0.6
			c0.4-0.4,0.6-0.9,0.6-1.5c0-0.4-0.1-0.7-0.3-0.9c-0.2-0.2-0.4-0.4-0.7-0.6c-0.3-0.2-0.6-0.3-1-0.4c-0.4-0.1-0.7-0.2-1.1-0.3
			c-0.4-0.1-0.7-0.3-1.1-0.4c-0.4-0.2-0.7-0.4-1-0.6c-0.3-0.3-0.5-0.6-0.7-1c-0.2-0.4-0.3-0.9-0.3-1.5c0-0.5,0.1-0.9,0.3-1.4
			c0.2-0.4,0.4-0.8,0.8-1.2s0.8-0.6,1.3-0.8c0.5-0.2,1.1-0.3,1.8-0.3c0.7,0,1.4,0.1,2,0.3c0.6,0.2,1.1,0.6,1.6,1L355.5,186.7z"/>
		<path class="st0" d="M376.6,195.7l0,1.7h-8v-12.9h8v1.7h-5.9v3.9h4.7v1.6h-4.7v4H376.6z"/>
		<path class="st0" d="M398.7,197.4h-1.9c-0.4,0-0.6-0.1-0.8-0.4l-3-4.3c-0.1-0.1-0.2-0.3-0.3-0.3c-0.1-0.1-0.3-0.1-0.5-0.1H391v5.2
			h-2.1v-12.9h3.8c0.8,0,1.6,0.1,2.2,0.3c0.6,0.2,1.1,0.4,1.5,0.7c0.4,0.3,0.7,0.7,0.9,1.1c0.2,0.4,0.3,0.9,0.3,1.5
			c0,0.4-0.1,0.9-0.2,1.3c-0.1,0.4-0.3,0.7-0.6,1.1c-0.3,0.3-0.6,0.6-0.9,0.8s-0.8,0.4-1.3,0.5c0.3,0.2,0.5,0.4,0.7,0.7L398.7,197.4
			z M392.6,190.7c0.5,0,0.9-0.1,1.3-0.2c0.4-0.1,0.7-0.3,0.9-0.5c0.2-0.2,0.4-0.5,0.5-0.7c0.1-0.3,0.2-0.6,0.2-1
			c0-0.7-0.2-1.2-0.7-1.6c-0.5-0.4-1.2-0.6-2.1-0.6H391v4.5H392.6z"/>
		<path class="st0" d="M420.7,184.5l-5.2,12.9h-1.9l-5.2-12.9h1.7c0.2,0,0.3,0,0.4,0.1c0.1,0.1,0.2,0.2,0.3,0.3l3.3,8.4
			c0.2,0.5,0.3,1,0.5,1.6c0.1-0.3,0.1-0.6,0.2-0.9c0.1-0.3,0.2-0.5,0.2-0.8l3.3-8.4c0-0.1,0.1-0.2,0.3-0.3c0.1-0.1,0.3-0.2,0.4-0.2
			H420.7z"/>
		<path class="st0" d="M434.3,197.4h-2.1v-12.9h2.1V197.4z"/>
		<path class="st0" d="M456.3,194.5c0.1,0,0.2,0,0.3,0.1l0.8,0.9c-0.5,0.6-1.2,1.1-1.9,1.5c-0.8,0.3-1.7,0.5-2.7,0.5
			c-0.9,0-1.8-0.2-2.6-0.5c-0.8-0.3-1.4-0.8-1.9-1.4c-0.5-0.6-1-1.3-1.2-2.1c-0.3-0.8-0.4-1.7-0.4-2.7c0-1,0.2-1.9,0.5-2.7
			c0.3-0.8,0.7-1.5,1.3-2.1c0.6-0.6,1.2-1,2-1.4c0.8-0.3,1.6-0.5,2.6-0.5c0.9,0,1.8,0.2,2.5,0.5c0.7,0.3,1.3,0.7,1.9,1.2l-0.7,1
			c0,0.1-0.1,0.1-0.2,0.2c-0.1,0-0.2,0.1-0.3,0.1c-0.1,0-0.3-0.1-0.4-0.2s-0.3-0.2-0.6-0.4c-0.2-0.1-0.5-0.3-0.9-0.4
			c-0.4-0.1-0.8-0.2-1.3-0.2c-0.6,0-1.2,0.1-1.7,0.3c-0.5,0.2-1,0.5-1.3,0.9c-0.4,0.4-0.7,0.9-0.9,1.5c-0.2,0.6-0.3,1.3-0.3,2
			c0,0.8,0.1,1.4,0.3,2c0.2,0.6,0.5,1.1,0.9,1.5c0.4,0.4,0.8,0.7,1.3,0.9c0.5,0.2,1.1,0.3,1.6,0.3c0.4,0,0.7,0,1-0.1
			c0.3,0,0.5-0.1,0.8-0.2c0.2-0.1,0.5-0.2,0.7-0.3c0.2-0.1,0.4-0.3,0.6-0.5C456.1,194.6,456.2,194.5,456.3,194.5z"/>
		<path class="st0" d="M477.3,195.7l0,1.7h-8v-12.9h8v1.7h-5.9v3.9h4.7v1.6h-4.7v4H477.3z"/>
		<path class="st0" d="M496.4,186.7c-0.1,0.1-0.1,0.2-0.2,0.2c-0.1,0.1-0.2,0.1-0.3,0.1c-0.1,0-0.2,0-0.4-0.1
			c-0.1-0.1-0.3-0.2-0.5-0.3c-0.2-0.1-0.4-0.2-0.7-0.3c-0.3-0.1-0.6-0.1-1-0.1c-0.4,0-0.7,0-0.9,0.1c-0.3,0.1-0.5,0.2-0.7,0.4
			c-0.2,0.2-0.3,0.4-0.4,0.6c-0.1,0.2-0.1,0.5-0.1,0.7c0,0.3,0.1,0.6,0.3,0.8c0.2,0.2,0.4,0.4,0.7,0.6c0.3,0.2,0.6,0.3,1,0.4
			c0.4,0.1,0.7,0.2,1.1,0.4c0.4,0.1,0.7,0.3,1.1,0.4c0.4,0.2,0.7,0.4,1,0.6c0.3,0.3,0.5,0.6,0.7,0.9c0.2,0.4,0.3,0.8,0.3,1.4
			c0,0.6-0.1,1.1-0.3,1.6c-0.2,0.5-0.5,0.9-0.9,1.3c-0.4,0.4-0.8,0.7-1.4,0.9c-0.5,0.2-1.2,0.3-1.9,0.3c-0.4,0-0.8,0-1.2-0.1
			c-0.4-0.1-0.8-0.2-1.1-0.3c-0.4-0.1-0.7-0.3-1-0.5c-0.3-0.2-0.6-0.4-0.8-0.7l0.6-1c0.1-0.1,0.1-0.1,0.2-0.2c0.1,0,0.2-0.1,0.3-0.1
			c0.1,0,0.3,0.1,0.5,0.2c0.2,0.1,0.4,0.3,0.6,0.4c0.2,0.2,0.5,0.3,0.9,0.4c0.3,0.1,0.7,0.2,1.2,0.2c0.8,0,1.3-0.2,1.8-0.6
			c0.4-0.4,0.6-0.9,0.6-1.5c0-0.4-0.1-0.7-0.3-0.9c-0.2-0.2-0.4-0.4-0.7-0.6c-0.3-0.2-0.6-0.3-1-0.4c-0.4-0.1-0.7-0.2-1.1-0.3
			c-0.4-0.1-0.7-0.3-1.1-0.4c-0.4-0.2-0.7-0.4-1-0.6c-0.3-0.3-0.5-0.6-0.7-1c-0.2-0.4-0.3-0.9-0.3-1.5c0-0.5,0.1-0.9,0.3-1.4
			c0.2-0.4,0.4-0.8,0.8-1.2s0.8-0.6,1.3-0.8s1.1-0.3,1.8-0.3c0.7,0,1.4,0.1,2,0.3c0.6,0.2,1.1,0.6,1.6,1L496.4,186.7z"/>
	</g>
</g>
<path class="st0" d="M395.5,169.1c-2.6-1-4.7-2.3-6.1-3.9l1.3-2.2c1.4,1.5,3.3,2.7,5.6,3.6c2.4,0.9,4.8,1.4,7.4,1.4
	c3.8,0,6.6-0.7,8.5-2.2c1.9-1.4,2.9-3.3,2.9-5.6c0-1.8-0.5-3.2-1.5-4.2c-1-1.1-2.3-1.9-3.8-2.4c-1.5-0.6-3.5-1.2-6.1-1.8
	c-2.9-0.7-5.2-1.4-7-2.1c-1.8-0.7-3.2-1.7-4.5-3.1c-1.2-1.4-1.8-3.3-1.8-5.7c0-1.9,0.5-3.7,1.5-5.3c1-1.6,2.6-2.9,4.7-3.8
	c2.1-0.9,4.7-1.4,7.8-1.4c2.2,0,4.3,0.3,6.5,1c2.1,0.6,3.9,1.5,5.5,2.6l-1.1,2.3c-1.6-1.1-3.3-1.9-5.2-2.5s-3.8-0.8-5.6-0.8
	c-3.7,0-6.4,0.7-8.3,2.2c-1.9,1.5-2.8,3.4-2.8,5.7c0,1.8,0.5,3.2,1.5,4.2c1,1.1,2.3,1.9,3.8,2.4c1.5,0.6,3.6,1.2,6.2,1.8
	c2.9,0.7,5.2,1.4,7,2.1c1.7,0.7,3.2,1.7,4.4,3.1c1.2,1.4,1.8,3.2,1.8,5.6c0,1.9-0.5,3.7-1.6,5.3c-1,1.6-2.6,2.8-4.8,3.8
	c-2.2,0.9-4.8,1.4-7.9,1.4C400.9,170.6,398.1,170.1,395.5,169.1z"/>
<path class="st0" d="M454.2,167.7v2.6h-27.3v-39.6h26.5v2.6h-23.6v15.6h21.1v2.5h-21.1v16.2H454.2z"/>
<path class="st0" d="M468.9,168c-3.1-1.8-5.6-4.2-7.4-7.2c-1.8-3.1-2.7-6.5-2.7-10.2c0-3.8,0.9-7.2,2.7-10.2
	c1.8-3.1,4.3-5.5,7.4-7.2c3.1-1.8,6.6-2.6,10.5-2.6c3.9,0,7.4,0.9,10.5,2.6c3.1,1.7,5.6,4.1,7.4,7.2c1.8,3.1,2.7,6.5,2.7,10.3
	c0,3.8-0.9,7.2-2.7,10.3c-1.8,3.1-4.3,5.5-7.4,7.2c-3.1,1.7-6.6,2.6-10.5,2.6C475.5,170.6,472,169.7,468.9,168z M488.4,165.7
	c2.7-1.5,4.8-3.6,6.3-6.3c1.5-2.7,2.3-5.6,2.3-8.9c0-3.3-0.8-6.3-2.3-8.9c-1.5-2.7-3.7-4.7-6.3-6.3c-2.7-1.5-5.7-2.3-9-2.3
	c-3.3,0-6.3,0.8-9,2.3c-2.7,1.5-4.8,3.6-6.4,6.3c-1.5,2.7-2.3,5.6-2.3,8.9c0,3.3,0.8,6.3,2.3,8.9c1.5,2.7,3.7,4.7,6.4,6.3
	c2.7,1.5,5.7,2.3,9,2.3C482.7,168,485.7,167.2,488.4,165.7z"/>
<polygon class="st0" points="267.6,18.2 289.8,9.9 281.6,32.1 279.3,27 235.7,70.7 222.5,70.7 272.7,20.4 "/>
<path class="st2" d="M296,68.4c2.4-5.9,3.6-12.2,3.6-18.7c0-6.4-1.2-12.7-3.6-18.7c-0.7-1.7-1.4-3.3-2.3-4.8l-5,13.5
	c3.4,13.3-0.1,27.9-10.4,38.3c-9.4,9.4-22.4,13.2-34.7,11.2c-1.1-0.2-3.1-0.7-3.1-0.7s1.7-0.1,6.3-1.8l16.4-16.4l1.9,4.6l8-20.7
	l-20.8,7.9l4.7,2l-22.5,22.5c0,0,0,0,0,0l-7.3,7.3c0,0,0,0,0,0l-3,3l7.8-0.9c5.8,2.3,11.9,3.4,18.1,3.4c6.4,0,12.7-1.2,18.7-3.6
	c6.2-2.5,11.7-6.2,16.4-10.9C289.9,80.1,293.5,74.6,296,68.4z"/>
<path class="st2" d="M243.7,34.6l2,4.7l7.9-20.8l-20.7,8l4.6,1.9L213,52.8c-1.7,4.6-1.8,6.3-1.8,6.3s-0.5-1.9-0.7-3.1
	c-2-12.3,1.7-25.3,11.2-34.7c10.4-10.4,25-13.8,38.3-10.4l13.5-5c-1.6-0.8-3.2-1.6-4.8-2.3C262.7,1.2,256.4,0,249.9,0
	c-6.4,0-12.7,1.2-18.7,3.6c-6.2,2.5-11.7,6.2-16.4,10.9c-4.7,4.7-8.4,10.3-10.9,16.4c-2.4,5.9-3.6,12.2-3.6,18.7
	c0,6.2,1.1,12.3,3.4,18.1l-0.9,7.8l3-3c0,0,0,0,0,0l7.3-7.3c0,0,0,0,0,0L243.7,34.6z"/>
</svg>
