<svg version="1.1" id="Layer_1" xmlns="http://www.w3.org/2000/svg" x="0" y="0" viewBox="0 0 418.3 87.8" xml:space="preserve"><style type="text/css">.st0,.st1{fill:#22325e}.st1{opacity:.65;enable-background:new}</style><path class="st0" d="M119.1 23.9H98.9V11.1h54.6l-25.3 12.8h6.6v55.3H119l.1-55.3zm62.1 0H161V11.1h54.6l-25.3 12.8h6.6v55.3h-15.8l.1-55.3zM412 13.8l-1.2-1.7h-1.7v1.7h-.8V8.3h2.2c.7 0 1.3.2 1.7.5s.6.8.6 1.4c0 .4-.1.8-.3 1.1-.2.3-.5.5-.9.7l1.3 1.9-.9-.1zm-.4-2.7c.3-.2.4-.5.4-.9s-.1-.7-.4-.9-.6-.3-1.1-.3h-1.3v2.5h1.3c.4-.1.8-.2 1.1-.4z"/><path class="st0" d="M410.5 18.9c-4.1 0-7.5-3.4-7.5-7.5s3.4-7.5 7.5-7.5 7.5 3.4 7.5 7.5-3.4 7.5-7.5 7.5zm0-14c-3.6 0-6.5 2.9-6.5 6.5s2.9 6.5 6.5 6.5 6.5-2.9 6.5-6.5-2.9-6.5-6.5-6.5zM229.4 76.6c-4.5-1.7-8-3.9-10.5-6.6l2.2-3.7c2.4 2.5 5.6 4.6 9.6 6.1 4 1.6 8.3 2.4 12.7 2.4 6.4 0 11.3-1.2 14.6-3.7 3.3-2.4 4.9-5.6 4.9-9.6 0-3-.9-5.4-2.6-7.2s-3.9-3.2-6.5-4.2-6.1-2-10.4-3c-5-1.2-8.9-2.4-11.9-3.6-3-1.2-5.5-2.9-7.6-5.4-2.1-2.4-3.1-5.7-3.1-9.7 0-3.3.9-6.3 2.6-9 1.7-2.7 4.4-4.9 8-6.5s8-2.4 13.4-2.4c3.7 0 7.4.5 11 1.6s6.7 2.6 9.4 4.4l-1.8 4c-2.7-1.9-5.7-3.3-8.9-4.2-3.3-1-6.5-1.4-9.6-1.4-6.2 0-11 1.3-14.2 3.8s-4.8 5.8-4.8 9.8c0 3 .9 5.4 2.6 7.2 1.7 1.8 3.9 3.2 6.5 4.2s6.1 2 10.5 3.1c5 1.2 8.9 2.4 11.9 3.6 3 1.2 5.5 2.9 7.6 5.3 2.1 2.4 3.1 5.5 3.1 9.5 0 3.3-.9 6.3-2.7 9-1.8 2.7-4.5 4.9-8.2 6.5-3.7 1.6-8.2 2.4-13.5 2.4-5.1-.1-9.8-1-14.3-2.7zm98.3-2.3v4.4H281V11.1h45.2v4.4h-40.3v26.7h36v4.3h-36v27.7h41.8v.1zm23.1.4c-5.3-3-9.5-7.1-12.6-12.3s-4.6-11-4.6-17.5c0-6.4 1.5-12.3 4.6-17.5s7.3-9.3 12.6-12.3 11.3-4.5 18-4.5c6.6 0 12.6 1.5 18 4.4 5.3 3 9.5 7.1 12.6 12.3s4.6 11.1 4.6 17.6-1.5 12.4-4.6 17.6-7.3 9.3-12.6 12.3-11.3 4.4-18 4.4c-6.7 0-12.7-1.5-18-4.5zm33.3-3.9c4.6-2.6 8.2-6.1 10.8-10.7 2.6-4.5 4-9.6 4-15.2s-1.3-10.7-4-15.2c-2.6-4.5-6.2-8.1-10.8-10.7-4.6-2.6-9.7-3.9-15.4-3.9-5.7 0-10.8 1.3-15.4 3.9s-8.2 6.1-10.9 10.7c-2.6 4.5-4 9.6-4 15.2s1.3 10.7 4 15.2c2.6 4.5 6.3 8.1 10.9 10.7s9.7 3.9 15.4 3.9c5.7 0 10.8-1.3 15.4-3.9zM60.3 16.2l19.5-7.3-7.2 19.6-2-4.5-38.5 38.4H20.5l44.3-44.2z"/><path class="st1" d="M85.3 60.4c2.1-5.2 3.2-10.8 3.2-16.5s-1.1-11.2-3.2-16.5c-.6-1.5-1.3-2.9-2-4.3L78.9 35c3 11.7-.1 24.6-9.2 33.7-8.3 8.3-19.8 11.6-30.6 9.8-1-.2-2.7-.6-2.7-.6s1.5-.1 5.6-1.6l14.4-14.4 1.7 4.1 7-18.3-18.3 7 4.1 1.8-19.8 19.9-6.4 6.4-2.7 2.7 6.8-.8c5.1 2 10.4 3 15.9 3 5.7 0 11.2-1.1 16.5-3.2 5.4-2.2 10.3-5.4 14.5-9.6s7.4-9.1 9.6-14.5zM39.2 30.6l1.8 4.1 7-18.3-18.3 7 4.1 1.7-21.6 21.6c-1.5 4.1-1.6 5.6-1.6 5.6s-.4-1.7-.6-2.7C8.2 38.7 11.5 27.3 19.8 19c9.1-9.1 22-12.2 33.7-9.2l11.9-4.4c-1.4-.7-2.8-1.4-4.3-2C55.9 1.3 50.3.2 44.6.2S33.4 1.3 28.1 3.4C22.8 5.6 18 8.8 13.8 13s-7.4 9-9.6 14.5C2.1 32.7 1 38.2 1 43.9c0 5.5 1 10.8 3 15.9l-.8 6.8L5.9 64l6.4-6.4 26.9-27z"/></svg>