<?xml version="1.0" encoding="utf-8"?>
<!-- Generator: Adobe Illustrator 22.0.0, SVG Export Plug-In . SVG Version: 6.00 Build 0)  -->
<svg version="1.1" id="Layer_1" xmlns="http://www.w3.org/2000/svg" xmlns:xlink="http://www.w3.org/1999/xlink" x="0px" y="0px"
	 viewBox="0 0 138.7 18.7" style="enable-background:new 0 0 138.7 18.7;" xml:space="preserve">
<style type="text/css">
	.st0{fill:#FFFFFF;}
	.st1{opacity:0.65;fill:#FFFFFF;}
</style>
<g>
	<g>
		<path class="st0" d="M58.3,2.3v1.6h2.5v7h2v-7H62l3.2-1.6H58.3z M72.1,5.7h-3.9V2.3h-2v8.6h2V7.8l-0.8-0.4l0.8,0h3.9v3.5h2V2.3h-2
			V5.7z M78.1,7.3h4V5.7h-4V4.3l-0.9-0.5l0.9,0h4.5V2.3h-6.5v8.6h6.6V9.3h-4.7V7.3z M90.9,2.3H84v1.6h2.5v7h2v-7h-0.8L90.9,2.3z
			 M97.8,2.7c-0.7-0.4-1.5-0.6-2.4-0.6S93.7,2.3,93,2.7c-0.7,0.4-1.3,0.9-1.7,1.6c-0.4,0.7-0.6,1.4-0.6,2.3c0,0.8,0.2,1.6,0.6,2.3
			c0.4,0.7,1,1.2,1.7,1.6c0.7,0.4,1.5,0.6,2.4,0.6s1.7-0.2,2.4-0.6c0.7-0.4,1.3-0.9,1.7-1.6c0.4-0.7,0.6-1.4,0.6-2.3
			c0-0.8-0.2-1.6-0.6-2.3C99.1,3.6,98.5,3.1,97.8,2.7z M97.7,8c-0.2,0.4-0.6,0.7-1,1c-0.4,0.2-0.9,0.3-1.4,0.3c-0.5,0-1-0.1-1.4-0.3
			c-0.4-0.2-0.7-0.6-1-1c-0.2-0.4-0.3-0.9-0.3-1.4c0-0.5,0.1-1,0.3-1.4c0.2-0.4,0.6-0.7,1-1c0.4-0.2,0.9-0.3,1.4-0.3
			c0.5,0,1,0.1,1.4,0.3c0.4,0.2,0.7,0.6,1,1C98,5.6,98.1,6,98.1,6.6C98.1,7.1,98,7.6,97.7,8z M108.6,3.7c-0.3-0.5-0.7-0.8-1.3-1.1
			c-0.6-0.3-1.2-0.4-2-0.4h-3.7v8.6h2V8.9l-1.1-0.4l1.1-0.1h1.7c0.8,0,1.4-0.1,2-0.4c0.6-0.2,1-0.6,1.3-1.1c0.3-0.5,0.5-1,0.5-1.6
			C109,4.7,108.9,4.2,108.6,3.7z M106.6,6.5c-0.3,0.3-0.8,0.4-1.4,0.4h-1.6v-3h1.6c0.6,0,1.1,0.1,1.4,0.4c0.3,0.3,0.5,0.6,0.5,1.1
			C107,5.9,106.9,6.2,106.6,6.5z"/>
	</g>
</g>
<g>
	<g>
		<path class="st0" d="M24.7,14c0.2,0,0.4,0,0.5,0.1s0.3,0.1,0.3,0.2c0.1,0.1,0.2,0.2,0.2,0.3c0,0.1,0.1,0.2,0.1,0.4
			c0,0.1,0,0.3-0.1,0.4c0,0.1-0.1,0.2-0.2,0.3c-0.1,0.1-0.2,0.1-0.3,0.2c-0.1,0-0.3,0.1-0.5,0.1h-0.4v1h-0.5V14H24.7z M24.7,15.5
			c0.1,0,0.2,0,0.3,0c0.1,0,0.1-0.1,0.2-0.1c0.1,0,0.1-0.1,0.1-0.2c0-0.1,0-0.1,0-0.2c0-0.1,0-0.2,0-0.2c0-0.1-0.1-0.1-0.1-0.2
			c-0.1,0-0.1-0.1-0.2-0.1c-0.1,0-0.2,0-0.3,0h-0.4v1.1H24.7z"/>
		<path class="st0" d="M30.7,16.9h-0.4c-0.1,0-0.1,0-0.2-0.1l-0.7-1c0,0,0-0.1-0.1-0.1c0,0-0.1,0-0.1,0H29v1.2h-0.5V14h0.9
			c0.2,0,0.4,0,0.5,0.1c0.1,0,0.3,0.1,0.3,0.2c0.1,0.1,0.2,0.2,0.2,0.3c0,0.1,0.1,0.2,0.1,0.3c0,0.1,0,0.2,0,0.3s-0.1,0.2-0.1,0.2
			c-0.1,0.1-0.1,0.1-0.2,0.2c-0.1,0.1-0.2,0.1-0.3,0.1c0.1,0,0.1,0.1,0.1,0.1L30.7,16.9z M29.3,15.4c0.1,0,0.2,0,0.3,0
			c0.1,0,0.1-0.1,0.2-0.1c0.1,0,0.1-0.1,0.1-0.2c0-0.1,0-0.1,0-0.2c0-0.2-0.1-0.3-0.2-0.4c-0.1-0.1-0.3-0.1-0.5-0.1H29v1H29.3z"/>
		<path class="st0" d="M36,15.5c0,0.2,0,0.4-0.1,0.6c-0.1,0.2-0.2,0.3-0.3,0.5c-0.1,0.1-0.3,0.2-0.5,0.3c-0.2,0.1-0.4,0.1-0.6,0.1
			c-0.2,0-0.4,0-0.6-0.1c-0.2-0.1-0.3-0.2-0.5-0.3c-0.1-0.1-0.2-0.3-0.3-0.5c-0.1-0.2-0.1-0.4-0.1-0.6c0-0.2,0-0.4,0.1-0.6
			c0.1-0.2,0.2-0.3,0.3-0.5c0.1-0.1,0.3-0.2,0.5-0.3c0.2-0.1,0.4-0.1,0.6-0.1c0.2,0,0.4,0,0.6,0.1c0.2,0.1,0.3,0.2,0.5,0.3
			c0.1,0.1,0.2,0.3,0.3,0.5C35.9,15.1,36,15.3,36,15.5z M35.5,15.5c0-0.2,0-0.3-0.1-0.4c0-0.1-0.1-0.2-0.2-0.3
			c-0.1-0.1-0.2-0.2-0.3-0.2c-0.1,0-0.3-0.1-0.4-0.1c-0.1,0-0.3,0-0.4,0.1c-0.1,0-0.2,0.1-0.3,0.2c-0.1,0.1-0.1,0.2-0.2,0.3
			c0,0.1-0.1,0.3-0.1,0.4c0,0.2,0,0.3,0.1,0.4c0,0.1,0.1,0.2,0.2,0.3c0.1,0.1,0.2,0.2,0.3,0.2c0.1,0,0.3,0.1,0.4,0.1
			c0.1,0,0.3,0,0.4-0.1s0.2-0.1,0.3-0.2c0.1-0.1,0.1-0.2,0.2-0.3C35.5,15.8,35.5,15.6,35.5,15.5z"/>
		<path class="st0" d="M39.2,14.4v0.9h1.1v0.4h-1.1v1.2h-0.5V14h1.8v0.4H39.2z"/>
		<path class="st0" d="M45.1,16.5l0,0.4h-1.8V14h1.8v0.4h-1.3v0.9h1.1v0.4h-1.1v0.9H45.1z"/>
		<path class="st0" d="M49.3,14.5C49.3,14.5,49.3,14.6,49.3,14.5c-0.1,0.1-0.1,0.1-0.1,0.1c0,0-0.1,0-0.1,0c0,0-0.1,0-0.1-0.1
			c0,0-0.1-0.1-0.2-0.1c-0.1,0-0.1,0-0.2,0c-0.1,0-0.2,0-0.2,0c-0.1,0-0.1,0-0.2,0.1c0,0-0.1,0.1-0.1,0.1c0,0,0,0.1,0,0.2
			c0,0.1,0,0.1,0.1,0.2c0,0,0.1,0.1,0.2,0.1c0.1,0,0.1,0.1,0.2,0.1c0.1,0,0.2,0.1,0.3,0.1c0.1,0,0.2,0.1,0.3,0.1
			c0.1,0,0.2,0.1,0.2,0.1c0.1,0.1,0.1,0.1,0.2,0.2s0.1,0.2,0.1,0.3c0,0.1,0,0.2-0.1,0.4c0,0.1-0.1,0.2-0.2,0.3
			c-0.1,0.1-0.2,0.1-0.3,0.2c-0.1,0-0.3,0.1-0.4,0.1c-0.1,0-0.2,0-0.3,0c-0.1,0-0.2,0-0.3-0.1c-0.1,0-0.2-0.1-0.2-0.1
			c-0.1,0-0.1-0.1-0.2-0.2l0.1-0.2c0,0,0,0,0,0c0,0,0,0,0.1,0c0,0,0.1,0,0.1,0c0,0,0.1,0.1,0.1,0.1c0.1,0,0.1,0.1,0.2,0.1
			c0.1,0,0.2,0,0.3,0c0.2,0,0.3,0,0.4-0.1c0.1-0.1,0.1-0.2,0.1-0.3c0-0.1,0-0.1-0.1-0.2c0-0.1-0.1-0.1-0.2-0.1
			c-0.1,0-0.1-0.1-0.2-0.1c-0.1,0-0.2,0-0.2-0.1c-0.1,0-0.2-0.1-0.2-0.1c-0.1,0-0.2-0.1-0.2-0.1c-0.1-0.1-0.1-0.1-0.2-0.2
			c0-0.1-0.1-0.2-0.1-0.3c0-0.1,0-0.2,0.1-0.3c0-0.1,0.1-0.2,0.2-0.3c0.1-0.1,0.2-0.1,0.3-0.2c0.1,0,0.2-0.1,0.4-0.1
			c0.2,0,0.3,0,0.5,0.1c0.1,0.1,0.3,0.1,0.4,0.2L49.3,14.5z"/>
		<path class="st0" d="M53.8,14.5C53.7,14.5,53.7,14.6,53.8,14.5c-0.1,0.1-0.1,0.1-0.1,0.1c0,0-0.1,0-0.1,0c0,0-0.1,0-0.1-0.1
			c0,0-0.1-0.1-0.2-0.1c-0.1,0-0.1,0-0.2,0c-0.1,0-0.2,0-0.2,0c-0.1,0-0.1,0-0.2,0.1c0,0-0.1,0.1-0.1,0.1c0,0,0,0.1,0,0.2
			c0,0.1,0,0.1,0.1,0.2c0,0,0.1,0.1,0.2,0.1c0.1,0,0.1,0.1,0.2,0.1c0.1,0,0.2,0.1,0.3,0.1c0.1,0,0.2,0.1,0.3,0.1
			c0.1,0,0.2,0.1,0.2,0.1c0.1,0.1,0.1,0.1,0.2,0.2c0,0.1,0.1,0.2,0.1,0.3c0,0.1,0,0.2-0.1,0.4c0,0.1-0.1,0.2-0.2,0.3
			c-0.1,0.1-0.2,0.1-0.3,0.2c-0.1,0-0.3,0.1-0.4,0.1c-0.1,0-0.2,0-0.3,0c-0.1,0-0.2,0-0.3-0.1c-0.1,0-0.2-0.1-0.2-0.1
			c-0.1,0-0.1-0.1-0.2-0.2l0.1-0.2c0,0,0,0,0,0c0,0,0,0,0.1,0c0,0,0.1,0,0.1,0c0,0,0.1,0.1,0.1,0.1c0.1,0,0.1,0.1,0.2,0.1
			c0.1,0,0.2,0,0.3,0c0.2,0,0.3,0,0.4-0.1c0.1-0.1,0.1-0.2,0.1-0.3c0-0.1,0-0.1-0.1-0.2c0-0.1-0.1-0.1-0.2-0.1
			c-0.1,0-0.1-0.1-0.2-0.1c-0.1,0-0.2,0-0.2-0.1c-0.1,0-0.2-0.1-0.2-0.1c-0.1,0-0.2-0.1-0.2-0.1c-0.1-0.1-0.1-0.1-0.2-0.2
			c0-0.1-0.1-0.2-0.1-0.3c0-0.1,0-0.2,0.1-0.3c0-0.1,0.1-0.2,0.2-0.3c0.1-0.1,0.2-0.1,0.3-0.2c0.1,0,0.2-0.1,0.4-0.1
			c0.2,0,0.3,0,0.5,0.1c0.1,0.1,0.3,0.1,0.4,0.2L53.8,14.5z"/>
		<path class="st0" d="M57.2,16.9h-0.5V14h0.5V16.9z"/>
		<path class="st0" d="M62.8,15.5c0,0.2,0,0.4-0.1,0.6c-0.1,0.2-0.2,0.3-0.3,0.5c-0.1,0.1-0.3,0.2-0.5,0.3c-0.2,0.1-0.4,0.1-0.6,0.1
			c-0.2,0-0.4,0-0.6-0.1c-0.2-0.1-0.3-0.2-0.5-0.3c-0.1-0.1-0.2-0.3-0.3-0.5c-0.1-0.2-0.1-0.4-0.1-0.6c0-0.2,0-0.4,0.1-0.6
			c0.1-0.2,0.2-0.3,0.3-0.5c0.1-0.1,0.3-0.2,0.5-0.3C61,14,61.2,14,61.4,14c0.2,0,0.4,0,0.6,0.1c0.2,0.1,0.3,0.2,0.5,0.3
			c0.1,0.1,0.2,0.3,0.3,0.5C62.8,15.1,62.8,15.3,62.8,15.5z M62.3,15.5c0-0.2,0-0.3-0.1-0.4c0-0.1-0.1-0.2-0.2-0.3
			c-0.1-0.1-0.2-0.2-0.3-0.2c-0.1,0-0.3-0.1-0.4-0.1c-0.1,0-0.3,0-0.4,0.1c-0.1,0-0.2,0.1-0.3,0.2c-0.1,0.1-0.1,0.2-0.2,0.3
			c0,0.1-0.1,0.3-0.1,0.4c0,0.2,0,0.3,0.1,0.4c0,0.1,0.1,0.2,0.2,0.3c0.1,0.1,0.2,0.2,0.3,0.2s0.3,0.1,0.4,0.1c0.1,0,0.3,0,0.4-0.1
			s0.2-0.1,0.3-0.2c0.1-0.1,0.1-0.2,0.2-0.3C62.3,15.8,62.3,15.6,62.3,15.5z"/>
		<path class="st0" d="M68,14v2.9h-0.2c0,0-0.1,0-0.1,0c0,0,0,0-0.1-0.1l-1.6-2c0,0,0,0.1,0,0.1c0,0,0,0.1,0,0.1v1.9h-0.4V14h0.2
			c0,0,0,0,0.1,0c0,0,0,0,0,0c0,0,0,0,0,0s0,0,0,0l1.6,2c0,0,0-0.1,0-0.1c0,0,0-0.1,0-0.1V14H68z"/>
		<path class="st0" d="M73.3,16.9H73c0,0-0.1,0-0.1,0c0,0,0,0-0.1-0.1l-0.2-0.6h-1.2l-0.2,0.6c0,0,0,0.1-0.1,0.1c0,0-0.1,0-0.1,0
			h-0.4l1.1-2.9h0.5L73.3,16.9z M72.4,15.8L72,14.8c0-0.1-0.1-0.2-0.1-0.3c0,0.1,0,0.1,0,0.2c0,0.1,0,0.1,0,0.1l-0.4,1.1H72.4z"/>
		<path class="st0" d="M77.6,16.5v0.4h-1.7V14h0.5v2.5H77.6z"/>
		<path class="st0" d="M84.9,14.5C84.9,14.5,84.9,14.6,84.9,14.5c-0.1,0.1-0.1,0.1-0.1,0.1c0,0-0.1,0-0.1,0c0,0-0.1,0-0.1-0.1
			c0,0-0.1-0.1-0.2-0.1c-0.1,0-0.1,0-0.2,0c-0.1,0-0.2,0-0.2,0c-0.1,0-0.1,0-0.2,0.1c0,0-0.1,0.1-0.1,0.1c0,0,0,0.1,0,0.2
			c0,0.1,0,0.1,0.1,0.2c0,0,0.1,0.1,0.2,0.1c0.1,0,0.1,0.1,0.2,0.1c0.1,0,0.2,0.1,0.3,0.1c0.1,0,0.2,0.1,0.3,0.1
			c0.1,0,0.2,0.1,0.2,0.1c0.1,0.1,0.1,0.1,0.2,0.2c0,0.1,0.1,0.2,0.1,0.3c0,0.1,0,0.2-0.1,0.4c0,0.1-0.1,0.2-0.2,0.3
			c-0.1,0.1-0.2,0.1-0.3,0.2c-0.1,0-0.3,0.1-0.4,0.1c-0.1,0-0.2,0-0.3,0c-0.1,0-0.2,0-0.3-0.1c-0.1,0-0.2-0.1-0.2-0.1
			c-0.1,0-0.1-0.1-0.2-0.2l0.1-0.2c0,0,0,0,0,0c0,0,0,0,0.1,0c0,0,0.1,0,0.1,0c0,0,0.1,0.1,0.1,0.1c0.1,0,0.1,0.1,0.2,0.1
			c0.1,0,0.2,0,0.3,0c0.2,0,0.3,0,0.4-0.1c0.1-0.1,0.1-0.2,0.1-0.3c0-0.1,0-0.1-0.1-0.2c0-0.1-0.1-0.1-0.2-0.1
			c-0.1,0-0.1-0.1-0.2-0.1c-0.1,0-0.2,0-0.2-0.1c-0.1,0-0.2-0.1-0.2-0.1c-0.1,0-0.2-0.1-0.2-0.1c-0.1-0.1-0.1-0.1-0.2-0.2
			c0-0.1-0.1-0.2-0.1-0.3c0-0.1,0-0.2,0.1-0.3c0-0.1,0.1-0.2,0.2-0.3c0.1-0.1,0.2-0.1,0.3-0.2c0.1,0,0.2-0.1,0.4-0.1
			c0.2,0,0.3,0,0.5,0.1c0.1,0.1,0.3,0.1,0.4,0.2L84.9,14.5z"/>
		<path class="st0" d="M89.6,16.5l0,0.4h-1.8V14h1.8v0.4h-1.3v0.9h1.1v0.4h-1.1v0.9H89.6z"/>
		<path class="st0" d="M95,15.5c0,0.2,0,0.4-0.1,0.6c-0.1,0.2-0.2,0.3-0.3,0.5c-0.1,0.1-0.3,0.2-0.5,0.3C94,16.9,93.8,17,93.6,17
			c-0.2,0-0.4,0-0.6-0.1c-0.2-0.1-0.3-0.2-0.5-0.3c-0.1-0.1-0.2-0.3-0.3-0.5c-0.1-0.2-0.1-0.4-0.1-0.6c0-0.2,0-0.4,0.1-0.6
			c0.1-0.2,0.2-0.3,0.3-0.5c0.1-0.1,0.3-0.2,0.5-0.3c0.2-0.1,0.4-0.1,0.6-0.1c0.2,0,0.4,0,0.6,0.1c0.2,0.1,0.3,0.2,0.5,0.3
			c0.1,0.1,0.2,0.3,0.3,0.5C95,15.1,95,15.3,95,15.5z M94.5,15.5c0-0.2,0-0.3-0.1-0.4c0-0.1-0.1-0.2-0.2-0.3
			c-0.1-0.1-0.2-0.2-0.3-0.2c-0.1,0-0.3-0.1-0.4-0.1c-0.1,0-0.3,0-0.4,0.1c-0.1,0-0.2,0.1-0.3,0.2c-0.1,0.1-0.1,0.2-0.2,0.3
			c0,0.1-0.1,0.3-0.1,0.4c0,0.2,0,0.3,0.1,0.4c0,0.1,0.1,0.2,0.2,0.3c0.1,0.1,0.2,0.2,0.3,0.2c0.1,0,0.3,0.1,0.4,0.1
			c0.1,0,0.3,0,0.4-0.1c0.1,0,0.2-0.1,0.3-0.2c0.1-0.1,0.1-0.2,0.2-0.3C94.5,15.8,94.5,15.6,94.5,15.5z"/>
		<path class="st0" d="M102.6,14.5C102.5,14.5,102.5,14.6,102.6,14.5c-0.1,0.1-0.1,0.1-0.1,0.1c0,0-0.1,0-0.1,0c0,0-0.1,0-0.1-0.1
			c0,0-0.1-0.1-0.2-0.1c-0.1,0-0.1,0-0.2,0c-0.1,0-0.2,0-0.2,0c-0.1,0-0.1,0-0.2,0.1c0,0-0.1,0.1-0.1,0.1c0,0,0,0.1,0,0.2
			c0,0.1,0,0.1,0.1,0.2c0,0,0.1,0.1,0.2,0.1c0.1,0,0.1,0.1,0.2,0.1c0.1,0,0.2,0.1,0.3,0.1c0.1,0,0.2,0.1,0.3,0.1
			c0.1,0,0.2,0.1,0.2,0.1c0.1,0.1,0.1,0.1,0.2,0.2s0.1,0.2,0.1,0.3c0,0.1,0,0.2-0.1,0.4c0,0.1-0.1,0.2-0.2,0.3
			c-0.1,0.1-0.2,0.1-0.3,0.2c-0.1,0-0.3,0.1-0.4,0.1c-0.1,0-0.2,0-0.3,0c-0.1,0-0.2,0-0.3-0.1c-0.1,0-0.2-0.1-0.2-0.1
			c-0.1,0-0.1-0.1-0.2-0.2l0.1-0.2c0,0,0,0,0,0c0,0,0,0,0.1,0c0,0,0.1,0,0.1,0c0,0,0.1,0.1,0.1,0.1c0.1,0,0.1,0.1,0.2,0.1
			c0.1,0,0.2,0,0.3,0c0.2,0,0.3,0,0.4-0.1c0.1-0.1,0.1-0.2,0.1-0.3c0-0.1,0-0.1-0.1-0.2c0-0.1-0.1-0.1-0.2-0.1
			c-0.1,0-0.1-0.1-0.2-0.1c-0.1,0-0.2,0-0.2-0.1c-0.1,0-0.2-0.1-0.2-0.1c-0.1,0-0.2-0.1-0.2-0.1c-0.1-0.1-0.1-0.1-0.2-0.2
			c0-0.1-0.1-0.2-0.1-0.3c0-0.1,0-0.2,0.1-0.3c0-0.1,0.1-0.2,0.2-0.3c0.1-0.1,0.2-0.1,0.3-0.2c0.1,0,0.2-0.1,0.4-0.1
			c0.2,0,0.3,0,0.5,0.1c0.1,0.1,0.3,0.1,0.4,0.2L102.6,14.5z"/>
		<path class="st0" d="M107.3,16.5l0,0.4h-1.8V14h1.8v0.4H106v0.9h1.1v0.4H106v0.9H107.3z"/>
		<path class="st0" d="M112.2,16.9h-0.4c-0.1,0-0.1,0-0.2-0.1l-0.7-1c0,0,0-0.1-0.1-0.1c0,0-0.1,0-0.1,0h-0.3v1.2H110V14h0.9
			c0.2,0,0.4,0,0.5,0.1c0.1,0,0.3,0.1,0.3,0.2c0.1,0.1,0.2,0.2,0.2,0.3c0,0.1,0.1,0.2,0.1,0.3c0,0.1,0,0.2,0,0.3s-0.1,0.2-0.1,0.2
			c-0.1,0.1-0.1,0.1-0.2,0.2c-0.1,0.1-0.2,0.1-0.3,0.1c0.1,0,0.1,0.1,0.1,0.1L112.2,16.9z M110.9,15.4c0.1,0,0.2,0,0.3,0
			c0.1,0,0.1-0.1,0.2-0.1c0.1,0,0.1-0.1,0.1-0.2c0-0.1,0-0.1,0-0.2c0-0.2-0.1-0.3-0.2-0.4c-0.1-0.1-0.3-0.1-0.5-0.1h-0.4v1H110.9z"
			/>
		<path class="st0" d="M117.2,14l-1.2,2.9h-0.4l-1.2-2.9h0.4c0,0,0.1,0,0.1,0c0,0,0,0,0.1,0.1l0.7,1.9c0,0.1,0.1,0.2,0.1,0.4
			c0-0.1,0-0.1,0-0.2c0-0.1,0-0.1,0.1-0.2l0.7-1.9c0,0,0-0.1,0.1-0.1c0,0,0.1,0,0.1,0H117.2z"/>
		<path class="st0" d="M120.2,16.9h-0.5V14h0.5V16.9z"/>
		<path class="st0" d="M125.2,16.3C125.2,16.3,125.2,16.3,125.2,16.3l0.3,0.2c-0.1,0.1-0.3,0.3-0.4,0.3c-0.2,0.1-0.4,0.1-0.6,0.1
			c-0.2,0-0.4,0-0.6-0.1c-0.2-0.1-0.3-0.2-0.4-0.3c-0.1-0.1-0.2-0.3-0.3-0.5c-0.1-0.2-0.1-0.4-0.1-0.6c0-0.2,0-0.4,0.1-0.6
			c0.1-0.2,0.2-0.3,0.3-0.5c0.1-0.1,0.3-0.2,0.4-0.3c0.2-0.1,0.4-0.1,0.6-0.1c0.2,0,0.4,0,0.6,0.1c0.2,0.1,0.3,0.2,0.4,0.3l-0.2,0.2
			c0,0,0,0,0,0s0,0-0.1,0c0,0-0.1,0-0.1,0c0,0-0.1-0.1-0.1-0.1c-0.1,0-0.1-0.1-0.2-0.1c-0.1,0-0.2,0-0.3,0c-0.1,0-0.3,0-0.4,0.1
			s-0.2,0.1-0.3,0.2c-0.1,0.1-0.1,0.2-0.2,0.3c0,0.1-0.1,0.3-0.1,0.5c0,0.2,0,0.3,0.1,0.5c0,0.1,0.1,0.2,0.2,0.3
			c0.1,0.1,0.2,0.2,0.3,0.2c0.1,0,0.2,0.1,0.4,0.1c0.1,0,0.2,0,0.2,0c0.1,0,0.1,0,0.2,0c0.1,0,0.1,0,0.2-0.1
			C125,16.4,125.1,16.4,125.2,16.3C125.1,16.3,125.2,16.3,125.2,16.3z"/>
		<path class="st0" d="M129.9,16.5l0,0.4h-1.8V14h1.8v0.4h-1.3v0.9h1.1v0.4h-1.1v0.9H129.9z"/>
		<path class="st0" d="M134.2,14.5C134.2,14.5,134.1,14.6,134.2,14.5c-0.1,0.1-0.1,0.1-0.1,0.1c0,0-0.1,0-0.1,0c0,0-0.1,0-0.1-0.1
			c0,0-0.1-0.1-0.2-0.1c-0.1,0-0.1,0-0.2,0c-0.1,0-0.2,0-0.2,0c-0.1,0-0.1,0-0.2,0.1c0,0-0.1,0.1-0.1,0.1c0,0,0,0.1,0,0.2
			c0,0.1,0,0.1,0.1,0.2c0,0,0.1,0.1,0.2,0.1c0.1,0,0.1,0.1,0.2,0.1c0.1,0,0.2,0.1,0.3,0.1c0.1,0,0.2,0.1,0.3,0.1
			c0.1,0,0.2,0.1,0.2,0.1c0.1,0.1,0.1,0.1,0.2,0.2c0,0.1,0.1,0.2,0.1,0.3c0,0.1,0,0.2-0.1,0.4c0,0.1-0.1,0.2-0.2,0.3
			c-0.1,0.1-0.2,0.1-0.3,0.2c-0.1,0-0.3,0.1-0.4,0.1c-0.1,0-0.2,0-0.3,0c-0.1,0-0.2,0-0.3-0.1c-0.1,0-0.2-0.1-0.2-0.1
			c-0.1,0-0.1-0.1-0.2-0.2l0.1-0.2c0,0,0,0,0,0c0,0,0,0,0.1,0c0,0,0.1,0,0.1,0c0,0,0.1,0.1,0.1,0.1c0.1,0,0.1,0.1,0.2,0.1
			c0.1,0,0.2,0,0.3,0c0.2,0,0.3,0,0.4-0.1c0.1-0.1,0.1-0.2,0.1-0.3c0-0.1,0-0.1-0.1-0.2c0-0.1-0.1-0.1-0.2-0.1
			c-0.1,0-0.1-0.1-0.2-0.1c-0.1,0-0.2,0-0.2-0.1c-0.1,0-0.2-0.1-0.2-0.1c-0.1,0-0.2-0.1-0.2-0.1c-0.1-0.1-0.1-0.1-0.2-0.2
			c0-0.1-0.1-0.2-0.1-0.3c0-0.1,0-0.2,0.1-0.3c0-0.1,0.1-0.2,0.2-0.3c0.1-0.1,0.2-0.1,0.3-0.2c0.1,0,0.2-0.1,0.4-0.1
			c0.2,0,0.3,0,0.5,0.1c0.1,0.1,0.3,0.1,0.4,0.2L134.2,14.5z"/>
	</g>
</g>
<g>
	<g>
		<g>
			<path class="st0" d="M137.4,2.6l-0.2-0.3c0,0,0,0-0.1,0h-0.2v0.3h-0.1v-1h0.4c0.1,0,0.2,0,0.3,0.1c0.1,0.1,0.1,0.1,0.1,0.3
				c0,0.1,0,0.1-0.1,0.2c0,0.1-0.1,0.1-0.2,0.1l0.2,0.3H137.4z M137.3,2.1c0,0,0.1-0.1,0.1-0.2s0-0.1-0.1-0.2c0,0-0.1-0.1-0.2-0.1
				h-0.2v0.4h0.2C137.2,2.2,137.2,2.2,137.3,2.1z"/>
		</g>
		<g>
			<path class="st0" d="M137.1,3.5c-0.7,0-1.3-0.6-1.3-1.3s0.6-1.3,1.3-1.3c0.7,0,1.3,0.6,1.3,1.3S137.8,3.5,137.1,3.5z M137.1,1
				c-0.6,0-1.2,0.5-1.2,1.2s0.5,1.2,1.2,1.2c0.6,0,1.2-0.5,1.2-1.2S137.7,1,137.1,1z"/>
		</g>
	</g>
</g>
<g>
	<path class="st0" d="M29.6,2.6C28.9,2.2,28.1,2,27.2,2c-0.9,0-1.7,0.2-2.4,0.6c-0.7,0.4-1.3,0.9-1.7,1.6c-0.4,0.7-0.6,1.5-0.6,2.3
		s0.2,1.6,0.6,2.3c0.4,0.7,1,1.2,1.7,1.6c0.7,0.4,1.5,0.6,2.4,0.6c0.9,0,1.7-0.2,2.4-0.6c0.7-0.4,1.3-0.9,1.7-1.6
		c0.4-0.7,0.6-1.5,0.6-2.3c0-0.9-0.2-1.6-0.6-2.3C30.9,3.5,30.3,3,29.6,2.6z M30.8,6.6c0,0.7-0.2,1.3-0.5,1.8
		c-0.3,0.5-0.8,1-1.3,1.3h0c-0.5,0.3-1.2,0.5-1.8,0.5c-0.7,0-1.3-0.2-1.9-0.5c-0.5-0.3-1-0.7-1.3-1.3c-0.3-0.5-0.5-1.2-0.5-1.8
		c0-0.7,0.2-1.3,0.5-1.8c0.3-0.5,0.8-1,1.3-1.3C25.9,3.1,26.5,3,27.2,3c0.7,0,1.3,0.2,1.8,0.5c0.5,0.3,1,0.7,1.3,1.3
		C30.7,5.3,30.8,5.9,30.8,6.6z"/>
	<polygon class="st0" points="36.3,9.5 33,2.1 31.8,2.1 35.9,11.1 36.7,11.1 40.8,2.1 39.7,2.1 	"/>
	<polygon class="st0" points="42.7,7 47.2,7 47.2,6 42.7,6 42.7,3 47.8,3 47.8,2.1 41.6,2.1 41.6,11.1 48,11.1 48,10.1 42.7,10.1 	
		"/>
	<path class="st0" d="M56.2,7c0.4-0.5,0.6-1.1,0.6-1.8c0-1-0.3-1.7-1-2.3c-0.6-0.5-1.5-0.8-2.7-0.8h-3.3v9h1V8.3h2.2
		c0.2,0,0.5,0,0.7,0l2,2.9h1.2L54.9,8C55.4,7.7,55.9,7.4,56.2,7z M55.7,5.2c0,0.7-0.2,1.2-0.7,1.6c-0.4,0.4-1.1,0.6-2,0.6h-2.2V3
		h2.2c0.9,0,1.5,0.2,2,0.6C55.5,4,55.7,4.5,55.7,5.2z"/>
	<path class="st0" d="M115.3,6.4c-0.4-0.2-0.9-0.3-1.6-0.5c-0.6-0.1-1-0.3-1.4-0.4c-0.3-0.1-0.6-0.3-0.8-0.5
		c-0.2-0.2-0.3-0.5-0.3-0.8c0-0.5,0.2-0.8,0.6-1.1c0.4-0.3,1-0.5,1.7-0.5c0.4,0,0.8,0.1,1.2,0.2c0.4,0.1,0.8,0.3,1.1,0.5l0.2,0.1
		l0.4-0.9l-0.1-0.1c-0.4-0.3-0.8-0.5-1.3-0.6c-0.5-0.1-1-0.2-1.5-0.2c-0.7,0-1.3,0.1-1.8,0.3c-0.5,0.2-0.9,0.5-1.1,0.9
		c-0.2,0.4-0.4,0.8-0.4,1.3c0,0.6,0.2,1.1,0.5,1.4c0.3,0.3,0.7,0.6,1.1,0.8c0.4,0.2,0.9,0.3,1.6,0.5c0.6,0.1,1,0.3,1.3,0.4
		c0.3,0.1,0.6,0.3,0.8,0.5c0.2,0.2,0.3,0.5,0.3,0.8c0,0.5-0.2,0.8-0.6,1.1c-0.4,0.3-1,0.4-1.8,0.4c-0.6,0-1.1-0.1-1.6-0.3
		c-0.5-0.2-0.9-0.5-1.2-0.8l-0.2-0.2l-0.5,0.8l0.1,0.1c0.4,0.4,0.8,0.7,1.5,0.9c0.6,0.2,1.3,0.3,1.9,0.3c0.7,0,1.4-0.1,1.9-0.3
		c0.5-0.2,0.9-0.5,1.2-0.9c0.3-0.4,0.4-0.8,0.4-1.3c0-0.6-0.2-1-0.5-1.4C116,6.8,115.7,6.6,115.3,6.4z"/>
	<polygon class="st0" points="119.4,6.8 124.2,6.8 124.2,5.8 119.4,5.8 119.4,2.7 124.7,2.7 124.7,1.7 118.4,1.7 118.4,11 124.9,11 
		124.9,10.1 119.4,10.1 	"/>
	<path class="st0" d="M134.6,4c-0.4-0.7-1-1.3-1.7-1.7c-0.7-0.4-1.6-0.6-2.5-0.6c-0.9,0-1.7,0.2-2.5,0.6c-0.7,0.4-1.3,1-1.7,1.7
		c-0.4,0.7-0.6,1.5-0.6,2.4c0,0.9,0.2,1.7,0.6,2.4c0.4,0.7,1,1.3,1.7,1.7h0c0.7,0.4,1.6,0.6,2.5,0.6c0.9,0,1.7-0.2,2.5-0.6
		c0.7-0.4,1.3-1,1.7-1.7c0.4-0.7,0.6-1.5,0.6-2.4C135.2,5.5,135,4.7,134.6,4z M134.1,6.4c0,0.7-0.2,1.3-0.5,1.9
		c-0.3,0.6-0.8,1-1.3,1.3c-0.6,0.3-1.2,0.5-1.9,0.5c-0.7,0-1.4-0.2-1.9-0.5c-0.6-0.3-1-0.8-1.4-1.3c-0.3-0.6-0.5-1.2-0.5-1.9
		c0-0.7,0.2-1.3,0.5-1.9c0.3-0.6,0.8-1,1.4-1.3c0.6-0.3,1.2-0.5,1.9-0.5c0.7,0,1.4,0.2,1.9,0.5c0.6,0.3,1,0.8,1.3,1.3
		C134,5.1,134.1,5.7,134.1,6.4z"/>
</g>
<polygon class="st0" points="12.6,3.7 16.7,2.2 15.2,6.3 14.7,5.4 6.7,13.4 4.3,13.4 13.5,4.2 "/>
<path class="st1" d="M17.8,13c0.4-1.1,0.7-2.3,0.7-3.4c0-1.2-0.2-2.3-0.7-3.4c-0.1-0.3-0.3-0.6-0.4-0.9l-0.9,2.5
	c0.6,2.4,0,5.1-1.9,7c-1.7,1.7-4.1,2.4-6.4,2.1c-0.2,0-0.6-0.1-0.6-0.1s0.3,0,1.2-0.3l3-3l0.4,0.9l1.5-3.8l-3.8,1.5l0.9,0.4
	l-4.1,4.1c0,0,0,0,0,0l-1.3,1.3c0,0,0,0,0,0l-0.6,0.6L6,18.1c1.1,0.4,2.2,0.6,3.3,0.6c1.2,0,2.3-0.2,3.4-0.7c1.1-0.5,2.2-1.1,3-2
	C16.7,15.1,17.4,14.1,17.8,13z"/>
<path class="st1" d="M8.2,6.8l0.4,0.9L10,3.8L6.2,5.3L7,5.6l-4.5,4.5c-0.3,0.9-0.3,1.2-0.3,1.2s-0.1-0.4-0.1-0.6
	C1.7,8.5,2.4,6.1,4.1,4.3c1.9-1.9,4.6-2.5,7-1.9l2.5-0.9c-0.3-0.2-0.6-0.3-0.9-0.4c-1.1-0.4-2.3-0.7-3.4-0.7C8.1,0.4,7,0.6,5.9,1.1
	c-1.1,0.5-2.2,1.1-3,2s-1.5,1.9-2,3C0.4,7.2,0.2,8.3,0.2,9.5c0,1.1,0.2,2.3,0.6,3.3l-0.2,1.4l0.6-0.6c0,0,0,0,0,0l1.3-1.3
	c0,0,0,0,0,0L8.2,6.8z"/>
</svg>
