<?xml version="1.0" encoding="utf-8"?>
<!-- Generator: Adobe Illustrator 22.0.0, SVG Export Plug-In . SVG Version: 6.00 Build 0)  -->
<svg version="1.1" id="Layer_1" xmlns="http://www.w3.org/2000/svg" xmlns:xlink="http://www.w3.org/1999/xlink" x="0px" y="0px"
	 viewBox="0 0 65 65" style="enable-background:new 0 0 65 65;" xml:space="preserve">
<style type="text/css">
	.st0{fill:#4B5DA5;}
	.st1{fill:#B4BCDA;}
</style>
<circle class="st0" cx="32.5" cy="32.5" r="32.5"/>
<g transform="translate(280 1600)">
	<path class="st1" d="M-243-1569.8c-2,0-3.7-1.7-3.7-3.7s1.7-3.7,3.7-3.7s3.7,1.7,3.7,3.7C-239.3-1571.4-241-1569.8-243-1569.8z
		 M-243-1575.7c-1.2,0-2.2,1-2.2,2.2s1,2.2,2.2,2.2s2.2-1,2.2-2.2S-241.8-1575.7-243-1575.7z"/>
	<path class="st1" d="M-262.3-1553.5c-0.2,0-0.4-0.1-0.5-0.2c-0.2-0.2-0.3-0.5-0.2-0.8c2.3-6.3,4.7-9.4,7.1-9.4c0.8,0,1.6,0.3,2.2,1
		c1.1,1.1,1.1,2.2,1,2.9c-0.5,2.2-3.6,4.4-9.4,6.5C-262.1-1553.5-262.2-1553.5-262.3-1553.5L-262.3-1553.5z M-255.8-1562.4
		c-0.7,0-1.6,0.6-2.5,1.9c-0.9,1.2-1.8,2.9-2.6,5.1c2-0.8,3.6-1.6,4.7-2.4c1.6-1.1,2-1.9,2.2-2.4c0.1-0.5-0.1-1-0.6-1.5
		C-255-1562.2-255.4-1562.4-255.8-1562.4L-255.8-1562.4z"/>
	<path class="st1" d="M-234.1-1583.1c-3.8,0-7.3,0.7-10.2,1.9c-2.4,1.1-4.5,2.5-6.1,4.4c-0.3,0.4-0.6,0.7-0.9,1.1
		c-1.3,0.1-2.6,0.6-3.9,1.5c-1.1,0.8-2.2,1.9-3.3,3.2c-1.8,2.3-2.9,4.5-3,4.6c-0.2,0.3-0.1,0.7,0.2,0.9c0.1,0.1,0.3,0.1,0.4,0.1
		c0.2,0,0.4-0.1,0.5-0.2c0,0,0.7-0.7,1.9-1.4c1-0.6,2.5-1.2,4.4-1.3c0.5,1.2,1.8,2.6,2.5,3.3c0.6,0.6,2.1,2,3.3,2.5
		c-0.1,1.9-0.8,3.4-1.3,4.4c-0.7,1.2-1.4,1.9-1.4,1.9c-0.3,0.3-0.3,0.7-0.1,1c0.1,0.2,0.4,0.3,0.6,0.3c0.1,0,0.2,0,0.3-0.1
		c0.1,0,2.3-1.2,4.6-3c1.3-1.1,2.4-2.2,3.2-3.3c0.9-1.3,1.4-2.6,1.5-3.9c0.4-0.3,0.7-0.5,1.1-0.9c1.9-1.7,3.4-3.7,4.4-6.1
		c1.3-2.9,1.9-6.3,1.9-10.2v-0.7L-234.1-1583.1L-234.1-1583.1z M-258.4-1568.6c1.4-2,3.6-4.6,6-5.4c-1,1.7-1.5,3.2-1.6,4.2
		C-255.8-1569.6-257.2-1569.1-258.4-1568.6z M-247.9-1558.1c0.6-1.2,1.1-2.6,1.2-4.4c1-0.2,2.5-0.7,4.2-1.6
		C-243.3-1561.6-245.9-1559.5-247.9-1558.1L-247.9-1558.1z M-240.7-1567.2c-3.1,2.7-6.3,3.3-6.7,3.3c0,0-0.3,0-1.1-0.6
		c-0.6-0.4-1.2-1-1.9-1.6c-0.6-0.6-1.2-1.3-1.6-1.9c-0.6-0.8-0.6-1.1-0.6-1.1c0-0.5,0.6-3.6,3.3-6.7c3.3-3.7,8.2-5.7,14.4-5.9
		C-235-1575.4-237-1570.4-240.7-1567.2L-240.7-1567.2z"/>
</g>
</svg>
