<?xml version="1.0" encoding="utf-8"?>
<!-- Generator: Adobe Illustrator 22.0.0, SVG Export Plug-In . SVG Version: 6.00 Build 0)  -->
<svg version="1.1" id="Layer_1" xmlns="http://www.w3.org/2000/svg" xmlns:xlink="http://www.w3.org/1999/xlink" x="0px" y="0px"
	 viewBox="0 0 39.9 39.1" style="enable-background:new 0 0 39.9 39.1;" xml:space="preserve">
<style type="text/css">
	.st0{fill:#FFFFFF;}
</style>
<g transform="translate(480 1000)">
	<path class="st0" d="M-448-960.9c-3.5,0-7.1-1-10.9-2.9c-3.5-1.8-7-4.3-10-7.4c-3-3-5.6-6.5-7.4-10c-1.9-3.8-2.9-7.5-2.9-10.9
		c0-2.2,2.1-4.4,3-5.2c1.3-1.2,3.3-2.6,4.8-2.6c0.7,0,1.6,0.5,2.7,1.5c0.8,0.8,1.8,1.8,2.7,3c0.6,0.7,3.4,4.4,3.4,6.2
		c0,1.5-1.6,2.5-3.4,3.5c-0.7,0.4-1.4,0.8-1.9,1.2c-0.5,0.4-0.6,0.7-0.7,0.7c1.9,4.6,7.5,10.3,12.1,12.1c0,0,0.3-0.1,0.7-0.7
		c0.4-0.5,0.8-1.2,1.2-1.9c1.1-1.7,2.1-3.4,3.5-3.4c1.8,0,5.5,2.8,6.2,3.4c1.2,0.9,2.2,1.9,3,2.7c1,1.1,1.5,2,1.5,2.7
		c0,1.5-1.4,3.5-2.6,4.8C-443.6-963-445.8-960.9-448-960.9L-448-960.9z"/>
</g>
</svg>
