<svg version="1.1" id="Layer_1" xmlns="http://www.w3.org/2000/svg" x="0" y="0" viewBox="0 0 40 38.9" xml:space="preserve"><style type="text/css">.st0{fill:#f2865b}</style><path class="st0" d="M7.6 38.2c.1-.6.1-1.2.2-1.8.4-3 .8-6.1 1.1-9.1.1-.7.2-1.5.3-2.2 0-.3 0-.5-.2-.7C6 21.3 3.1 18.1.1 15l-.2-.2c.6-.1 1.1-.2 1.7-.3 3-.6 5.9-1.1 8.9-1.7.8-.2 1.7-.3 2.5-.5.3 0 .4-.2.6-.4 2.1-3.8 4.1-7.5 6.2-11.3.1-.1.1-.2.2-.3.1.1.1.2.2.3 2.1 3.8 4.1 7.5 6.2 11.3.1.2.3.3.5.4 4.2.8 8.5 1.6 12.7 2.4.1 0 .2 0 .3.1-.1.1-.2.2-.2.3-2.9 3.1-5.9 6.3-8.8 9.4-.2.2-.3.4-.2.7.4 3 .8 6.1 1.1 9.1.1 1.2.3 2.4.5 3.6v.5c-.2-.1-.3-.1-.4-.2-3.9-1.8-7.8-3.6-11.6-5.5-.2-.1-.4-.1-.7 0-3.9 1.8-7.8 3.6-11.6 5.5-.1-.1-.2-.1-.4 0z"/></svg>