<svg version="1.1" id="Layer_1" xmlns="http://www.w3.org/2000/svg" x="0" y="0" viewBox="0 0 34.9 32.8" xml:space="preserve"><style type="text/css">.st0{fill-rule:evenodd;clip-rule:evenodd}.st0,.st1{fill:#fff}</style><path class="st0" d="M-39.7 5.8h3.4V.7c-.5-.1-1.1-.1-1.6-.2-1 0-2-.1-3-.1-1.6 0-3 .4-4.3 1.3-1.5 1.1-2.3 2.5-2.6 4.3-.2.8-.2 1.6-.3 2.3v3.9H-53V18h4.9v14.5h6V18h4.9c.3-1.9.5-3.8.8-5.8h-5.7V8.1c0-1.7 1-2.2 2.4-2.3zm222.2 20.8c-3.8-.1-6.1-2.8-6.8-5 1.1.2 2.1.2 3.1-.1h.1c-2-.5-3.6-1.6-4.7-3.3-.7-1.2-1.1-2.5-1.1-3.9 1 .5 2.1.8 3.2.9-1.5-1.1-2.6-2.6-3-4.4-.4-1.8-.1-3.6.8-5.3 3.9 4.6 8.9 7.2 15 7.6 0-.3-.1-.5-.1-.8-.2-1.7.1-3.3 1.1-4.7 1.2-1.8 2.8-2.9 4.9-3.3 2.4-.4 4.6.3 6.4 2 .1.1.2.2.4.1 1.5-.3 2.9-.9 4.2-1.6h.1c-.6 1.7-1.6 3-3.1 4 1.4-.2 2.7-.5 4-1.1-.3.4-.5.7-.8 1.1-.8 1-1.7 1.8-2.6 2.5-.1.1-.1.1-.1.2 0 1.1 0 2.2-.1 3.2-.3 2.3-.9 4.4-1.9 6.5-1 2.1-2.3 4-3.9 5.7-2.8 2.9-6.1 4.7-10 5.6-1.3.3-2.7.4-4 .5-4.2.1-8.1-.9-11.6-3.1 0 0-.1-.1-.2-.1 2.5.3 4.9-.1 7.3-1 1.1-.7 2.3-1.3 3.4-2.2zm82.3-2c0 .1-.1.2-.1.3-1.3 5-1.4 6.1-2.7 8.4-.6 1.1-1.3 2.2-2.1 3.2-.1.1-.2.3-.3.2-.2 0-.2-.2-.2-.4-.2-1.5-.3-3-.3-4.6.1-2 .3-2.7 2.9-13.5 0-.2 0-.3-.1-.5-.6-1.7-.7-3.4-.2-5.1 1.2-3.7 5.4-4 6.1-.9.5 1.9-.7 4.4-1.7 8-.8 3 2.8 5.2 5.8 3 2.8-2 3.9-6.9 3.7-10.3-.4-6.9-7.9-8.3-12.7-6.1-5.5 2.5-6.7 9.3-4.2 12.4.3.4.6.6.5 1-.2.6-.3 1.2-.5 1.9-.1.5-.5.6-1 .4-.9-.4-1.7-.9-2.3-1.7-2.1-2.6-2.7-7.7.1-12.1 3.1-4.8 8.8-6.8 14-6.2 6.2.7 10.2 5 10.9 9.8.3 2.2.1 7.6-3 11.5-3.6 4.4-9.3 4.7-12 2-.3-.2-.4-.4-.6-.7z"/><path class="st1" d="M96.1 16.8v5.6h7.5c0 .6-.7 2.8-2.8 4.2-1.2.8-2.6 1.2-4.1 1.3-1 .1-2.1 0-3-.4-3.1-1-5.5-3.8-5.8-7.3-.1-.9 0-1.7.2-2.5.9-4.1 4.8-7.1 9.2-6.5 2 .3 3.1 1.1 4.1 2l4.1-4.1c-.3-.2-1.1-1-2.5-1.8-2.1-1.2-4.3-1.8-6.7-1.8H95c-.8 0-1.6.2-2.3.4-3 .8-5.6 2.4-7.5 4.8-1.9 2.3-2.9 5-3.1 8-.1 1.3 0 2.5.3 3.8.8 3.5 2.6 6.3 5.5 8.4 2.2 1.6 4.7 2.5 7.5 2.7 1.6.1 3.1-.1 4.6-.5 2.8-.7 5.2-2.2 6.9-4.5 2.5-3.4 3.2-7.7 2.4-11.9-4.4.1-8.8.1-13.2.1zm30.2.2h-4.7v-4.9h-3.9V17h-4.9v3.9h4.9v4.9h3.9v-4.9h4.9V17z"/><path class="st0" d="M3.6 29.9c-1.3-.4-2.2-1.3-2.6-2.5-1.1-3.1-1.5-16.2.7-18.7.7-.9 1.7-1.4 2.9-1.5 5.9-.6 24.1-.5 26.2.2 1.2.4 2.1 1.2 2.6 2.5 1.2 3.2 1.3 15-.2 18.1-.4.8-1 1.4-1.8 1.9-2.3 1-24.9 1-27.8 0zm9.4-6.1c3.5-1.8 7-3.7 10.6-5.5-3.6-1.9-7.1-3.7-10.6-5.5v11z"/><path class="st1" d="M346 12.7c.3-.9.7-1.7 1.1-2.4 1.1-1.7 2.6-2.9 4.4-3.8 1.8-.8 3.6-.9 5.4-.2 1.2.4 1.7 1.4 1.8 2.6.1 1.2-.2 2.3-.6 3.4-1.3 4-3.2 7.7-5.6 11.2-1.5 2.3-3.3 4.3-5.4 6.1-1.2.9-2.4 1.8-3.8 2.2-1.9.5-3.1.1-4.3-1.5-1-1.4-1.5-3-1.9-4.6-.8-3.1-1.5-6.1-2.6-9.1-.2-.7-.6-1.4-.9-2-.3-.5-.8-.7-1.3-.5-.6.1-1.1.3-1.7.4-1 .2-1.2.1-1.8-.8-.4-.6-.4-.6.2-1 1.5-1.3 3-2.6 4.6-3.9 1-.8 2-1.4 3.2-1.8 1.5-.5 2.7-.1 3.6 1.2.6.9.9 1.9 1.1 2.9.5 2.4.7 4.8 1.1 7.2.2 1.3.5 2.6 1.3 3.6.3.3.6.6.9.8.6.3 1.3.1 1.8-.4.7-.7 1.1-1.5 1.5-2.3.5-1 .9-1.9 1.3-2.9.2-.6.3-1.4.2-2 0-1.4-.8-2-2.2-2.1-.3-.3-.8-.3-1.4-.3z"/></svg>